<svg width="382" height="716" viewBox="0 0 382 716" fill="none" xmlns="http://www.w3.org/2000/svg">
<rect opacity="0.6" width="382" height="716" fill="black"/>
<path opacity="0.35" d="M318.776 30.0448C318.776 28.4866 320.039 27.2234 321.598 27.2234H343.301C344.859 27.2234 346.122 28.4866 346.122 30.0448V37.858C346.122 39.4162 344.859 40.6794 343.301 40.6794H321.598C320.039 40.6794 318.776 39.4162 318.776 37.858V30.0448Z" stroke="#1D232E" stroke-width="1.3022"/>
<path opacity="0.4" d="M348.076 31.3467V36.5555C349.124 36.1143 349.806 35.0881 349.806 33.9511C349.806 32.8141 349.124 31.7878 348.076 31.3467Z" fill="#1D232E"/>
<path d="M320.729 30.913C320.729 29.9541 321.506 29.1768 322.465 29.1768H342.432C343.391 29.1768 344.168 29.9541 344.168 30.913V36.9899C344.168 37.9489 343.391 38.7262 342.432 38.7262H322.465C321.506 38.7262 320.729 37.9489 320.729 36.9899V30.913Z" fill="#1D232E"/>
<path fill-rule="evenodd" clip-rule="evenodd" d="M301.628 29.5339C304.513 29.534 307.289 30.6428 309.38 32.6309C309.537 32.7844 309.789 32.7825 309.944 32.6266L311.45 31.1074C311.528 31.0283 311.572 30.9212 311.571 30.8098C311.571 30.6983 311.526 30.5917 311.446 30.5136C305.957 25.2533 297.298 25.2533 291.809 30.5136C291.729 30.5917 291.684 30.6982 291.684 30.8097C291.683 30.9211 291.727 31.0282 291.805 31.1074L293.311 32.6266C293.466 32.7827 293.718 32.7847 293.875 32.6309C295.967 30.6426 298.742 29.5339 301.628 29.5339ZM301.628 34.4766C303.213 34.4765 304.742 35.0658 305.917 36.13C306.076 36.281 306.326 36.2777 306.481 36.1226L307.985 34.6034C308.064 34.5237 308.108 34.4156 308.107 34.3033C308.106 34.1909 308.06 34.0837 307.979 34.0057C304.4 30.6768 298.858 30.6768 295.279 34.0057C295.199 34.0837 295.153 34.191 295.151 34.3033C295.15 34.4157 295.195 34.5238 295.274 34.6034L296.777 36.1226C296.932 36.2777 297.182 36.281 297.341 36.13C298.516 35.0665 300.043 34.4773 301.628 34.4766ZM304.64 37.8022C304.642 37.9148 304.598 38.0235 304.517 38.1024L301.916 40.7272C301.84 40.8043 301.736 40.8477 301.628 40.8477C301.519 40.8477 301.415 40.8043 301.339 40.7272L298.738 38.1024C298.657 38.0234 298.613 37.9148 298.616 37.8021C298.618 37.6895 298.667 37.5828 298.75 37.5073C300.411 36.1024 302.844 36.1024 304.505 37.5073C304.589 37.5828 304.637 37.6896 304.64 37.8022Z" fill="#1D232E"/>
<path fill-rule="evenodd" clip-rule="evenodd" d="M283.835 27.0059H282.533C281.814 27.0059 281.231 27.5889 281.231 28.3081V39.5938C281.231 40.313 281.814 40.896 282.533 40.896H283.835C284.554 40.896 285.137 40.313 285.137 39.5938V28.3081C285.137 27.5889 284.554 27.0059 283.835 27.0059ZM276.457 30.0443H277.759C278.478 30.0443 279.061 30.6273 279.061 31.3465V39.5937C279.061 40.3129 278.478 40.8959 277.759 40.8959H276.457C275.738 40.8959 275.155 40.3129 275.155 39.5937V31.3465C275.155 30.6273 275.738 30.0443 276.457 30.0443ZM271.682 33.0828H270.38C269.66 33.0828 269.077 33.6658 269.077 34.385V39.5938C269.077 40.313 269.66 40.896 270.38 40.896H271.682C272.401 40.896 272.984 40.313 272.984 39.5938V34.385C272.984 33.6658 272.401 33.0828 271.682 33.0828ZM265.604 35.6871H264.302C263.583 35.6871 263 36.2701 263 36.9893V39.5937C263 40.3129 263.583 40.8959 264.302 40.8959H265.604C266.324 40.8959 266.907 40.3129 266.907 39.5937V36.9893C266.907 36.2701 266.324 35.6871 265.604 35.6871Z" fill="#1D232E"/>
<path d="M22.0358 40.7954C25.5361 40.7954 27.6153 38.0581 27.6153 33.4228C27.6153 31.6774 27.2815 30.2087 26.6425 29.0737C25.7173 27.3092 24.1246 26.3555 22.1121 26.3555C19.1173 26.3555 17 28.3679 17 31.191C17 33.8425 18.9075 35.7691 21.5303 35.7691C23.1422 35.7691 24.4488 35.0156 25.0974 33.7089H25.126C25.126 33.7089 25.1642 33.7089 25.1737 33.7089C25.1928 33.7089 25.2595 33.7089 25.2595 33.7089C25.2595 36.8563 24.0673 38.7352 22.0549 38.7352C20.8723 38.7352 19.9566 38.0867 19.6419 37.0471H17.1908C17.6009 39.3075 19.5179 40.7954 22.0358 40.7954ZM22.1217 33.8139C20.5384 33.8139 19.413 32.6884 19.413 31.1147C19.413 29.5792 20.5957 28.406 22.1312 28.406C23.6668 28.406 24.8494 29.5982 24.8494 31.1529C24.8494 32.6884 23.6954 33.8139 22.1217 33.8139Z" fill="#1D232E"/>
<path d="M31.6406 40.6618C32.5466 40.6618 33.1666 40.0133 33.1666 39.1549C33.1666 38.287 32.5466 37.648 31.6406 37.648C30.744 37.648 30.1145 38.287 30.1145 39.1549C30.1145 40.0133 30.744 40.6618 31.6406 40.6618ZM31.6406 33.5087C32.5466 33.5087 33.1666 32.8696 33.1666 32.0113C33.1666 31.1433 32.5466 30.5043 31.6406 30.5043C30.744 30.5043 30.1145 31.1433 30.1145 32.0113C30.1145 32.8696 30.744 33.5087 31.6406 33.5087Z" fill="#1D232E"/>
<path d="M42.0941 40.4615H44.4499V37.8959H46.3097V35.8167H44.4499V26.6988H40.9782C38.5462 30.3613 36.61 33.4228 35.3701 35.7023V37.8959H42.0941V40.4615ZM37.6496 35.7309C39.2519 32.9078 40.6826 30.6474 41.9988 28.7017H42.1323V35.874H37.6496V35.7309Z" fill="#1D232E"/>
<path d="M51.5558 40.4615H54.0165V26.6988H51.5653L47.9697 29.2167V31.5821L51.3936 29.1786H51.5558V40.4615Z" fill="#1D232E"/>
<rect x="36" y="168" width="312" height="420" rx="16" fill="white"/>
<g clip-path="url(#clip0_214_754)">
<path d="M174.431 286C173.951 286.003 173.48 285.88 173.063 285.642L166.34 281.757C165.924 281.517 165.579 281.172 165.339 280.756C165.099 280.341 164.973 279.87 164.973 279.39V271.62C164.972 271.14 165.098 270.668 165.338 270.252C165.578 269.837 165.924 269.492 166.34 269.253L173.063 265.368C173.479 265.127 173.95 265 174.431 265C174.911 265 175.383 265.127 175.798 265.368L182.521 269.253C182.938 269.492 183.283 269.837 183.523 270.252C183.763 270.668 183.889 271.14 183.889 271.62V279.39C183.888 279.87 183.762 280.341 183.522 280.756C183.282 281.172 182.937 281.517 182.521 281.757L175.798 285.642C175.382 285.88 174.91 286.003 174.431 286ZM174.431 266.697C174.248 266.697 174.069 266.746 173.912 266.839L167.189 270.724C167.031 270.814 166.899 270.944 166.808 271.102C166.717 271.259 166.669 271.438 166.67 271.62V279.39C166.67 279.572 166.719 279.75 166.81 279.907C166.901 280.064 167.031 280.195 167.189 280.286L173.912 284.171C174.071 284.259 174.249 284.305 174.431 284.305C174.612 284.305 174.791 284.259 174.949 284.171L181.673 280.286C181.83 280.195 181.961 280.064 182.052 279.907C182.143 279.75 182.191 279.572 182.191 279.39V271.62C182.192 271.438 182.144 271.259 182.053 271.102C181.962 270.944 181.831 270.814 181.673 270.724L174.949 266.839C174.792 266.746 174.613 266.697 174.431 266.697Z" fill="url(#paint0_linear_214_754)"/>
<path d="M170.895 279.409V271.601C170.895 271.466 170.948 271.337 171.044 271.241C171.139 271.146 171.269 271.092 171.404 271.092H174.685C175.209 271.082 175.732 271.139 176.241 271.262C176.618 271.353 176.973 271.516 177.288 271.743C177.549 271.933 177.754 272.19 177.882 272.488C178.006 272.803 178.066 273.139 178.061 273.478C178.061 273.673 178.033 273.866 177.976 274.053C177.919 274.24 177.83 274.415 177.712 274.572C177.581 274.742 177.421 274.889 177.241 275.005C177.029 275.148 176.801 275.265 176.562 275.354C177.052 275.442 177.503 275.679 177.854 276.033C178.138 276.377 178.285 276.813 178.269 277.259C178.269 277.619 178.196 277.976 178.052 278.306C177.903 278.63 177.684 278.916 177.41 279.145C177.107 279.403 176.754 279.596 176.373 279.711C175.915 279.853 175.438 279.923 174.959 279.918H171.404C171.337 279.918 171.271 279.905 171.209 279.879C171.147 279.854 171.091 279.816 171.044 279.769C170.996 279.722 170.959 279.666 170.933 279.604C170.908 279.542 170.895 279.476 170.895 279.409ZM172.78 274.807H174.582C174.787 274.807 174.992 274.791 175.194 274.76C175.356 274.728 175.512 274.671 175.657 274.59C175.78 274.502 175.88 274.386 175.949 274.251C176.019 274.084 176.051 273.904 176.043 273.723C176.046 273.544 176.021 273.366 175.968 273.195C175.917 273.065 175.832 272.951 175.723 272.865C175.601 272.771 175.459 272.706 175.308 272.676C175.111 272.644 174.913 272.628 174.714 272.629H172.828L172.78 274.807ZM172.78 276.175V278.372H174.959C175.183 278.377 175.407 278.342 175.619 278.268C175.771 278.209 175.909 278.12 176.024 278.004C176.118 277.895 176.186 277.766 176.222 277.627C176.26 277.492 176.279 277.352 176.279 277.212C176.278 277.065 176.255 276.919 176.213 276.778C176.17 276.651 176.096 276.537 175.996 276.448C175.871 276.355 175.731 276.285 175.581 276.241C175.371 276.19 175.156 276.168 174.94 276.175H172.78Z" fill="url(#paint1_linear_214_754)"/>
</g>
<rect x="59" y="530" width="266" height="4" rx="2" fill="#E8E8E8"/>
<rect x="59" y="530" width="174.236" height="4" rx="2" fill="#00B1B3"/>
<path d="M245.912 513.272C245.912 513.555 245.821 513.784 245.64 513.96C245.464 514.136 245.168 514.224 244.752 514.224H241.568L241.152 516.64C241.675 516.533 242.152 516.48 242.584 516.48C243.192 516.48 243.725 516.571 244.184 516.752C244.648 516.933 245.037 517.184 245.352 517.504C245.667 517.824 245.904 518.2 246.064 518.632C246.224 519.059 246.304 519.52 246.304 520.016C246.304 520.629 246.195 521.189 245.976 521.696C245.763 522.203 245.464 522.637 245.08 523C244.696 523.357 244.24 523.635 243.712 523.832C243.189 524.029 242.619 524.128 242 524.128C241.637 524.128 241.293 524.091 240.968 524.016C240.643 523.941 240.336 523.843 240.048 523.72C239.765 523.592 239.501 523.448 239.256 523.288C239.016 523.123 238.8 522.949 238.608 522.768L239.216 521.928C239.344 521.747 239.515 521.656 239.728 521.656C239.861 521.656 239.995 521.699 240.128 521.784C240.267 521.869 240.427 521.963 240.608 522.064C240.789 522.165 241 522.259 241.24 522.344C241.48 522.429 241.771 522.472 242.112 522.472C242.475 522.472 242.795 522.413 243.072 522.296C243.349 522.179 243.579 522.016 243.76 521.808C243.947 521.595 244.085 521.344 244.176 521.056C244.272 520.763 244.32 520.445 244.32 520.104C244.32 519.475 244.136 518.984 243.768 518.632C243.405 518.275 242.869 518.096 242.16 518.096C241.6 518.096 241.037 518.197 240.472 518.4L239.24 518.048L240.2 512.432H245.912V513.272ZM247.921 522.784C247.921 522.635 247.948 522.496 248.001 522.368C248.06 522.235 248.14 522.12 248.241 522.024C248.343 521.923 248.465 521.845 248.609 521.792C248.753 521.733 248.911 521.704 249.081 521.704C249.284 521.704 249.46 521.741 249.609 521.816C249.759 521.885 249.884 521.984 249.985 522.112C250.087 522.235 250.161 522.379 250.209 522.544C250.257 522.704 250.281 522.875 250.281 523.056C250.281 523.312 250.241 523.581 250.161 523.864C250.087 524.147 249.975 524.429 249.825 524.712C249.676 524.995 249.492 525.269 249.273 525.536C249.055 525.803 248.804 526.048 248.521 526.272L248.177 525.96C248.081 525.88 248.033 525.781 248.033 525.664C248.033 525.621 248.047 525.573 248.073 525.52C248.105 525.467 248.143 525.419 248.185 525.376C248.244 525.312 248.316 525.232 248.401 525.136C248.487 525.045 248.572 524.939 248.657 524.816C248.743 524.699 248.82 524.568 248.889 524.424C248.964 524.285 249.017 524.136 249.049 523.976C248.884 523.976 248.732 523.947 248.593 523.888C248.455 523.824 248.335 523.739 248.233 523.632C248.137 523.525 248.06 523.4 248.001 523.256C247.948 523.112 247.921 522.955 247.921 522.784ZM255.115 519.384C254.715 519.384 254.323 519.315 253.939 519.176C253.555 519.037 253.211 518.829 252.907 518.552C252.608 518.269 252.368 517.923 252.187 517.512C252.006 517.096 251.915 516.611 251.915 516.056C251.915 515.539 252.011 515.053 252.203 514.6C252.395 514.147 252.664 513.749 253.011 513.408C253.358 513.067 253.774 512.797 254.259 512.6C254.744 512.403 255.28 512.304 255.867 512.304C256.459 512.304 256.99 512.397 257.459 512.584C257.934 512.771 258.336 513.032 258.667 513.368C259.003 513.704 259.259 514.107 259.435 514.576C259.616 515.045 259.707 515.56 259.707 516.12C259.707 516.477 259.675 516.816 259.611 517.136C259.552 517.456 259.464 517.765 259.347 518.064C259.235 518.357 259.099 518.645 258.939 518.928C258.779 519.205 258.6 519.485 258.403 519.768L255.755 523.544C255.664 523.672 255.528 523.781 255.347 523.872C255.171 523.957 254.968 524 254.739 524H252.923L256.515 519.512C256.606 519.4 256.691 519.291 256.771 519.184C256.851 519.077 256.928 518.971 257.003 518.864C256.736 519.035 256.443 519.165 256.123 519.256C255.803 519.341 255.467 519.384 255.115 519.384ZM257.811 515.92C257.811 515.605 257.763 515.325 257.667 515.08C257.571 514.829 257.435 514.619 257.259 514.448C257.083 514.277 256.872 514.147 256.627 514.056C256.387 513.965 256.123 513.92 255.835 513.92C255.536 513.92 255.267 513.971 255.027 514.072C254.787 514.168 254.582 514.304 254.411 514.48C254.246 514.656 254.118 514.867 254.027 515.112C253.936 515.352 253.891 515.616 253.891 515.904C253.891 516.549 254.056 517.043 254.387 517.384C254.723 517.72 255.198 517.888 255.811 517.888C256.131 517.888 256.414 517.837 256.659 517.736C256.91 517.635 257.12 517.496 257.291 517.32C257.462 517.144 257.59 516.936 257.675 516.696C257.766 516.456 257.811 516.197 257.811 515.92ZM262.308 522.52H264.652V515.776C264.652 515.515 264.66 515.24 264.676 514.952L263.012 516.344C262.943 516.403 262.871 516.443 262.796 516.464C262.727 516.485 262.658 516.496 262.588 516.496C262.482 516.496 262.383 516.475 262.292 516.432C262.207 516.384 262.143 516.331 262.1 516.272L261.476 515.416L265.004 512.416H266.628V522.52H268.708V524H262.308V522.52ZM278.318 518.216C278.318 519.224 278.208 520.101 277.99 520.848C277.776 521.589 277.478 522.203 277.094 522.688C276.715 523.173 276.264 523.536 275.742 523.776C275.224 524.011 274.664 524.128 274.062 524.128C273.459 524.128 272.899 524.011 272.382 523.776C271.87 523.536 271.424 523.173 271.046 522.688C270.667 522.203 270.371 521.589 270.158 520.848C269.944 520.101 269.838 519.224 269.838 518.216C269.838 517.203 269.944 516.325 270.158 515.584C270.371 514.843 270.667 514.229 271.046 513.744C271.424 513.259 271.87 512.899 272.382 512.664C272.899 512.424 273.459 512.304 274.062 512.304C274.664 512.304 275.224 512.424 275.742 512.664C276.264 512.899 276.715 513.259 277.094 513.744C277.478 514.229 277.776 514.843 277.99 515.584C278.208 516.325 278.318 517.203 278.318 518.216ZM276.278 518.216C276.278 517.379 276.216 516.685 276.094 516.136C275.971 515.587 275.806 515.149 275.598 514.824C275.395 514.499 275.16 514.272 274.894 514.144C274.627 514.011 274.35 513.944 274.062 513.944C273.779 513.944 273.504 514.011 273.238 514.144C272.976 514.272 272.744 514.499 272.542 514.824C272.339 515.149 272.176 515.587 272.054 516.136C271.936 516.685 271.878 517.379 271.878 518.216C271.878 519.053 271.936 519.747 272.054 520.296C272.176 520.845 272.339 521.283 272.542 521.608C272.744 521.933 272.976 522.163 273.238 522.296C273.504 522.424 273.779 522.488 274.062 522.488C274.35 522.488 274.627 522.424 274.894 522.296C275.16 522.163 275.395 521.933 275.598 521.608C275.806 521.283 275.971 520.845 276.094 520.296C276.216 519.747 276.278 519.053 276.278 518.216ZM279.359 522.784C279.359 522.635 279.385 522.496 279.439 522.368C279.497 522.235 279.577 522.12 279.679 522.024C279.78 521.923 279.903 521.845 280.047 521.792C280.191 521.733 280.348 521.704 280.519 521.704C280.721 521.704 280.897 521.741 281.047 521.816C281.196 521.885 281.321 521.984 281.423 522.112C281.524 522.235 281.599 522.379 281.647 522.544C281.695 522.704 281.719 522.875 281.719 523.056C281.719 523.312 281.679 523.581 281.599 523.864C281.524 524.147 281.412 524.429 281.263 524.712C281.113 524.995 280.929 525.269 280.711 525.536C280.492 525.803 280.241 526.048 279.959 526.272L279.615 525.96C279.519 525.88 279.471 525.781 279.471 525.664C279.471 525.621 279.484 525.573 279.511 525.52C279.543 525.467 279.58 525.419 279.623 525.376C279.681 525.312 279.753 525.232 279.839 525.136C279.924 525.045 280.009 524.939 280.095 524.816C280.18 524.699 280.257 524.568 280.327 524.424C280.401 524.285 280.455 524.136 280.487 523.976C280.321 523.976 280.169 523.947 280.031 523.888C279.892 523.824 279.772 523.739 279.671 523.632C279.575 523.525 279.497 523.4 279.439 523.256C279.385 523.112 279.359 522.955 279.359 522.784ZM291.193 518.216C291.193 519.224 291.083 520.101 290.865 520.848C290.651 521.589 290.353 522.203 289.969 522.688C289.59 523.173 289.139 523.536 288.617 523.776C288.099 524.011 287.539 524.128 286.937 524.128C286.334 524.128 285.774 524.011 285.257 523.776C284.745 523.536 284.299 523.173 283.921 522.688C283.542 522.203 283.246 521.589 283.033 520.848C282.819 520.101 282.713 519.224 282.713 518.216C282.713 517.203 282.819 516.325 283.033 515.584C283.246 514.843 283.542 514.229 283.921 513.744C284.299 513.259 284.745 512.899 285.257 512.664C285.774 512.424 286.334 512.304 286.937 512.304C287.539 512.304 288.099 512.424 288.617 512.664C289.139 512.899 289.59 513.259 289.969 513.744C290.353 514.229 290.651 514.843 290.865 515.584C291.083 516.325 291.193 517.203 291.193 518.216ZM289.153 518.216C289.153 517.379 289.091 516.685 288.969 516.136C288.846 515.587 288.681 515.149 288.473 514.824C288.27 514.499 288.035 514.272 287.769 514.144C287.502 514.011 287.225 513.944 286.937 513.944C286.654 513.944 286.379 514.011 286.113 514.144C285.851 514.272 285.619 514.499 285.417 514.824C285.214 515.149 285.051 515.587 284.929 516.136C284.811 516.685 284.753 517.379 284.753 518.216C284.753 519.053 284.811 519.747 284.929 520.296C285.051 520.845 285.214 521.283 285.417 521.608C285.619 521.933 285.851 522.163 286.113 522.296C286.379 522.424 286.654 522.488 286.937 522.488C287.225 522.488 287.502 522.424 287.769 522.296C288.035 522.163 288.27 521.933 288.473 521.608C288.681 521.283 288.846 520.845 288.969 520.296C289.091 519.747 289.153 519.053 289.153 518.216ZM300.474 518.216C300.474 519.224 300.364 520.101 300.146 520.848C299.932 521.589 299.634 522.203 299.25 522.688C298.871 523.173 298.42 523.536 297.898 523.776C297.38 524.011 296.82 524.128 296.218 524.128C295.615 524.128 295.055 524.011 294.538 523.776C294.026 523.536 293.58 523.173 293.202 522.688C292.823 522.203 292.527 521.589 292.314 520.848C292.1 520.101 291.994 519.224 291.994 518.216C291.994 517.203 292.1 516.325 292.314 515.584C292.527 514.843 292.823 514.229 293.202 513.744C293.58 513.259 294.026 512.899 294.538 512.664C295.055 512.424 295.615 512.304 296.218 512.304C296.82 512.304 297.38 512.424 297.898 512.664C298.42 512.899 298.871 513.259 299.25 513.744C299.634 514.229 299.932 514.843 300.146 515.584C300.364 516.325 300.474 517.203 300.474 518.216ZM298.434 518.216C298.434 517.379 298.372 516.685 298.25 516.136C298.127 515.587 297.962 515.149 297.754 514.824C297.551 514.499 297.316 514.272 297.05 514.144C296.783 514.011 296.506 513.944 296.218 513.944C295.935 513.944 295.66 514.011 295.394 514.144C295.132 514.272 294.9 514.499 294.698 514.824C294.495 515.149 294.332 515.587 294.21 516.136C294.092 516.685 294.034 517.379 294.034 518.216C294.034 519.053 294.092 519.747 294.21 520.296C294.332 520.845 294.495 521.283 294.698 521.608C294.9 521.933 295.132 522.163 295.394 522.296C295.66 522.424 295.935 522.488 296.218 522.488C296.506 522.488 296.783 522.424 297.05 522.296C297.316 522.163 297.551 521.933 297.754 521.608C297.962 521.283 298.127 520.845 298.25 520.296C298.372 519.747 298.434 519.053 298.434 518.216ZM309.755 518.216C309.755 519.224 309.646 520.101 309.427 520.848C309.214 521.589 308.915 522.203 308.531 522.688C308.152 523.173 307.702 523.536 307.179 523.776C306.662 524.011 306.102 524.128 305.499 524.128C304.896 524.128 304.336 524.011 303.819 523.776C303.307 523.536 302.862 523.173 302.483 522.688C302.104 522.203 301.808 521.589 301.595 520.848C301.382 520.101 301.275 519.224 301.275 518.216C301.275 517.203 301.382 516.325 301.595 515.584C301.808 514.843 302.104 514.229 302.483 513.744C302.862 513.259 303.307 512.899 303.819 512.664C304.336 512.424 304.896 512.304 305.499 512.304C306.102 512.304 306.662 512.424 307.179 512.664C307.702 512.899 308.152 513.259 308.531 513.744C308.915 514.229 309.214 514.843 309.427 515.584C309.646 516.325 309.755 517.203 309.755 518.216ZM307.715 518.216C307.715 517.379 307.654 516.685 307.531 516.136C307.408 515.587 307.243 515.149 307.035 514.824C306.832 514.499 306.598 514.272 306.331 514.144C306.064 514.011 305.787 513.944 305.499 513.944C305.216 513.944 304.942 514.011 304.675 514.144C304.414 514.272 304.182 514.499 303.979 514.824C303.776 515.149 303.614 515.587 303.491 516.136C303.374 516.685 303.315 517.379 303.315 518.216C303.315 519.053 303.374 519.747 303.491 520.296C303.614 520.845 303.776 521.283 303.979 521.608C304.182 521.933 304.414 522.163 304.675 522.296C304.942 522.424 305.216 522.488 305.499 522.488C305.787 522.488 306.064 522.424 306.331 522.296C306.598 522.163 306.832 521.933 307.035 521.608C307.243 521.283 307.408 520.845 307.531 520.296C307.654 519.747 307.715 519.053 307.715 518.216Z" fill="black"/>
<path d="M314.392 515.78C314.392 515.192 314.656 514.748 315.064 514.448C315.592 514.064 316.372 513.884 317.224 513.884C318.064 513.884 318.844 514.064 319.372 514.448C319.792 514.748 320.044 515.192 320.044 515.78C320.044 516.368 319.792 516.812 319.372 517.1C318.844 517.496 318.064 517.676 317.224 517.676C316.372 517.676 315.592 517.496 315.064 517.1C314.656 516.812 314.392 516.368 314.392 515.78ZM315.1 515.78C315.1 516.152 315.268 516.464 315.556 516.656C315.94 516.944 316.54 517.076 317.224 517.076C317.884 517.076 318.496 516.944 318.88 516.656C319.168 516.464 319.336 516.152 319.336 515.78C319.336 515.408 319.168 515.096 318.88 514.892C318.496 514.616 317.884 514.472 317.224 514.472C316.54 514.472 315.94 514.616 315.556 514.892C315.268 515.096 315.1 515.408 315.1 515.78ZM322.876 522.092H322.144V520.976H319.612V520.388H322.144V513.944H322.876V522.092ZM318.352 519.284H317.08V521.468H316.348V519.284H313.924V518.672H318.268C319.324 518.672 320.392 518.6 321.124 518.336V518.924C320.452 519.236 319.42 519.284 318.352 519.284ZM323.092 524.684H315.016V521.852H315.748V524.06H323.092V524.684Z" fill="black"/>
<path d="M64.36 516.776C64.7973 516.776 65.2213 516.848 65.632 516.992C66.048 517.136 66.4133 517.355 66.728 517.648C67.0427 517.936 67.296 518.296 67.488 518.728C67.68 519.16 67.776 519.664 67.776 520.24C67.776 520.779 67.6773 521.285 67.48 521.76C67.2827 522.229 67.0053 522.64 66.648 522.992C66.2907 523.344 65.8587 523.621 65.352 523.824C64.8507 524.027 64.296 524.128 63.688 524.128C63.0693 524.128 62.5147 524.029 62.024 523.832C61.5333 523.635 61.1147 523.36 60.768 523.008C60.4213 522.651 60.1547 522.224 59.968 521.728C59.7867 521.227 59.696 520.672 59.696 520.064C59.696 519.52 59.8053 518.963 60.024 518.392C60.248 517.816 60.592 517.219 61.056 516.6L63.816 512.896C63.912 512.768 64.0507 512.659 64.232 512.568C64.4187 512.477 64.632 512.432 64.872 512.432H66.632L63.2 516.632C63.1253 516.723 63.0533 516.808 62.984 516.888C62.92 516.968 62.856 517.051 62.792 517.136C63.016 517.024 63.256 516.936 63.512 516.872C63.7733 516.808 64.056 516.776 64.36 516.776ZM61.592 520.368C61.592 520.688 61.6347 520.981 61.72 521.248C61.8107 521.509 61.9413 521.733 62.112 521.92C62.288 522.107 62.504 522.253 62.76 522.36C63.016 522.461 63.312 522.512 63.648 522.512C63.9627 522.512 64.2507 522.459 64.512 522.352C64.7787 522.245 65.0053 522.096 65.192 521.904C65.384 521.712 65.5333 521.488 65.64 521.232C65.7467 520.971 65.8 520.688 65.8 520.384C65.8 520.053 65.7493 519.757 65.648 519.496C65.5467 519.229 65.4027 519.005 65.216 518.824C65.0293 518.637 64.8053 518.496 64.544 518.4C64.2827 518.304 63.9947 518.256 63.68 518.256C63.3653 518.256 63.08 518.309 62.824 518.416C62.568 518.523 62.3467 518.672 62.16 518.864C61.9787 519.051 61.8373 519.275 61.736 519.536C61.64 519.792 61.592 520.069 61.592 520.368ZM76.1933 513.272C76.1933 513.555 76.1026 513.784 75.9213 513.96C75.7453 514.136 75.4493 514.224 75.0333 514.224H71.8493L71.4333 516.64C71.9559 516.533 72.4333 516.48 72.8653 516.48C73.4733 516.48 74.0066 516.571 74.4653 516.752C74.9293 516.933 75.3186 517.184 75.6333 517.504C75.9479 517.824 76.1853 518.2 76.3453 518.632C76.5053 519.059 76.5853 519.52 76.5853 520.016C76.5853 520.629 76.4759 521.189 76.2573 521.696C76.0439 522.203 75.7453 522.637 75.3613 523C74.9773 523.357 74.5213 523.635 73.9933 523.832C73.4706 524.029 72.8999 524.128 72.2812 524.128C71.9186 524.128 71.5746 524.091 71.2493 524.016C70.9239 523.941 70.6173 523.843 70.3293 523.72C70.0466 523.592 69.7826 523.448 69.5373 523.288C69.2973 523.123 69.0813 522.949 68.8893 522.768L69.4973 521.928C69.6253 521.747 69.7959 521.656 70.0093 521.656C70.1426 521.656 70.2759 521.699 70.4093 521.784C70.5479 521.869 70.7079 521.963 70.8893 522.064C71.0706 522.165 71.2813 522.259 71.5213 522.344C71.7613 522.429 72.0519 522.472 72.3932 522.472C72.7559 522.472 73.0759 522.413 73.3533 522.296C73.6306 522.179 73.8599 522.016 74.0413 521.808C74.2279 521.595 74.3666 521.344 74.4573 521.056C74.5533 520.763 74.6013 520.445 74.6013 520.104C74.6013 519.475 74.4173 518.984 74.0493 518.632C73.6866 518.275 73.1506 518.096 72.4413 518.096C71.8813 518.096 71.3186 518.197 70.7533 518.4L69.5213 518.048L70.4813 512.432H76.1933V513.272ZM81.1505 523.952L84.9785 514.628H84.3185L80.4905 523.952H81.1505ZM82.0145 516.98C82.0145 515.264 81.3305 514.472 80.1785 514.472C79.0145 514.472 78.3425 515.264 78.3425 516.98C78.3425 518.708 79.0145 519.5 80.1785 519.5C81.3305 519.5 82.0145 518.708 82.0145 516.98ZM81.3665 516.98C81.3665 518.456 80.9105 518.948 80.1785 518.948C79.4345 518.948 78.9785 518.456 78.9785 516.98C78.9785 515.528 79.4345 515.024 80.1785 515.024C80.9105 515.024 81.3665 515.528 81.3665 516.98ZM83.4665 521.6C83.4665 523.316 84.1385 524.108 85.3025 524.108C86.4545 524.108 87.1385 523.316 87.1385 521.6C87.1385 519.884 86.4545 519.08 85.3025 519.08C84.1385 519.08 83.4665 519.884 83.4665 521.6ZM84.1025 521.6C84.1025 520.136 84.5585 519.632 85.3025 519.632C86.0345 519.632 86.4905 520.136 86.4905 521.6C86.4905 523.064 86.0345 523.556 85.3025 523.556C84.5585 523.556 84.1025 523.064 84.1025 521.6Z" fill="#00B1B3"/>
<path d="M100.23 241.327H106.379V242.029H103.701V246.02C103.701 248.867 105.131 250.44 106.496 251.116V251.831C104.975 251.207 103.753 249.829 103.311 248.321C102.869 249.842 101.582 251.246 100.1 251.831V251.116C101.439 250.479 102.908 248.867 102.908 246.02V242.029H100.23V241.327ZM109.317 241.106V246.059H111.254V246.735H109.317V252.624H108.524V241.106H109.317ZM121.355 243.732V241.964H117.819V241.275H122.148V243.706C122.148 244.837 122.044 246.046 121.888 246.904H121.082C121.251 246.033 121.355 244.824 121.355 243.732ZM116.805 241.275V243.693C116.805 244.772 116.649 246.059 116.415 246.904H115.622C115.869 246.033 116.012 244.746 116.012 243.719V241.964H113.035V241.275H116.805ZM112.528 248.945V248.256H122.785V248.945H118.04V252.832H117.247V248.945H112.528ZM125.189 241.327H131.338V242.029H128.66V246.02C128.66 248.867 130.09 250.44 131.455 251.116V251.831C129.934 251.207 128.712 249.829 128.27 248.321C127.828 249.842 126.541 251.246 125.059 251.831V251.116C126.398 250.479 127.867 248.867 127.867 246.02V242.029H125.189V241.327ZM134.276 241.106V246.059H136.213V246.735H134.276V252.624H133.483V241.106H134.276ZM146.314 243.732V241.964H142.778V241.275H147.107V243.706C147.107 244.837 147.003 246.046 146.847 246.904H146.041C146.21 246.033 146.314 244.824 146.314 243.732ZM141.764 241.275V243.693C141.764 244.772 141.608 246.059 141.374 246.904H140.581C140.828 246.033 140.971 244.746 140.971 243.719V241.964H137.994V241.275H141.764ZM137.487 248.945V248.256H147.744V248.945H142.999V252.832H142.206V248.945H137.487ZM163.344 241.951H155.154V245.916H163.474V246.618H154.361V241.262H163.344V241.951ZM153.724 249.543V248.841H163.981V249.543H159.236V252.832H158.443V249.543H153.724ZM175.72 241.938H167.738V244.447H175.785V245.11H166.945V241.262H175.72V241.938ZM166.139 247.476V246.8H176.526V247.476H171.729V249.53H175.72V252.832H174.927V250.232H166.854V249.53H170.936V247.476H166.139ZM183.675 243.29H178.8V242.588H180.867V240.729H181.66V242.588H183.675V243.29ZM179.827 248.308C179.827 249.738 180.061 250.622 180.49 251.038C180.698 251.259 180.971 251.35 181.27 251.35C181.569 251.35 181.829 251.259 182.05 251.038C182.466 250.622 182.713 249.738 182.713 248.308C182.713 246.878 182.466 246.007 182.05 245.578C181.829 245.357 181.569 245.266 181.27 245.266C180.971 245.266 180.698 245.357 180.49 245.578C180.061 246.007 179.827 246.878 179.827 248.308ZM179.06 248.308C179.06 246.644 179.398 245.552 180.048 245.006C180.386 244.72 180.789 244.577 181.27 244.577C181.751 244.577 182.167 244.72 182.492 245.006C183.142 245.552 183.48 246.644 183.48 248.308C183.48 249.985 183.142 251.064 182.492 251.623C182.167 251.896 181.751 252.026 181.27 252.026C180.789 252.026 180.386 251.896 180.048 251.623C179.398 251.064 179.06 249.985 179.06 248.308ZM188.407 252.624H187.64V246.683H185.807V252.494H185.04V241.171H185.807V245.968H187.64V241.106H188.407V252.624ZM191.475 241.327H197.624V242.029H194.92V246.02C194.92 248.867 196.35 250.44 197.715 251.116V251.831C196.207 251.207 194.972 249.829 194.53 248.321C194.101 249.842 192.801 251.246 191.332 251.831V251.116C192.671 250.479 194.127 248.867 194.127 246.02V242.029H191.475V241.327ZM199.912 252.611V241.106H200.705V252.611H199.912ZM205.176 241.184V244.291H213.236V244.967H204.383V241.184H205.176ZM203.577 247.801V247.099H213.964V247.801H203.577ZM205.176 249.244V252H213.392V252.689H204.383V249.244H205.176ZM224.858 243.745V242.042H220.321V241.327H225.651V243.667C225.651 248.035 223.909 250.921 220.243 251.883V251.168C223.298 250.245 224.858 247.671 224.858 243.745ZM228.628 252.611V241.106H229.421V252.611H228.628ZM233.789 243.251H241.186V241.262H241.979V247.008H232.996V241.262H233.789V243.251ZM241.186 246.306V243.927H233.789V246.306H241.186ZM232.359 249.66V248.945H242.616V249.66H237.871V252.832H237.078V249.66H232.359ZM252.391 246.995H254.679V247.684H250.389V251.428H255.095V252.091H244.838V251.428H249.596V247.684H245.241V246.995H247.1V242.029H245.475V241.327H254.458V242.029H252.833V244.096C252.833 245.11 252.703 246.306 252.391 246.995ZM247.893 242.029V246.995H251.611C251.936 246.267 252.04 245.11 252.04 244.161V242.029H247.893ZM257.487 244.304C257.487 243.199 257.838 242.328 258.436 241.756C258.93 241.288 259.632 241.041 260.464 241.041C261.296 241.041 261.985 241.288 262.479 241.756C263.09 242.328 263.428 243.199 263.428 244.304C263.428 245.422 263.09 246.293 262.479 246.865C261.985 247.333 261.296 247.593 260.464 247.593C259.632 247.593 258.93 247.333 258.436 246.865C257.838 246.293 257.487 245.422 257.487 244.304ZM258.267 244.304C258.267 245.175 258.501 245.877 258.956 246.319C259.32 246.696 259.84 246.904 260.464 246.904C261.088 246.904 261.595 246.696 261.972 246.319C262.414 245.877 262.648 245.175 262.648 244.304C262.648 243.446 262.414 242.744 261.972 242.302C261.595 241.925 261.088 241.73 260.464 241.73C259.84 241.73 259.32 241.925 258.956 242.302C258.501 242.744 258.267 243.446 258.267 244.304ZM266.912 249.114H266.119V241.106H266.912V249.114ZM267.146 252.689H258.397V249.036H259.19V252H267.146V252.689ZM279.417 242.029H271.227V244.642H279.261V245.331H271.227V247.931H279.56V248.633H270.434V241.327H279.417V242.029ZM269.797 252.091V251.428H280.054V252.091H269.797ZM283.46 249.01L283.538 243.615V241.847H282.706V243.615L282.771 249.01H283.46ZM283.551 250.635H282.68V251.948H283.551V250.635Z" fill="#333333"/>
<path d="M204.802 270.28V268.64H198.482V266.26H207.522V269.96C207.522 276.94 205.002 281.64 198.382 283.3V280.7C202.942 279.38 204.802 275.7 204.802 270.28ZM213.262 284.3H210.522V265.94H213.262V284.3ZM229.361 268.72V266.16H232.101V275.74H217.621V266.16H220.361V268.72H229.361ZM229.361 271.08H220.361V273.38H229.361V271.08ZM216.701 277.54H233.021V279.94H226.201V284.6H223.461V279.94H216.701V277.54ZM241.399 269.92C241.399 268.74 241.819 267.76 242.619 267.06C243.459 266.28 244.779 265.84 246.399 265.84C248.019 265.84 249.339 266.28 250.179 267.06C250.979 267.76 251.399 268.74 251.399 269.92C251.399 271.1 250.979 272.08 250.179 272.78C249.599 273.32 248.779 273.7 247.799 273.88V275.18H250.119C251.639 275.18 252.519 274.98 253.139 274.54V265.94H255.879V271.22H258.479V273.58H255.879V279.36H253.139V276.78C252.499 277.3 251.419 277.56 249.379 277.56H240.859V275.18H245.059V273.88C244.039 273.72 243.219 273.34 242.619 272.78C241.819 272.08 241.399 271.1 241.399 269.92ZM244.019 269.92C244.019 270.44 244.199 270.84 244.519 271.14C244.919 271.5 245.539 271.68 246.399 271.68C247.259 271.68 247.879 271.5 248.279 271.14C248.599 270.84 248.779 270.44 248.779 269.92C248.779 269.4 248.599 269 248.279 268.7C247.879 268.34 247.259 268.16 246.399 268.16C245.539 268.16 244.919 268.34 244.519 268.7C244.199 269 244.019 269.4 244.019 269.92ZM242.219 284.5V278.78H244.959V282.12H256.199V284.5H242.219ZM263.439 275.74H275.379V278.12H272.639V281.12H276.099V283.5H259.779V281.12H263.339V278.12H260.699V270.96H272.439V268.64H260.699V266.26H275.179V273.34H263.439V275.74ZM269.939 278.12H266.059V281.12H269.939V278.12Z" fill="#333333"/>
<path d="M117.885 268.249C117.885 268.638 117.76 268.953 117.511 269.195C117.269 269.437 116.862 269.558 116.29 269.558H111.912L111.34 272.88C112.059 272.733 112.715 272.66 113.309 272.66C114.145 272.66 114.878 272.785 115.509 273.034C116.147 273.283 116.682 273.628 117.115 274.068C117.548 274.508 117.874 275.025 118.094 275.619C118.314 276.206 118.424 276.84 118.424 277.522C118.424 278.365 118.274 279.135 117.973 279.832C117.68 280.529 117.269 281.126 116.741 281.625C116.213 282.116 115.586 282.498 114.86 282.769C114.141 283.04 113.357 283.176 112.506 283.176C112.007 283.176 111.534 283.125 111.087 283.022C110.64 282.919 110.218 282.784 109.822 282.615C109.433 282.439 109.07 282.241 108.733 282.021C108.403 281.794 108.106 281.555 107.842 281.306L108.678 280.151C108.854 279.902 109.089 279.777 109.382 279.777C109.565 279.777 109.749 279.836 109.932 279.953C110.123 280.07 110.343 280.199 110.592 280.338C110.841 280.477 111.131 280.606 111.461 280.723C111.791 280.84 112.191 280.899 112.66 280.899C113.159 280.899 113.599 280.818 113.98 280.657C114.361 280.496 114.677 280.272 114.926 279.986C115.183 279.693 115.373 279.348 115.498 278.952C115.63 278.549 115.696 278.112 115.696 277.643C115.696 276.778 115.443 276.103 114.937 275.619C114.438 275.128 113.701 274.882 112.726 274.882C111.956 274.882 111.182 275.021 110.405 275.3L108.711 274.816L110.031 267.094H117.885V268.249ZM120.648 281.328C120.648 281.123 120.684 280.932 120.758 280.756C120.838 280.573 120.948 280.415 121.088 280.283C121.227 280.144 121.396 280.037 121.594 279.964C121.792 279.883 122.008 279.843 122.243 279.843C122.521 279.843 122.763 279.894 122.969 279.997C123.174 280.092 123.346 280.228 123.486 280.404C123.625 280.573 123.728 280.771 123.794 280.998C123.86 281.218 123.893 281.453 123.893 281.702C123.893 282.054 123.838 282.424 123.728 282.813C123.625 283.202 123.471 283.59 123.266 283.979C123.06 284.368 122.807 284.745 122.507 285.112C122.206 285.479 121.861 285.816 121.473 286.124L121 285.695C120.868 285.585 120.802 285.449 120.802 285.288C120.802 285.229 120.82 285.163 120.857 285.09C120.901 285.017 120.952 284.951 121.011 284.892C121.091 284.804 121.19 284.694 121.308 284.562C121.425 284.437 121.542 284.291 121.66 284.122C121.777 283.961 121.883 283.781 121.979 283.583C122.081 283.392 122.155 283.187 122.199 282.967C121.971 282.967 121.762 282.927 121.572 282.846C121.381 282.758 121.216 282.641 121.077 282.494C120.945 282.347 120.838 282.175 120.758 281.977C120.684 281.779 120.648 281.563 120.648 281.328ZM131.584 266.918C132.317 266.918 132.977 267.024 133.564 267.237C134.158 267.442 134.664 267.732 135.082 268.106C135.5 268.473 135.819 268.905 136.039 269.404C136.266 269.903 136.38 270.442 136.38 271.021C136.38 271.527 136.321 271.974 136.204 272.363C136.094 272.744 135.929 273.078 135.709 273.364C135.496 273.65 135.232 273.892 134.917 274.09C134.609 274.288 134.257 274.453 133.861 274.585C134.814 274.886 135.526 275.344 135.995 275.96C136.464 276.576 136.699 277.35 136.699 278.281C136.699 279.073 136.552 279.773 136.259 280.382C135.966 280.991 135.57 281.504 135.071 281.922C134.572 282.333 133.993 282.644 133.333 282.857C132.68 283.07 131.987 283.176 131.254 283.176C130.455 283.176 129.758 283.084 129.164 282.901C128.57 282.718 128.053 282.446 127.613 282.087C127.173 281.728 126.799 281.288 126.491 280.767C126.183 280.246 125.919 279.645 125.699 278.963L126.898 278.468C127.103 278.38 127.312 278.336 127.525 278.336C127.716 278.336 127.884 278.376 128.031 278.457C128.185 278.538 128.302 278.655 128.383 278.809C128.515 279.066 128.658 279.319 128.812 279.568C128.973 279.817 129.164 280.041 129.384 280.239C129.604 280.43 129.861 280.587 130.154 280.712C130.455 280.829 130.81 280.888 131.221 280.888C131.683 280.888 132.086 280.815 132.431 280.668C132.776 280.514 133.062 280.316 133.289 280.074C133.524 279.832 133.696 279.564 133.806 279.271C133.923 278.97 133.982 278.67 133.982 278.369C133.982 277.988 133.942 277.643 133.861 277.335C133.78 277.02 133.612 276.752 133.355 276.532C133.098 276.312 132.728 276.14 132.244 276.015C131.767 275.89 131.126 275.828 130.319 275.828V273.892C130.986 273.885 131.54 273.822 131.98 273.705C132.42 273.588 132.768 273.426 133.025 273.221C133.289 273.008 133.472 272.755 133.575 272.462C133.678 272.169 133.729 271.846 133.729 271.494C133.729 270.739 133.524 270.17 133.113 269.789C132.702 269.4 132.141 269.206 131.43 269.206C130.785 269.206 130.249 269.378 129.824 269.723C129.399 270.06 129.102 270.497 128.933 271.032C128.845 271.311 128.724 271.512 128.57 271.637C128.416 271.754 128.214 271.813 127.965 271.813C127.848 271.813 127.723 271.802 127.591 271.78L126.161 271.527C126.271 270.764 126.484 270.097 126.799 269.525C127.114 268.946 127.507 268.465 127.976 268.084C128.453 267.695 128.995 267.406 129.604 267.215C130.22 267.017 130.88 266.918 131.584 266.918ZM140.43 280.965H143.653V271.692C143.653 271.333 143.664 270.955 143.686 270.559L141.398 272.473C141.302 272.554 141.203 272.609 141.101 272.638C141.005 272.667 140.91 272.682 140.815 272.682C140.668 272.682 140.532 272.653 140.408 272.594C140.29 272.528 140.202 272.455 140.144 272.374L139.286 271.197L144.137 267.072H146.37V280.965H149.23V283H140.43V280.965ZM162.442 275.047C162.442 276.433 162.292 277.639 161.991 278.666C161.698 279.685 161.287 280.529 160.759 281.196C160.239 281.863 159.619 282.362 158.9 282.692C158.189 283.015 157.419 283.176 156.59 283.176C155.762 283.176 154.992 283.015 154.28 282.692C153.576 282.362 152.964 281.863 152.443 281.196C151.923 280.529 151.516 279.685 151.222 278.666C150.929 277.639 150.782 276.433 150.782 275.047C150.782 273.654 150.929 272.447 151.222 271.428C151.516 270.409 151.923 269.565 152.443 268.898C152.964 268.231 153.576 267.736 154.28 267.413C154.992 267.083 155.762 266.918 156.59 266.918C157.419 266.918 158.189 267.083 158.9 267.413C159.619 267.736 160.239 268.231 160.759 268.898C161.287 269.565 161.698 270.409 161.991 271.428C162.292 272.447 162.442 273.654 162.442 275.047ZM159.637 275.047C159.637 273.896 159.553 272.942 159.384 272.187C159.216 271.432 158.988 270.83 158.702 270.383C158.424 269.936 158.101 269.624 157.734 269.448C157.368 269.265 156.986 269.173 156.59 269.173C156.202 269.173 155.824 269.265 155.457 269.448C155.098 269.624 154.779 269.936 154.5 270.383C154.222 270.83 153.998 271.432 153.829 272.187C153.668 272.942 153.587 273.896 153.587 275.047C153.587 276.198 153.668 277.152 153.829 277.907C153.998 278.662 154.222 279.264 154.5 279.711C154.779 280.158 155.098 280.474 155.457 280.657C155.824 280.833 156.202 280.921 156.59 280.921C156.986 280.921 157.368 280.833 157.734 280.657C158.101 280.474 158.424 280.158 158.702 279.711C158.988 279.264 159.216 278.662 159.384 277.907C159.553 277.152 159.637 276.198 159.637 275.047Z" fill="#00B1B3"/>
<g clip-path="url(#clip1_214_754)">
<path opacity="0.3" d="M190.894 442.984C232.1 442.984 265.503 413.439 265.503 376.992C265.503 340.546 232.1 311 190.894 311C149.689 311 116.285 340.546 116.285 376.992C116.285 413.439 149.689 442.984 190.894 442.984Z" fill="url(#paint2_linear_214_754)"/>
<path d="M113.72 420.808C113.598 420.808 101.221 421.278 99.6106 413.581C98.0473 406.1 111.413 399.149 119.432 395.976C118.85 394.264 118.345 392.518 117.916 390.739C114.178 392.169 110.557 393.886 107.088 395.875C100.267 399.848 92.5117 406.342 94.2306 414.697C95.3201 419.9 99.191 423.544 105.437 425.251C107.972 425.922 110.583 426.263 113.206 426.266C113.653 426.266 113.923 426.266 113.964 426.266C114.323 426.249 114.675 426.162 115 426.009C115.325 425.857 115.617 425.643 115.858 425.378C116.1 425.114 116.287 424.805 116.408 424.469C116.53 424.133 116.583 423.776 116.566 423.419C116.549 423.063 116.461 422.713 116.307 422.39C116.154 422.067 115.938 421.777 115.672 421.537C115.406 421.297 115.095 421.112 114.756 420.991C114.418 420.871 114.059 420.818 113.7 420.835L113.72 420.808Z" fill="#B4FFC6"/>
<path d="M276.926 390.827C273.09 388.634 269.074 386.767 264.921 385.247C264.664 387.076 264.321 388.882 263.893 390.665C271.81 393.697 286.001 400.836 284.397 408.533C282.794 416.23 270.409 415.759 270.288 415.759C269.563 415.725 268.853 415.977 268.316 416.462C267.778 416.947 267.457 417.624 267.422 418.344C267.387 419.064 267.641 419.769 268.129 420.303C268.617 420.837 269.299 421.156 270.024 421.191C270.064 421.191 270.335 421.191 270.782 421.191C273.415 421.195 276.038 420.858 278.584 420.189C284.83 418.482 288.701 414.811 289.791 409.635C291.503 401.293 283.741 394.799 276.926 390.827Z" fill="#B4FFC6"/>
<path d="M242.947 431.214C240.517 430.635 238.057 430.186 235.578 429.869C232.936 431.603 230.191 433.175 227.356 434.575H227.457C234.414 434.723 254.438 437.163 255.203 446.056C255.275 446.696 255.209 447.343 255.009 447.955C254.81 448.567 254.481 449.13 254.046 449.606C250.98 453.148 243.049 454.412 240.254 454.6H240.125C239.76 454.641 231.05 455.622 225.704 457.215C224.19 457.666 222.851 458.568 221.869 459.799C220.888 461.03 220.311 462.531 220.216 464.099L219.905 469.335C219.88 469.692 219.927 470.051 220.044 470.389C220.16 470.728 220.344 471.04 220.583 471.308C220.823 471.575 221.114 471.792 221.439 471.946C221.764 472.101 222.117 472.189 222.476 472.206H222.639C223.333 472.199 223.998 471.93 224.5 471.455C225.002 470.979 225.305 470.333 225.346 469.645L225.65 464.408C225.68 463.958 225.848 463.528 226.131 463.176C226.414 462.824 226.799 462.567 227.234 462.438C231.91 461.047 239.922 460.106 240.646 460.025C242.857 459.831 245.05 459.467 247.204 458.936C252.225 457.692 255.9 455.75 258.147 453.155C259.055 452.129 259.742 450.93 260.167 449.63C260.592 448.331 260.745 446.959 260.617 445.599C259.926 437.116 250.621 433.096 242.947 431.214Z" fill="#B4FFC6"/>
<path d="M182.251 480.561H177.291C181.351 465.867 181.148 451.656 180.262 442.312C178.362 442.07 176.485 441.767 174.631 441.404C175.639 450.923 176.079 466.767 171.017 482.45C170.879 482.858 170.841 483.293 170.906 483.718C170.972 484.144 171.139 484.547 171.395 484.895C171.65 485.243 171.986 485.525 172.373 485.717C172.761 485.909 173.19 486.006 173.623 486H182.251C182.977 486 183.673 485.713 184.187 485.203C184.7 484.693 184.988 484.002 184.988 483.28C184.988 482.559 184.7 481.868 184.187 481.358C183.673 480.848 182.977 480.561 182.251 480.561Z" fill="#B4FFC6"/>
<path d="M190.9 434.743C223.938 434.743 251.244 413.03 255.582 384.864C248.343 379.342 239.678 375.968 230.59 375.13C207.886 373.241 175.776 389.415 134.455 388.272C131.748 388.198 129.19 388.138 126.814 388.084C132.661 414.67 159.128 434.743 190.9 434.743Z" fill="url(#paint3_linear_214_754)"/>
<path d="M253.214 394.282C244.078 397.193 226.206 397.3 195.442 377.584C165.212 358.204 141.101 360.651 126.903 365.484C126.038 369.255 125.602 373.111 125.604 376.979C125.604 408.869 154.838 434.73 190.901 434.73C220.149 434.743 244.903 417.716 253.214 394.282Z" fill="url(#paint4_linear_214_754)"/>
<path d="M204.522 387.99C204.126 387.991 203.738 387.876 203.406 387.66L196.381 383.13C196.155 382.984 195.96 382.796 195.807 382.575C195.654 382.354 195.547 382.106 195.49 381.844C195.434 381.582 195.43 381.312 195.479 381.049C195.528 380.786 195.629 380.534 195.776 380.31C195.922 380.085 196.112 379.891 196.334 379.739C196.556 379.588 196.806 379.481 197.07 379.425C197.333 379.369 197.605 379.365 197.87 379.414C198.135 379.462 198.388 379.562 198.614 379.708L203.92 383.13L207.365 377.859C207.511 377.635 207.701 377.441 207.923 377.289C208.145 377.137 208.395 377.03 208.659 376.975C208.922 376.919 209.194 376.915 209.459 376.964C209.724 377.012 209.977 377.112 210.203 377.258C210.43 377.403 210.625 377.592 210.777 377.812C210.93 378.033 211.038 378.281 211.094 378.543C211.15 378.805 211.154 379.075 211.105 379.339C211.056 379.602 210.956 379.853 210.809 380.078L206.248 387.055C206.063 387.344 205.808 387.58 205.507 387.744C205.205 387.907 204.866 387.992 204.522 387.99Z" fill="#4C685F"/>
<path d="M182.381 379.789C184.358 379.789 185.961 378.197 185.961 376.233C185.961 374.269 184.358 372.677 182.381 372.677C180.404 372.677 178.801 374.269 178.801 376.233C178.801 378.197 180.404 379.789 182.381 379.789Z" fill="#4C685F"/>
<path d="M218.734 376.232C220.711 376.232 222.314 374.64 222.314 372.676C222.314 370.712 220.711 369.12 218.734 369.12C216.757 369.12 215.154 370.712 215.154 372.676C215.154 374.64 216.757 376.232 218.734 376.232Z" fill="#4C685F"/>
<path d="M217.164 372.898C217.695 372.898 218.125 372.471 218.125 371.944C218.125 371.417 217.695 370.989 217.164 370.989C216.633 370.989 216.203 371.417 216.203 371.944C216.203 372.471 216.633 372.898 217.164 372.898Z" fill="white"/>
<path d="M181.027 376.232C181.558 376.232 181.988 375.805 181.988 375.278C181.988 374.751 181.558 374.323 181.027 374.323C180.497 374.323 180.066 374.751 180.066 375.278C180.066 375.805 180.497 376.232 181.027 376.232Z" fill="white"/>
</g>
<path d="M320 197.41L318.59 196L313 201.59L307.41 196L306 197.41L311.59 203L306 208.59L307.41 210L313 204.41L318.59 210L320 208.59L314.41 203L320 197.41Z" fill="black"/>
<defs>
<linearGradient id="paint0_linear_214_754" x1="186.611" y1="288.267" x2="162.798" y2="267.492" gradientUnits="userSpaceOnUse">
<stop stop-color="#00CFA6"/>
<stop offset="1" stop-color="#00B1B3"/>
</linearGradient>
<linearGradient id="paint1_linear_214_754" x1="179.331" y1="280.871" x2="169.45" y2="272.876" gradientUnits="userSpaceOnUse">
<stop stop-color="#00CFA6"/>
<stop offset="1" stop-color="#00B1B3"/>
</linearGradient>
<linearGradient id="paint2_linear_214_754" x1="136.039" y1="341.573" x2="253.692" y2="418.561" gradientUnits="userSpaceOnUse">
<stop stop-color="#BFFFBA"/>
<stop offset="0.98" stop-color="#7FEFCD"/>
</linearGradient>
<linearGradient id="paint3_linear_214_754" x1="246.696" y1="406.348" x2="171.561" y2="403.378" gradientUnits="userSpaceOnUse">
<stop stop-color="#F3FFDF"/>
<stop offset="0.98" stop-color="#C8FFD3"/>
</linearGradient>
<linearGradient id="paint4_linear_214_754" x1="30481.5" y1="34528.3" x2="42205.4" y2="47913.1" gradientUnits="userSpaceOnUse">
<stop stop-color="#BFFFBA"/>
<stop offset="0.98" stop-color="#7FEFCD"/>
</linearGradient>
<clipPath id="clip0_214_754">
<rect width="18.9255" height="21" fill="white" transform="translate(165 265)"/>
</clipPath>
<clipPath id="clip1_214_754">
<rect width="196" height="175" fill="white" transform="translate(94 311)"/>
</clipPath>
</defs>
</svg>
