<svg width="60" height="54" viewBox="0 0 60 54" fill="none" xmlns="http://www.w3.org/2000/svg">
<path d="M30 53.0192C46.1378 53.0192 59.22 41.37 59.22 27C59.22 12.63 46.1378 0.980774 30 0.980774C13.8622 0.980774 0.779999 12.63 0.779999 27C0.779999 41.37 13.8622 53.0192 30 53.0192Z" fill="url(#paint0_linear_1160_16360)"/>
<path d="M27.4431 29.3792C27.3193 29.3795 27.1972 29.3511 27.0863 29.2962C26.9754 29.2414 26.8787 29.1616 26.8038 29.0631L25.3038 27.0923L23.3331 28.5923C23.1626 28.7096 22.9534 28.7568 22.749 28.724C22.5446 28.6913 22.3607 28.581 22.2354 28.4163C22.1101 28.2515 22.0531 28.0448 22.0762 27.8391C22.0992 27.6334 22.2006 27.4445 22.3592 27.3115L24.9692 25.3246C25.1389 25.1959 25.3527 25.1397 25.5637 25.1683C25.7748 25.1968 25.9659 25.3078 26.0954 25.4769L28.0823 28.0892C28.1731 28.2083 28.2288 28.3504 28.2431 28.4994C28.2574 28.6485 28.2297 28.7986 28.1633 28.9327C28.0968 29.0669 27.9941 29.1798 27.8669 29.2587C27.7396 29.3376 27.5928 29.3793 27.4431 29.3792V29.3792Z" fill="#4C685F"/>
<g style="mix-blend-mode:screen" opacity="0.5">
<path d="M17.1377 13.9897C18.3444 12.783 18.5957 11.0778 17.699 10.1811C16.8023 9.28441 15.0972 9.53572 13.8905 10.7424C12.6837 11.9492 12.4324 13.6543 13.3291 14.551C14.2258 15.4477 15.931 15.1964 17.1377 13.9897Z" fill="white"/>
</g>
<defs>
<linearGradient id="paint0_linear_1160_16360" x1="10.2231" y1="10.3454" x2="48.4869" y2="42.5677" gradientUnits="userSpaceOnUse">
<stop offset="0.05" stop-color="#FBF7A5"/>
<stop offset="0.98" stop-color="#FFC876"/>
</linearGradient>
</defs>
</svg>
