<svg width="60" height="54" viewBox="0 0 60 54" fill="none" xmlns="http://www.w3.org/2000/svg">
<path d="M30 53.1739C46.2346 53.1739 59.3954 41.4554 59.3954 27C59.3954 12.5446 46.2346 0.826172 30 0.826172C13.7654 0.826172 0.604614 12.5446 0.604614 27C0.604614 41.4554 13.7654 53.1739 30 53.1739Z" fill="url(#paint0_linear_1160_17288)"/>
<path d="M35.37 31.3639C35.2135 31.3634 35.0604 31.3177 34.9292 31.2323L32.16 29.4346C31.9801 29.318 31.8538 29.1348 31.809 28.9251C31.7642 28.7154 31.8046 28.4965 31.9212 28.3166C32.0377 28.1366 32.2211 28.0104 32.4307 27.9656C32.6404 27.9208 32.8593 27.9611 33.0392 28.0777L35.13 29.4346L36.4869 27.3577C36.5447 27.2686 36.6194 27.1918 36.7068 27.1315C36.7942 27.0713 36.8927 27.0289 36.9965 27.0067C37.1003 26.9846 37.2075 26.983 37.3119 27.0023C37.4163 27.0215 37.5159 27.0611 37.605 27.1189C37.6941 27.1766 37.771 27.2513 37.8312 27.3387C37.8914 27.4262 37.9338 27.5246 37.956 27.6284C37.9782 27.7323 37.9797 27.8394 37.9604 27.9438C37.9412 28.0483 37.9016 28.1478 37.8439 28.2369L36.0462 31.0062C35.9715 31.1167 35.8708 31.2072 35.7528 31.2696C35.6349 31.332 35.5034 31.3644 35.37 31.3639Z" fill="#4C685F"/>
<path d="M26.6446 28.1077C27.4233 28.1077 28.0546 27.4764 28.0546 26.6977C28.0546 25.919 27.4233 25.2877 26.6446 25.2877C25.8659 25.2877 25.2346 25.919 25.2346 26.6977C25.2346 27.4764 25.8659 28.1077 26.6446 28.1077Z" fill="#4C685F"/>
<path d="M26.1092 26.6977C26.3042 26.6977 26.4623 26.5397 26.4623 26.3447C26.4623 26.1497 26.3042 25.9916 26.1092 25.9916C25.9142 25.9916 25.7562 26.1497 25.7562 26.3447C25.7562 26.5397 25.9142 26.6977 26.1092 26.6977Z" fill="white"/>
<path d="M40.9685 26.6977C41.7472 26.6977 42.3785 26.0664 42.3785 25.2877C42.3785 24.509 41.7472 23.8777 40.9685 23.8777C40.1897 23.8777 39.5585 24.509 39.5585 25.2877C39.5585 26.0664 40.1897 26.6977 40.9685 26.6977Z" fill="#4C685F"/>
<g style="mix-blend-mode:screen" opacity="0.5">
<path d="M16.9491 13.9891C18.1558 12.7823 18.4072 11.0772 17.5105 10.1805C16.6138 9.28376 14.9086 9.53508 13.7019 10.7418C12.4951 11.9485 12.2438 13.6537 13.1405 14.5504C14.0372 15.4471 15.7424 15.1958 16.9491 13.9891Z" fill="white"/>
</g>
<path d="M40.5138 25.2877C40.7088 25.2877 40.8669 25.1296 40.8669 24.9346C40.8669 24.7396 40.7088 24.5815 40.5138 24.5815C40.3188 24.5815 40.1608 24.7396 40.1608 24.9346C40.1608 25.1296 40.3188 25.2877 40.5138 25.2877Z" fill="white"/>
<defs>
<linearGradient id="paint0_linear_1160_17288" x1="0.604614" y1="27" x2="59.3954" y2="27" gradientUnits="userSpaceOnUse">
<stop stop-color="#BFFFBA"/>
<stop offset="0.98" stop-color="#7FEFCD"/>
</linearGradient>
</defs>
</svg>
