<svg width="58" height="56" viewBox="0 0 58 56" fill="none" xmlns="http://www.w3.org/2000/svg">
<path d="M29 55.4477C44.591 55.4477 57.23 43.1589 57.23 28C57.23 12.8411 44.591 0.552307 29 0.552307C13.409 0.552307 0.770004 12.8411 0.770004 28C0.770004 43.1589 13.409 55.4477 29 55.4477Z" fill="url(#paint0_linear_1160_17822)"/>
<g style="mix-blend-mode:screen" opacity="0.2">
<path d="M14.8443 14.9908C16.051 13.7841 16.3023 12.0789 15.4056 11.1822C14.5089 10.2855 12.8037 10.5369 11.597 11.7436C10.3903 12.9503 10.139 14.6555 11.0357 15.5522C11.9324 16.4489 13.6375 16.1975 14.8443 14.9908Z" fill="white"/>
</g>
<path d="M20.9254 28.7708C21.7092 28.7708 22.3446 28.1354 22.3446 27.3515C22.3446 26.5677 21.7092 25.9323 20.9254 25.9323C20.1416 25.9323 19.5061 26.5677 19.5061 27.3515C19.5061 28.1354 20.1416 28.7708 20.9254 28.7708Z" fill="white"/>
<path d="M35.3508 30.2223C36.1346 30.2223 36.77 29.5869 36.77 28.8031C36.77 28.0193 36.1346 27.3839 35.3508 27.3839C34.5669 27.3839 33.9315 28.0193 33.9315 28.8031C33.9315 29.5869 34.5669 30.2223 35.3508 30.2223Z" fill="white"/>
<path d="M27.7654 34.4062C27.6412 34.4053 27.5189 34.3761 27.4077 34.3208C25.2985 33.2708 24.6131 29.0385 24.5415 28.5516C24.5235 28.4335 24.5322 28.313 24.567 28.1988C24.6017 28.0845 24.6616 27.9795 24.7423 27.8915C24.8234 27.8042 24.9227 27.7358 25.0332 27.6911C25.1436 27.6465 25.2626 27.6266 25.3815 27.6331L30.9615 27.9654C31.0871 27.9728 31.2091 28.0097 31.3178 28.073C31.4264 28.1363 31.5186 28.2244 31.5869 28.33C31.6551 28.4302 31.6998 28.5445 31.7178 28.6643C31.7357 28.7842 31.7265 28.9065 31.6908 29.0223C31.5431 29.4839 30.1954 33.5431 28.0631 34.3577C27.9677 34.3922 27.8668 34.4086 27.7654 34.4062ZM25.9723 28.9669C26.3346 30.5108 26.9808 32.2508 27.7654 32.9962C28.6308 32.3408 29.5331 30.6885 30.1377 29.2162L25.9723 28.9669Z" fill="white"/>
<defs>
<linearGradient id="paint0_linear_1160_17822" x1="10.3585" y1="11.9408" x2="53.9946" y2="49.5354" gradientUnits="userSpaceOnUse">
<stop offset="0.05" stop-color="#AEB6FF"/>
<stop offset="0.98" stop-color="#8E8AFF"/>
</linearGradient>
</defs>
</svg>
