<svg width="155" height="45" viewBox="0 0 155 45" fill="none" xmlns="http://www.w3.org/2000/svg">
<path d="M26.654 15.1338C26.4031 15.1306 26.1573 15.0593 25.9408 14.9269C25.7244 14.7945 25.5447 14.6056 25.4196 14.3788C24.0783 11.9337 24.0412 8.75946 25.3209 5.89831C26.6005 3.03716 28.9541 1.02534 31.6163 0.523462C31.9085 0.473814 32.2082 0.519244 32.4748 0.653568C32.7413 0.787891 32.9616 1.00458 33.1058 1.27414C34.4513 3.7192 34.4883 6.89349 33.2045 9.75464C31.9208 12.6158 29.5713 14.6276 26.9091 15.1295C26.8243 15.1371 26.7391 15.1385 26.654 15.1338V15.1338ZM31.0403 3.84789C29.6642 4.55834 28.561 5.73573 27.9119 7.18652C27.2628 8.6373 27.1065 10.2751 27.4687 11.8308C28.8438 11.1191 29.9461 9.94157 30.595 8.49115C31.2439 7.04074 31.4009 5.40352 31.0403 3.84789V3.84789Z" fill="#F8F8F8"/>
<path d="M31.4484 39.2861L31.1412 39.5647L31.0797 39.6196C27.6173 42.7198 23.1806 44.4193 18.5938 44.4024C8.3527 44.4024 5.65914e-05 36.1454 5.65914e-05 25.9971C-0.0059536 23.6086 0.466825 21.2444 1.38876 19.0529C1.47068 18.8461 1.57718 18.597 1.68369 18.3648C1.82297 18.0651 1.97044 17.7823 2.12201 17.5206C3.33855 15.32 5.09754 13.4897 7.22101 12.2147C9.34448 10.9397 11.7571 10.2653 14.2147 10.2598C15.313 10.2617 16.4068 10.4035 17.4714 10.6819C17.6229 10.7157 17.8155 10.7579 18.0244 10.8254C18.18 10.8564 18.3323 10.9031 18.4791 10.9647C19.9723 11.4809 21.3116 12.384 22.3683 13.5874C23.4251 14.7908 24.1638 16.2541 24.5135 17.8366C24.8631 19.419 24.812 21.0676 24.365 22.6239C23.918 24.1801 23.0902 25.5918 21.9611 26.7232C21.3567 27.3251 20.8768 28.0468 20.5501 28.8448C20.2235 29.6428 20.0568 30.5006 20.0603 31.3667C20.0603 31.7586 19.9093 32.1344 19.6404 32.4115C19.3715 32.6886 19.0068 32.8442 18.6266 32.8442C18.2463 32.8442 17.8816 32.6886 17.6128 32.4115C17.3439 32.1344 17.1928 31.7586 17.1928 31.3667C17.1897 30.1068 17.4333 28.8592 17.9091 27.6987C18.385 26.5381 19.0832 25.4884 19.962 24.6125C20.9812 23.5873 21.6347 22.2376 21.8169 20.782C21.999 19.3263 21.6991 17.85 20.9656 16.5919C20.1839 15.2657 18.9701 14.2692 17.541 13.7804L17.4632 13.7551H17.3689L17.2051 13.696C17.0785 13.6556 16.95 13.6218 16.82 13.5947H16.775C15.9374 13.381 15.0775 13.2747 14.2147 13.2781C12.2673 13.2803 10.355 13.8124 8.67106 14.8205C6.98718 15.8285 5.59143 17.2769 4.62493 19.0192C4.51433 19.2302 4.38734 19.4709 4.27264 19.7199C4.19071 19.893 4.10878 20.083 4.03504 20.2729C3.26218 22.1057 2.86474 24.0832 2.86757 26.0816C2.86757 34.6003 9.92164 41.5319 18.5938 41.5319C22.4897 41.547 26.2584 40.104 29.1995 37.4709L29.2773 37.4033L29.5927 37.1163L29.8426 36.8841C29.8904 36.8253 29.9424 36.7702 29.9983 36.7195L30.0515 36.6646L30.3629 36.3269C31.3696 35.1789 32.139 33.8316 32.6241 32.3672C33.0191 31.1856 33.2198 29.9443 33.2181 28.6946C33.226 26.6031 32.6727 24.55 31.6195 22.7621C30.5662 20.9742 29.0539 19.5211 27.2496 18.5633C26.9267 18.3748 26.6874 18.0647 26.5818 17.6981C26.4763 17.3315 26.5127 16.9371 26.6835 16.5976C26.8543 16.2582 27.1462 16.0002 27.4977 15.8779C27.8493 15.7556 28.2331 15.7785 28.5686 15.9418C30.8293 17.1397 32.7269 18.955 34.054 21.1892C35.3812 23.4234 36.0868 25.9906 36.0938 28.6102C36.0912 32.17 34.8049 35.6018 32.4848 38.2392L32.0752 38.6613L31.4484 39.2861Z" fill="#F8F8F8"/>
<path d="M72.8603 37.1964C70.8124 37.1964 68.8105 36.5913 67.1077 35.4575C65.4049 34.3238 64.0778 32.7123 63.2941 30.827C62.5104 28.9416 62.3053 26.867 62.7048 24.8656C63.1043 22.8641 64.0905 21.0256 65.5386 19.5826C66.9867 18.1396 68.8317 17.1569 70.8403 16.7588C72.8488 16.3607 74.9308 16.565 76.8228 17.346C78.7148 18.1269 80.3319 19.4494 81.4697 21.1461C82.6075 22.8429 83.2148 24.8378 83.2148 26.8785C83.211 29.6138 82.1189 32.2361 80.1779 34.1702C78.2368 36.1044 75.6053 37.1927 72.8603 37.1964V37.1964ZM72.8603 20.0848C71.5119 20.0848 70.1937 20.4832 69.0726 21.2297C67.9514 21.9762 67.0776 23.0373 66.5615 24.2786C66.0455 25.52 65.9105 26.886 66.1736 28.2039C66.4366 29.5217 67.086 30.7322 68.0395 31.6824C68.9929 32.6325 70.2077 33.2795 71.5302 33.5416C72.8528 33.8038 74.2236 33.6692 75.4694 33.155C76.7151 32.6408 77.7799 31.7701 78.5291 30.6529C79.2782 29.5356 79.678 28.2222 79.678 26.8785C79.6799 25.9848 79.505 25.0995 79.1633 24.2732C78.8216 23.4469 78.3198 22.6959 77.6866 22.063C77.0535 21.43 76.3013 20.9277 75.4732 20.5846C74.645 20.2415 73.7572 20.0645 72.8603 20.0636V20.0848Z" fill="#F8F8F8"/>
<path d="M144.645 37.1964C142.598 37.1964 140.596 36.5913 138.893 35.4575C137.19 34.3238 135.863 32.7123 135.079 30.827C134.295 28.9416 134.09 26.867 134.49 24.8656C134.89 22.8641 135.876 21.0256 137.324 19.5826C138.772 18.1396 140.617 17.1569 142.625 16.7588C144.634 16.3607 146.716 16.565 148.608 17.346C150.5 18.1269 152.117 19.4494 153.255 21.1461C154.393 22.8429 155 24.8378 155 26.8785C154.996 29.6138 153.904 32.2361 151.963 34.1702C150.022 36.1044 147.391 37.1927 144.645 37.1964V37.1964ZM144.645 20.0848C143.297 20.0848 141.979 20.4832 140.858 21.2297C139.737 21.9762 138.863 23.0373 138.347 24.2786C137.831 25.52 137.696 26.886 137.959 28.2039C138.222 29.5217 138.871 30.7322 139.825 31.6824C140.778 32.6325 141.993 33.2795 143.315 33.5416C144.638 33.8038 146.009 33.6692 147.254 33.155C148.5 32.6408 149.565 31.7701 150.314 30.6529C151.063 29.5356 151.463 28.2222 151.463 26.8785C151.466 25.9845 151.292 25.0988 150.95 24.2721C150.609 23.4454 150.107 22.694 149.474 22.0609C148.841 21.4278 148.088 20.9255 147.259 20.5827C146.431 20.24 145.543 20.0635 144.645 20.0636V20.0848Z" fill="#F8F8F8"/>
<path d="M97.2353 37.1964C95.1874 37.1964 93.1855 36.5913 91.4827 35.4575C89.7799 34.3238 88.4528 32.7123 87.6691 30.827C86.8854 28.9416 86.6803 26.867 87.0798 24.8656C87.4793 22.8641 88.4655 21.0256 89.9136 19.5826C91.3617 18.1396 93.2067 17.1569 95.2153 16.7588C97.2238 16.3607 99.3058 16.565 101.198 17.346C103.09 18.1269 104.707 19.4494 105.845 21.1461C106.982 22.8429 107.59 24.8378 107.59 26.8785C107.586 29.6138 106.494 32.2361 104.553 34.1702C102.612 36.1044 99.9803 37.1927 97.2353 37.1964V37.1964ZM97.2353 20.0848C95.8872 20.0862 94.5698 20.4858 93.4495 21.2332C92.3293 21.9805 91.4565 23.042 90.9416 24.2835C90.4267 25.5251 90.2926 26.8908 90.5565 28.2082C90.8204 29.5256 91.4703 30.7354 92.424 31.6848C93.3778 32.6343 94.5926 33.2806 95.915 33.5422C97.2373 33.8037 98.6077 33.6688 99.8531 33.1544C101.098 32.6399 102.163 31.7692 102.912 30.6521C103.66 29.5351 104.06 28.2218 104.06 26.8785C104.062 25.9842 103.887 25.0983 103.545 24.2716C103.203 23.4448 102.7 22.6935 102.066 22.0605C101.432 21.4274 100.679 20.9252 99.8503 20.5826C99.0214 20.2399 98.1328 20.0635 97.2353 20.0636V20.0848Z" fill="#F8F8F8"/>
<path d="M48.4864 37.196C48.0155 37.196 47.5639 37.0096 47.231 36.6779C46.898 36.3461 46.7109 35.8961 46.7109 35.4268C46.7109 34.9576 46.898 34.5076 47.231 34.1758C47.5639 33.844 48.0155 33.6577 48.4864 33.6577C50.2934 33.6539 52.0254 32.937 53.3031 31.6637C54.5809 30.3904 55.3004 28.6646 55.3041 26.864V9.70279C55.3041 9.23357 55.4912 8.78357 55.8241 8.45178C56.1571 8.11999 56.6087 7.93359 57.0796 7.93359C57.5504 7.93359 58.002 8.11999 58.335 8.45178C58.668 8.78357 58.855 9.23357 58.855 9.70279V26.8781C58.8513 29.6159 57.7572 32.2403 55.8131 34.1748C53.869 36.1094 51.2339 37.196 48.4864 37.196V37.196Z" fill="#F8F8F8"/>
<path d="M81.4445 37.1973C81.2123 37.1975 80.9823 37.152 80.7678 37.0633C80.5533 36.9747 80.3585 36.8446 80.1946 36.6806L77.6805 34.1755C77.5087 34.0136 77.3712 33.8191 77.2762 33.6034C77.1811 33.3878 77.1305 33.1553 77.1271 32.9197C77.1238 32.6842 77.1679 32.4503 77.2569 32.2321C77.3458 32.0138 77.4777 31.8155 77.6449 31.6489C77.8121 31.4824 78.011 31.3509 78.2301 31.2622C78.4491 31.1736 78.6838 31.1297 78.9202 31.133C79.1566 31.1363 79.3898 31.1868 79.6063 31.2815C79.8228 31.3762 80.018 31.5133 80.1804 31.6844L82.6944 34.1896C83.0257 34.5201 83.2119 34.968 83.2119 35.4351C83.2119 35.9022 83.0257 36.3502 82.6944 36.6806C82.5313 36.8456 82.3366 36.9763 82.1219 37.065C81.9073 37.1537 81.6769 37.1987 81.4445 37.1973V37.1973Z" fill="#F8F8F8"/>
<path d="M105.825 28.6402C105.356 28.6402 104.906 28.4546 104.575 28.1241C104.243 27.7936 104.057 27.3454 104.057 26.8781V9.70278C104.057 9.23357 104.244 8.78357 104.577 8.45178C104.91 8.11999 105.361 7.93359 105.832 7.93359C106.303 7.93359 106.755 8.11999 107.088 8.45178C107.42 8.78357 107.608 9.23357 107.608 9.70278V26.8781C107.608 27.1107 107.561 27.341 107.472 27.5557C107.382 27.7704 107.25 27.9653 107.085 28.1291C106.919 28.2929 106.722 28.4224 106.506 28.5102C106.29 28.5979 106.058 28.6421 105.825 28.6402V28.6402Z" fill="#F8F8F8"/>
<path d="M121.444 37.1964C119.396 37.1964 117.394 36.5913 115.692 35.4575C113.989 34.3238 112.662 32.7123 111.878 30.827C111.094 28.9416 110.889 26.867 111.289 24.8656C111.688 22.8641 112.675 21.0256 114.123 19.5826C115.571 18.1396 117.416 17.1569 119.424 16.7588C121.433 16.3607 123.515 16.565 125.407 17.346C127.299 18.1269 128.916 19.4494 130.054 21.1461C131.191 22.8429 131.799 24.8378 131.799 26.8785C131.795 29.6138 130.703 32.2361 128.762 34.1702C126.821 36.1044 124.189 37.1927 121.444 37.1964V37.1964ZM121.444 20.0848C120.096 20.0848 118.778 20.4832 117.657 21.2297C116.535 21.9762 115.662 23.0373 115.146 24.2786C114.63 25.52 114.494 26.886 114.758 28.2039C115.021 29.5217 115.67 30.7322 116.623 31.6824C117.577 32.6325 118.792 33.2795 120.114 33.5416C121.437 33.8038 122.808 33.6692 124.053 33.155C125.299 32.6408 126.364 31.7701 127.113 30.6529C127.862 29.5356 128.262 28.2222 128.262 26.8785C128.264 25.9848 128.089 25.0995 127.747 24.2732C127.406 23.4469 126.904 22.6959 126.271 22.063C125.637 21.43 124.885 20.9277 124.057 20.5846C123.229 20.2415 122.341 20.0645 121.444 20.0636V20.0848Z" fill="#F8F8F8"/>
</svg>
