<svg width="36" height="34" viewBox="0 0 36 34" fill="none" xmlns="http://www.w3.org/2000/svg">
<g clip-path="url(#clip0_643_1450)">
<path d="M7.13536 0.765461L7.13645 0.765194C7.5325 0.667942 8.19868 0.560505 8.57844 0.528126L8.53596 0.0299339M7.13536 0.765461L35.4551 26.0628L35.4551 26.0631M7.13536 0.765461C4.01338 1.52466 1.57379 3.84058 0.777894 6.75897M7.13536 0.765461L34.4503 3.97181C33.0357 1.95306 30.8447 0.582432 28.3388 0.146809M8.53596 0.0299339L8.57022 0.528759C8.56728 0.528961 8.5679 0.528946 8.574 0.528793C8.58108 0.528618 8.59553 0.528259 8.62035 0.527843C8.65941 0.527191 8.71397 0.526516 8.78376 0.525826C8.92312 0.524452 9.12004 0.523056 9.36845 0.521667C9.86508 0.51889 10.5654 0.516151 11.4181 0.51366C13.1234 0.508682 15.437 0.504696 17.9469 0.503368M8.53596 0.0299339C8.69065 0.0193062 12.9263 0.00602722 17.9466 0.00336838M8.53596 0.0299339C8.13096 0.0644646 7.43909 0.176025 7.01721 0.279621C3.7294 1.07915 1.1419 3.5229 0.295337 6.62806L0.77808 6.75829C0.778018 6.75851 0.777956 6.75875 0.777894 6.75897M17.9469 0.503368L17.9466 0.00336838M17.9469 0.503368L17.9466 0.00336838M17.9469 0.503368C26.7882 0.501003 27.4057 0.498371 28.0069 0.596668C28.0836 0.609222 28.1602 0.623425 28.2535 0.639484M17.9466 0.00336838C26.7518 0.00101471 27.4207 -0.00342941 28.0721 0.10104C28.1556 0.114429 28.2388 0.129608 28.3388 0.146809M28.2535 0.639484C28.2537 0.639515 28.2539 0.639542 28.254 0.639572L28.3388 0.146809M28.2535 0.639484C28.2534 0.639462 28.2533 0.639442 28.2531 0.63942L28.3388 0.146809M28.2535 0.639484C30.6331 1.05324 32.7053 2.3529 34.0409 4.25875L34.041 4.25893C34.8779 5.45202 35.3541 6.78244 35.4736 8.24912L35.9719 8.20853L35.4735 8.24799C35.4734 8.24694 35.4738 8.25206 35.4744 8.26709C35.4749 8.28079 35.4755 8.29902 35.4761 8.32217C35.4773 8.36841 35.4785 8.43031 35.4796 8.50753C35.4819 8.66178 35.484 8.87271 35.4858 9.13282C35.4895 9.65278 35.4922 10.3656 35.4941 11.2069C35.4978 12.8892 35.4981 15.0826 35.4955 17.2684C35.4928 19.4542 35.4873 21.6316 35.4794 23.282C35.4755 24.1073 35.471 24.8002 35.466 25.2961C35.4635 25.5442 35.4608 25.7419 35.4581 25.8817C35.4568 25.9519 35.4554 26.0058 35.4541 26.0435C35.4534 26.0627 35.4529 26.074 35.4526 26.0794M35.4526 26.0794C35.4534 26.0739 35.4543 26.0685 35.4551 26.0631M35.4526 26.0794C35.3011 27.069 35.0966 27.7744 34.7459 28.5208L34.7451 28.5225C34.2852 29.5111 33.6843 30.322 32.8291 31.1095L32.8275 31.111C32.3266 31.5764 31.9874 31.8346 31.4757 32.1475M35.4526 26.0794C35.4525 26.082 35.4524 26.0832 35.4524 26.0832C35.4525 26.0833 35.4533 26.075 35.4551 26.0631M35.4551 26.0631L31.4757 32.1475M31.4757 32.1475C31.4758 32.1475 31.4758 32.1475 31.4759 32.1475L31.7363 32.5743L31.4754 32.1478C31.4755 32.1477 31.4756 32.1476 31.4757 32.1475ZM31.4757 32.1475C30.3221 32.8513 29.1752 33.2454 27.6211 33.4556M31.4757 32.1475L27.6076 33.4575L27.6084 33.4574M27.6211 33.4556C27.6219 33.4556 27.6223 33.4556 27.6223 33.4556C27.6223 33.4557 27.6168 33.4562 27.6084 33.4574M27.6211 33.4556C27.6174 33.4558 27.6044 33.4565 27.5776 33.4573C27.5371 33.4585 27.4795 33.4598 27.4051 33.4611C27.2566 33.4637 27.047 33.4662 26.7842 33.4685C26.2589 33.4733 25.5251 33.4775 24.6512 33.4813C22.9036 33.4887 20.5979 33.4939 18.2836 33.4964C15.9692 33.4989 13.6466 33.4986 11.8652 33.4951C10.9744 33.4933 10.2195 33.4908 9.66872 33.4873C9.39324 33.4856 9.16965 33.4836 9.00601 33.4815C8.9241 33.4804 8.8582 33.4792 8.80879 33.4781C8.78407 33.4775 8.76435 33.477 8.74933 33.4764L8.73172 33.4757C8.72857 33.4756 8.72679 33.4754 8.72612 33.4754C8.72599 33.4754 8.7259 33.4754 8.72585 33.4754M27.6211 33.4556C27.6169 33.4562 27.6126 33.4568 27.6084 33.4574M27.6084 33.4574L8.72585 33.4754M8.72585 33.4754C8.72604 33.4754 8.72623 33.4754 8.72641 33.4754L8.69068 33.9737L8.72587 33.4754C8.72581 33.4754 8.7258 33.4754 8.72584 33.4754C7.06777 33.3564 5.57659 32.8545 4.25083 31.9746L8.72585 33.4754ZM0.777894 6.75897C0.673175 7.1474 0.563604 7.7529 0.526511 8.15629M0.777894 6.75897L0.526511 8.15629M0.526511 8.15629C0.526501 8.15651 0.526485 8.15683 0.526465 8.15725C0.526275 8.1613 0.525641 8.1748 0.524852 8.20267C0.523922 8.23554 0.522974 8.2803 0.522027 8.33751C0.520138 8.45173 0.518328 8.61108 0.516618 8.81519C0.513201 9.22315 0.510216 9.8062 0.507756 10.557C0.502837 12.0583 0.500024 14.2278 0.500024 17.0034C0.500024 25.2996 0.497842 25.8791 0.600648 26.4393C0.613831 26.5111 0.628741 26.5827 0.645604 26.6701M0.526511 8.15629L0.645604 26.6701M0.645604 26.6701C0.645576 26.6699 0.645549 26.6698 0.645521 26.6697L0.15486 26.7651L0.645668 26.6704C0.645647 26.6703 0.645625 26.6702 0.645604 26.6701ZM27.4515 2.45249L27.4473 2.452C27.4141 2.44846 27.3641 2.44761 27.3358 2.44712L27.3301 2.44703C27.2871 2.44627 27.228 2.44555 27.1547 2.44485C27.0077 2.44346 26.7995 2.44213 26.5393 2.44086C26.0185 2.43833 25.2869 2.43606 24.4148 2.43409C22.6706 2.43014 20.3633 2.4274 18.0551 2.42624C15.7469 2.42508 13.4375 2.4255 11.6891 2.42786C10.8149 2.42904 10.0806 2.43072 9.55656 2.43292C9.29468 2.43403 9.08466 2.43527 8.93577 2.43666C8.81178 2.43781 8.69213 2.43894 8.64285 2.44347L27.4515 2.45249ZM27.4515 2.45249C30.2465 2.77713 32.5393 4.66549 33.2347 7.26936L33.2347 7.26955M27.4515 2.45249L33.2347 7.26955M33.2347 7.26955C33.2433 7.30164 33.2523 7.33354 33.2615 7.3661C33.2956 7.48668 33.3323 7.61636 33.3573 7.79823C33.388 8.02098 33.405 8.33256 33.4157 8.89257C33.4349 9.89506 33.4347 11.7702 33.4345 15.5266C33.4344 15.9928 33.4344 16.4879 33.4344 17.014C33.4344 20.8067 33.433 22.9716 33.427 24.2228C33.4211 25.4517 33.4115 25.8314 33.3879 26.0099L33.3874 26.0135M33.2347 7.26955L33.3874 26.0135M33.3874 26.0135C33.2344 27.1085 32.7939 28.1444 32.0961 29.0337C31.795 29.4188 31.1068 30.0684 30.7011 30.3516C29.7634 31.008 28.676 31.4191 27.5315 31.5617L27.5283 31.5621M33.3874 26.0135L27.5283 31.5621M27.5283 31.5621C27.3459 31.5836 26.9511 31.5929 25.6465 31.5984C24.3219 31.6041 22.0299 31.6054 18.0141 31.6054C17.4575 31.6054 16.9336 31.6054 16.4403 31.6055C12.4618 31.6057 10.4772 31.6058 9.41653 31.5877C8.82356 31.5776 8.49805 31.5616 8.2675 31.5333C8.0809 31.5104 7.94988 31.4773 7.82274 31.4453C7.78761 31.4364 7.75278 31.4276 7.71715 31.4192L7.71686 31.4191M27.5283 31.5621L7.71686 31.4191M7.71686 31.4191C4.98932 30.7687 2.9446 28.5861 2.62541 25.9079L3.1219 25.8487L2.62573 25.9105C2.61903 25.8567 2.61642 25.7652 2.61437 25.6745C2.612 25.5696 2.60993 25.4248 2.60812 25.239C2.6045 24.8671 2.60186 24.325 2.6001 23.5971C2.59659 22.1409 2.59659 19.9368 2.5994 16.8542L2.60784 8.11507L2.60789 8.06222M7.71686 31.4191L2.60789 8.06222M2.60789 8.06222L2.61899 8.01054M2.60789 8.06222L2.61899 8.01054M2.61899 8.01054L2.69741 7.64553M2.61899 8.01054L2.69741 7.64553M2.69741 7.64553C2.69747 7.64526 2.69752 7.64499 2.69758 7.64472L2.69741 7.64553ZM3.97409 32.391L4.2506 31.9744L0.0281492 8.11556C0.0112742 8.32274 2.41871e-05 11.4518 2.41871e-05 17.0034C2.41871e-05 25.2592 -0.00439142 25.896 0.1061 26.5121C0.120317 26.5914 0.136436 26.6703 0.154712 26.7651C0.596274 29.0362 1.97159 31.0602 3.97409 32.391Z" fill="#F8F8F8" stroke="#F8F8F8"/>
<path d="M27.5197 5.69635C26.7379 5.86901 26.1388 6.41885 25.9475 7.14932C25.8829 7.39635 25.8885 7.82667 25.9588 8.08698C26.2682 9.23448 27.5985 9.85604 28.7572 9.39651C29.0694 9.27432 29.4688 8.97151 29.646 8.72448C30.1382 8.03917 30.1325 7.13604 29.6291 6.46932C29.3788 6.13729 29.0357 5.89823 28.611 5.75745C28.4 5.68839 28.3129 5.67776 28.026 5.66979C27.8066 5.66182 27.6294 5.67245 27.5197 5.69635Z" fill="#F8F8F8"/>
<path d="M17.4231 8.57014C15.2125 8.73482 13.2212 9.59014 11.6884 11.0404C10.2709 12.3765 9.40184 14.0553 9.12059 15.9917C9.05309 16.4619 9.05309 17.5748 9.1234 18.0503C9.32309 19.4342 9.77309 20.5737 10.5606 21.6894C11.7868 23.4292 13.6178 24.6723 15.7272 25.1956C17.049 25.5223 18.489 25.5595 19.825 25.2992C21.5462 24.9645 23.0875 24.1783 24.3418 22.9909C25.7678 21.6442 26.634 19.9814 26.9068 18.0636C26.9687 17.62 26.9772 16.4964 26.9209 16.0714C26.6565 14.0951 25.7847 12.3978 24.3278 11.0245C22.9215 9.69904 21.1243 8.87029 19.1106 8.62061C18.79 8.57811 17.7212 8.54889 17.4231 8.57014ZM18.5481 11.16C19.7518 11.2556 20.9472 11.7098 21.909 12.4323C22.2268 12.674 22.75 13.184 22.9947 13.4948C23.6247 14.2917 24.01 15.1629 24.1787 16.1644C24.2462 16.5734 24.2462 17.4579 24.1787 17.875C23.7512 20.4542 21.6559 22.4331 18.925 22.8369C18.4947 22.9006 17.5215 22.9006 17.1053 22.8369C15.0465 22.5234 13.3337 21.3361 12.4309 19.5962C11.4972 17.8006 11.5928 15.6915 12.6868 13.9809C13.1847 13.2053 13.9806 12.4536 14.8018 11.9834C15.924 11.3433 17.2459 11.0537 18.5481 11.16Z" fill="#F8F8F8"/>
</g>
<defs>
<clipPath id="clip0_643_1450">
<rect width="36" height="34" fill="white"/>
</clipPath>
</defs>
</svg>
