<svg width="60" height="60" viewBox="0 0 60 60" fill="none" xmlns="http://www.w3.org/2000/svg">
<path d="M30 57.4477C45.591 57.4477 58.23 45.1589 58.23 30C58.23 14.8411 45.591 2.55231 30 2.55231C14.409 2.55231 1.77 14.8411 1.77 30C1.77 45.1589 14.409 57.4477 30 57.4477Z" fill="url(#paint0_linear_707_5503)"/>
<g style="mix-blend-mode:screen" opacity="0.2">
<path d="M15.8443 16.9908C17.051 15.7841 17.3023 14.0789 16.4056 13.1822C15.5089 12.2855 13.8037 12.5369 12.597 13.7436C11.3903 14.9503 11.139 16.6555 12.0357 17.5522C12.9324 18.4489 14.6375 18.1975 15.8443 16.9908Z" fill="white"/>
</g>
<path d="M21.9254 30.7708C22.7092 30.7708 23.3446 30.1354 23.3446 29.3515C23.3446 28.5677 22.7092 27.9323 21.9254 27.9323C21.1416 27.9323 20.5061 28.5677 20.5061 29.3515C20.5061 30.1354 21.1416 30.7708 21.9254 30.7708Z" fill="white"/>
<path d="M36.3508 32.2223C37.1346 32.2223 37.77 31.5869 37.77 30.8031C37.77 30.0193 37.1346 29.3839 36.3508 29.3839C35.5669 29.3839 34.9315 30.0193 34.9315 30.8031C34.9315 31.5869 35.5669 32.2223 36.3508 32.2223Z" fill="white"/>
<path d="M28.7654 36.4062C28.6412 36.4053 28.5189 36.3761 28.4077 36.3208C26.2985 35.2708 25.6131 31.0385 25.5415 30.5516C25.5235 30.4335 25.5322 30.313 25.567 30.1988C25.6017 30.0845 25.6616 29.9795 25.7423 29.8915C25.8234 29.8042 25.9227 29.7358 26.0332 29.6911C26.1436 29.6465 26.2626 29.6266 26.3815 29.6331L31.9615 29.9654C32.0871 29.9728 32.2091 30.0097 32.3178 30.073C32.4264 30.1363 32.5186 30.2244 32.5869 30.33C32.6551 30.4302 32.6998 30.5445 32.7178 30.6643C32.7357 30.7842 32.7265 30.9065 32.6908 31.0223C32.5431 31.4839 31.1954 35.5431 29.0631 36.3577C28.9677 36.3922 28.8668 36.4086 28.7654 36.4062ZM26.9723 30.9669C27.3346 32.5108 27.9808 34.2508 28.7654 34.9962C29.6308 34.3408 30.5331 32.6885 31.1377 31.2162L26.9723 30.9669Z" fill="white"/>
<defs>
<linearGradient id="paint0_linear_707_5503" x1="11.3585" y1="13.9408" x2="54.9946" y2="51.5354" gradientUnits="userSpaceOnUse">
<stop offset="0.05" stop-color="#AEB6FF"/>
<stop offset="0.98" stop-color="#8E8AFF"/>
</linearGradient>
</defs>
</svg>
