<svg width="60" height="60" viewBox="0 0 60 60" fill="none" xmlns="http://www.w3.org/2000/svg">
<path d="M30 56.0192C46.1378 56.0192 59.22 44.37 59.22 30C59.22 15.63 46.1378 3.98077 30 3.98077C13.8622 3.98077 0.779999 15.63 0.779999 30C0.779999 44.37 13.8622 56.0192 30 56.0192Z" fill="url(#paint0_linear_707_5440)"/>
<path d="M27.4431 32.3792C27.3193 32.3795 27.1972 32.3511 27.0863 32.2962C26.9754 32.2414 26.8787 32.1616 26.8038 32.0631L25.3038 30.0923L23.3331 31.5923C23.1626 31.7096 22.9534 31.7568 22.749 31.724C22.5446 31.6913 22.3607 31.581 22.2354 31.4163C22.1101 31.2515 22.0531 31.0448 22.0762 30.8391C22.0992 30.6334 22.2006 30.4445 22.3592 30.3115L24.9692 28.3246C25.1389 28.1959 25.3527 28.1397 25.5637 28.1683C25.7748 28.1968 25.9659 28.3078 26.0954 28.4769L28.0823 31.0892C28.1731 31.2083 28.2288 31.3504 28.2431 31.4994C28.2574 31.6485 28.2297 31.7986 28.1633 31.9327C28.0968 32.0669 27.9941 32.1798 27.8669 32.2587C27.7396 32.3376 27.5928 32.3793 27.4431 32.3792Z" fill="#4C685F"/>
<g style="mix-blend-mode:screen" opacity="0.5">
<path d="M17.1377 16.9897C18.3444 15.783 18.5957 14.0778 17.699 13.1811C16.8023 12.2844 15.0972 12.5357 13.8905 13.7424C12.6837 14.9492 12.4324 16.6543 13.3291 17.551C14.2258 18.4477 15.931 18.1964 17.1377 16.9897Z" fill="white"/>
</g>
<defs>
<linearGradient id="paint0_linear_707_5440" x1="10.2231" y1="13.3454" x2="48.4869" y2="45.5677" gradientUnits="userSpaceOnUse">
<stop offset="0.05" stop-color="#FBF7A5"/>
<stop offset="0.98" stop-color="#FFC876"/>
</linearGradient>
</defs>
</svg>
