<svg width="56" height="60" viewBox="0 0 56 60" fill="none" xmlns="http://www.w3.org/2000/svg">
<path d="M29.3162 57.9594C43.8641 57.281 55.0732 44.2017 54.3525 28.7461C53.6317 13.2904 41.254 1.31106 26.7061 1.98949C12.1581 2.66792 0.948977 15.7472 1.66974 31.2029C2.3905 46.6585 14.7682 58.6379 29.3162 57.9594Z" fill="url(#paint0_linear_1766_18773)"/>
<path d="M24.7877 30.3046C25.555 30.3046 26.1769 29.6826 26.1769 28.9154C26.1769 28.1481 25.555 27.5262 24.7877 27.5262C24.0204 27.5262 23.3985 28.1481 23.3985 28.9154C23.3985 29.6826 24.0204 30.3046 24.7877 30.3046Z" fill="white"/>
<path d="M38.9177 28.9154C39.685 28.9154 40.3069 28.2934 40.3069 27.5261C40.3069 26.7589 39.685 26.1369 38.9177 26.1369C38.1505 26.1369 37.5285 26.7589 37.5285 27.5261C37.5285 28.2934 38.1505 28.9154 38.9177 28.9154Z" fill="white"/>
<path d="M30.2477 31.9361C30.0458 31.9395 29.8504 31.8648 29.7021 31.7277C29.5539 31.5907 29.4642 31.4017 29.4517 31.2001C29.4392 30.9986 29.5049 30.8 29.6351 30.6457C29.7653 30.4913 29.95 30.3931 30.1508 30.3715L35.8115 29.6561C36.0181 29.6301 36.2266 29.6872 36.391 29.8149C36.5555 29.9426 36.6625 30.1304 36.6885 30.3369C36.7145 30.5435 36.6574 30.7519 36.5297 30.9164C36.402 31.0808 36.2143 31.1878 36.0077 31.2138L30.3492 31.9292C30.3156 31.9338 30.2817 31.9361 30.2477 31.9361V31.9361Z" fill="white"/>
<g style="mix-blend-mode:screen" opacity="0.2">
<path d="M14.4435 16.9894C15.6502 15.7827 15.9015 14.0775 15.0048 13.1808C14.1081 12.2841 12.4029 12.5354 11.1962 13.7422C9.9895 14.9489 9.73818 16.654 10.6349 17.5508C11.5316 18.4475 13.2367 18.1961 14.4435 16.9894Z" fill="white"/>
</g>
<defs>
<linearGradient id="paint0_linear_1766_18773" x1="10.2011" y1="13.8183" x2="62.8165" y2="61.6498" gradientUnits="userSpaceOnUse">
<stop stop-color="#FFCCAF"/>
<stop offset="0.99" stop-color="#FA4671"/>
</linearGradient>
</defs>
</svg>
