<svg width="45" height="45" viewBox="0 0 45 45" fill="none" xmlns="http://www.w3.org/2000/svg">
<g clip-path="url(#clip0_643_1467)">
<path d="M5.00002 26.418V8.54046V26.418ZM5.00002 26.418C4.9983 27.4062 5.16038 28.3851 5.47699 29.2989C5.7936 30.2126 6.25855 31.0433 6.84529 31.7435C7.43203 32.4437 8.12906 32.9997 8.89661 33.3797C9.66415 33.7598 10.4872 33.9564 11.3187 33.9585L5.00002 26.418ZM38.6832 33.9518C39.5146 33.9498 40.3375 33.7531 41.105 33.373C41.8724 32.993 42.5693 32.4369 43.1559 31.7367C43.7425 31.0365 44.2073 30.2058 44.5237 29.292C44.8401 28.3783 45.0019 27.3994 45 26.4114L38.6832 33.9518ZM6.00002 8.54046L6.00002 8.53848C5.99827 7.65978 6.14237 6.79221 6.42142 5.98655C6.70047 5.18084 7.10708 4.45822 7.61121 3.8566C8.11512 3.25525 8.70442 2.7889 9.3399 2.47438C9.97422 2.16043 10.6464 2.00157 11.3198 2H38.687C40.0378 2.00525 41.3751 2.64613 42.3899 3.85794C43.4094 5.07534 44.0026 6.75553 44 8.53453V8.53603L44 26.4114L44 26.4133C44.0017 27.2919 43.8577 28.1593 43.5787 28.9648C43.2998 29.7704 42.8933 30.4929 42.3893 31.0945C41.8856 31.6959 41.2965 32.1623 40.6612 32.4769C40.0269 32.791 39.3549 32.9501 38.6815 32.9518C38.6813 32.9518 38.681 32.9518 38.6808 32.9518L29.2538 32.9518H28.645L28.3655 33.4926L25.1483 39.7157L25.1338 39.7438L25.1229 39.7685L25.0713 39.8374L25.0297 39.9227C25.0178 39.947 25.0057 39.9649 24.9953 39.9777C24.9849 39.9649 24.9729 39.947 24.961 39.9227L24.9303 39.8598L24.8911 39.8018C24.8763 39.7797 24.8619 39.7555 24.8484 39.729L24.8462 39.7247L21.629 33.4994L21.3495 32.9585H20.7406H11.3196C10.6464 32.9566 9.97447 32.7976 9.34034 32.4836C8.70491 32.1689 8.11566 31.7026 7.61176 31.1012C7.10764 30.4996 6.70102 29.7771 6.42187 28.9715C6.14274 28.1659 5.99849 27.2984 6.00002 26.4197V26.418L6.00002 8.54046Z" stroke="#F8F8F8" stroke-width="2"/>
<path d="M14.3605 15.4869C13.601 15.5433 12.8879 15.8743 12.3546 16.418V12.6758H10V22.504H12.3834V21.7329C12.3834 21.7329 12.946 22.7485 14.3605 22.7485C14.3605 22.7485 17.6857 22.6263 17.6857 19.0818C17.6857 19.0818 17.5635 15.4869 14.3605 15.4869ZM13.8411 20.6743C13.541 20.6746 13.2475 20.586 12.9978 20.4195C12.7481 20.253 12.5533 20.0162 12.4383 19.739C12.3232 19.4619 12.2929 19.1568 12.3512 18.8624C12.4095 18.568 12.5539 18.2975 12.7659 18.0852C12.978 17.8729 13.2483 17.7282 13.5427 17.6695C13.837 17.6108 14.1421 17.6408 14.4194 17.7555C14.6967 17.8703 14.9337 18.0647 15.1005 18.3143C15.2673 18.5638 15.3563 18.8571 15.3563 19.1572C15.3558 19.5591 15.1961 19.9444 14.9121 20.2288C14.6281 20.5131 14.243 20.6733 13.8411 20.6743V20.6743Z" fill="#F8F8F8"/>
<path d="M18.4473 12.4629V14.7276C18.4473 14.7276 19.5257 14.6791 19.5257 16.685V22.5032H21.7994V16.1476C21.7994 16.1476 21.8911 12.4629 18.4473 12.4629Z" fill="#F8F8F8"/>
<path d="M27.3541 15.5215C27.3541 15.5215 23.4555 15.5215 23.4555 19.1612C23.4555 19.1612 23.3297 22.7561 27.3541 22.7561C27.3541 22.7561 31.3408 22.7561 31.3408 19.1612C31.3408 19.1594 31.472 15.5215 27.3541 15.5215ZM27.3541 20.6783C27.0541 20.6783 26.7608 20.5893 26.5113 20.4226C26.2618 20.2559 26.0674 20.019 25.9526 19.7418C25.8377 19.4646 25.8077 19.1596 25.8662 18.8653C25.9248 18.571 26.0693 18.3007 26.2814 18.0885C26.4936 17.8764 26.7639 17.7319 27.0582 17.6734C27.3524 17.6148 27.6574 17.6449 27.9346 17.7597C28.2118 17.8745 28.4488 18.069 28.6155 18.3184C28.7822 18.5679 28.8711 18.8612 28.8711 19.1612C28.8711 19.3604 28.8319 19.5576 28.7556 19.7415C28.6794 19.9255 28.5676 20.0926 28.4267 20.2333C28.2858 20.374 28.1186 20.4856 27.9345 20.5616C27.7505 20.6377 27.5532 20.6767 27.3541 20.6765V20.6783Z" fill="#F8F8F8"/>
<path d="M37.862 15.7575V16.4189C37.6177 16.1343 37.3142 15.9064 36.9727 15.7511C36.6312 15.5959 36.2599 15.5171 35.8848 15.5202C35.8848 15.5202 32.5488 15.38 32.5488 19.1366C32.5488 19.1366 32.5111 22.6362 35.7932 22.6362C35.7932 22.6362 37.1322 22.6901 37.8656 21.7375V22.2893C37.8656 22.2893 38.031 24.013 36.3612 24.013H35.7932V26.1034H36.7099C36.7099 26.1034 40.1573 26.1393 40.1573 22.4169V15.7665L37.862 15.7575ZM36.451 20.6752C36.151 20.6752 35.8577 20.5862 35.6082 20.4195C35.3588 20.2528 35.1643 20.0159 35.0495 19.7387C34.9347 19.4615 34.9046 19.1565 34.9632 18.8622C35.0217 18.5679 35.1662 18.2976 35.3783 18.0855C35.5905 17.8733 35.8608 17.7288 36.1551 17.6703C36.4493 17.6118 36.7544 17.6418 37.0316 17.7566C37.3088 17.8714 37.5457 18.0659 37.7124 18.3154C37.8791 18.5648 37.968 18.8581 37.968 19.1582C37.9683 19.3582 37.9289 19.5563 37.8522 19.7411C37.7755 19.9258 37.6629 20.0936 37.5211 20.2346C37.3792 20.3756 37.2108 20.4872 37.0256 20.5628C36.8404 20.6384 36.6421 20.6766 36.442 20.6752H36.451Z" fill="#F8F8F8"/>
</g>
<defs>
<clipPath id="clip0_643_1467">
<rect width="45" height="45" fill="white"/>
</clipPath>
</defs>
</svg>
