<svg width="890" height="1256" viewBox="0 0 890 1256" fill="none" xmlns="http://www.w3.org/2000/svg">
<path d="M227.983 1074.1V1102.22H205.526L188.076 1255.38H83.1671L66.7566 1102.22H49.3384V1074.1H93.3078V874.085H94.6513V1074.1H136.237V666.651H137.581V1074.1H227.983Z" fill="#445ED9"/>
<path d="M457.187 1008.66L599.187 1005.57L600.787 1078.65L648.003 1123.85L459.826 1127.94C459.826 1127.94 456.019 1009.9 457.187 1008.66Z" fill="#EDDC11"/>
<path d="M493.798 538.796L617.101 1027.47L444.695 1031.54L374.062 531.231L493.798 538.796Z" fill="#445ED9"/>
<path d="M279.662 988.646L420.671 1005.78L411.857 1078.34L452.212 1129.8L265.314 1107.1C265.314 1107.1 278.334 989.686 279.662 988.646Z" fill="#EDDC11"/>
<path d="M361.458 529.967L257.525 1002.96L436.985 1021.31L493.174 539.42L361.458 529.967Z" fill="#4B6AFB"/>
<path d="M457.948 324.817C456.401 320.405 453.58 316.551 449.843 313.742C446.105 310.933 441.619 309.296 436.951 309.036C432.283 308.777 427.643 309.908 423.617 312.286C419.592 314.663 416.362 318.181 414.335 322.395C412.309 326.608 411.578 331.328 412.234 335.957C412.89 340.586 414.904 344.916 418.021 348.401C421.138 351.886 425.218 354.368 429.745 355.534C434.273 356.699 439.045 356.496 443.457 354.95C445.346 354.284 447.146 353.387 448.815 352.279C453.159 349.355 456.411 345.074 458.063 340.105C459.716 335.136 459.675 329.76 457.948 324.817ZM447.823 350.808C443.583 353.63 438.497 354.896 433.428 354.391L432.149 329.263L450.143 316.323C452.923 318.776 455.023 321.905 456.237 325.408C457.848 329.976 457.896 334.949 456.373 339.547C454.85 344.144 451.843 348.105 447.823 350.808Z" fill="#EDDC11"/>
<path d="M750.816 197.022L889.042 148.942L772.713 0L691.38 119.048L687.094 113.418L596.932 182.195L606.385 194.607C601.158 201.038 598.02 208.912 597.391 217.176C596.762 225.44 598.673 233.698 602.867 240.846C607.061 247.994 613.338 253.69 620.859 257.172C628.379 260.654 636.784 261.755 644.948 260.329C648.18 259.751 651.332 258.79 654.337 257.466L666.189 273.013L698.978 248.013L700.001 249.389L700.481 250.029L700.961 250.684L701.953 249.933L703.552 248.733C708.575 244.782 713.901 240.64 719.547 236.689L719.067 236.049L718.603 235.409L717.532 233.97L756.351 204.348L750.816 197.022ZM692.404 120.392L772.793 2.71909L886.355 148.159L749.729 195.679L692.324 120.408L692.404 120.392Z" fill="#4B6AFB"/>
<path d="M295.016 144.416L293.769 143.168C293.337 143.6 285.548 151.502 283.02 166.473C282.156 162.097 280.106 158.043 277.093 154.753C274.081 151.464 270.222 149.067 265.938 147.823L265.57 149.55C266.178 149.678 280.557 152.989 282.045 171.687H282.413C282.122 175.718 282.224 179.767 282.717 183.779L284.46 183.571C281.421 158.283 294.873 144.56 295.016 144.416Z" fill="white"/>
<path d="M378.717 354.698C393.432 366.55 411.986 376.61 435.386 383.488L435.882 381.793C363.346 360.664 337.818 308.217 329.181 267.783C329.069 267.319 328.973 266.855 328.877 266.391C323.582 239.438 323.181 211.753 327.694 184.658C336.331 178.9 398.598 136.882 391.384 125.03C390.765 124.016 389.934 123.146 388.949 122.481C387.964 121.816 386.847 121.371 385.674 121.175C371.151 118.152 338.394 139.505 329.309 145.679C334.555 131.284 357.668 65.1462 343.608 48.7996C343.016 47.9048 342.162 47.2134 341.164 46.8187C340.166 46.424 339.071 46.345 338.026 46.5924C330.701 48.6717 323.631 71.1282 318.609 92.753C321.024 71.3361 322.016 48.0639 316.338 40.0505C315.827 39.256 315.157 38.5767 314.369 38.0561C313.582 37.5356 312.694 37.1852 311.763 37.0276C310.954 36.9392 310.135 37.0171 309.356 37.2563C308.578 37.4956 307.857 37.8913 307.237 38.4191C299.623 44.2731 293.465 68.4251 289.323 90.1298C290.922 64.4264 289.834 34.6124 276.719 32.1332C275.871 31.9825 274.999 32.0235 274.169 32.2532C273.339 32.4829 272.57 32.8955 271.92 33.4607C264.211 39.5067 259.428 65.3061 256.661 87.7306C258.517 30.8056 254.982 30.3098 244.138 28.7903C243.714 28.7334 243.284 28.7714 242.877 28.9014C242.471 29.0314 242.098 29.2503 241.786 29.542C232.19 37.5394 229.103 119.256 228.991 122.727C228.879 123.415 217.283 202.172 231.646 285.585C232.445 290.255 233.245 294.846 234.253 299.372C243.13 342.35 257.861 378.706 278.11 407.576C306.133 447.563 344.84 473.154 393.176 483.775L393.56 482.047C360.563 474.785 334.06 460.822 312.755 442.764C324.799 364.966 374.286 355.385 378.717 354.698ZM311.171 441.389C263.523 400.042 242.394 337.983 233.373 285.249C218.978 202.076 230.606 123.703 230.734 122.871C231.614 99.3108 235.532 37.0915 242.922 30.8696C243.043 30.7382 243.192 30.6365 243.359 30.5727C243.525 30.5088 243.704 30.4845 243.882 30.5017C255.078 32.1012 257.685 32.4371 253.478 123.271L255.254 123.367C255.254 122.583 259.732 45.3448 273.056 34.9003C273.508 34.4935 274.047 34.1944 274.631 34.0254C275.216 33.8564 275.831 33.822 276.431 33.9246C292.633 36.9796 288.331 89.3941 285.308 114.442C284.236 121.767 283.612 126.806 283.532 127.589L285.276 127.829C285.42 126.998 286.22 121.863 287.131 114.394C290.442 91.6653 298.184 47.6 308.26 39.7786C308.693 39.3958 309.202 39.1071 309.752 38.9309C310.303 38.7547 310.884 38.6948 311.459 38.755C312.152 38.8743 312.811 39.14 313.393 39.5344C313.975 39.9288 314.467 40.4429 314.834 41.0422C322.591 51.9826 316.929 95.0882 313.123 118.456C311.523 126.902 310.563 132.852 310.435 133.731L312.179 134.051C312.339 133.155 313.602 126.694 315.106 117.497C320.288 90.3058 329.693 50.735 338.442 48.2558C339.706 47.9039 340.937 48.4477 342.217 49.8553C356.996 67.0335 326.926 146.783 326.622 147.599L325.582 150.302L327.95 148.702C328.365 148.414 369.408 119.592 385.243 122.887C386.176 123.03 387.068 123.373 387.858 123.892C388.647 124.41 389.315 125.093 389.817 125.894C394.615 133.891 354.517 164.617 326.35 183.331L326.046 183.539V183.891C321.333 211.809 321.815 240.359 327.47 268.102C333.308 295.373 346.791 328.13 376.957 353.242C367.217 355.305 322.847 368.741 311.171 441.389V441.389Z" fill="white"/>
<path d="M156.519 655.934C156.551 658.735 155.932 661.506 154.711 664.027C154.456 664.539 154.184 665.035 153.88 665.531C152.89 667.133 151.654 668.568 150.217 669.785C149.788 670.178 149.328 670.537 148.841 670.857C145.915 672.919 142.446 674.074 138.868 674.176C135.289 674.279 131.76 673.324 128.72 671.433C128.165 671.069 127.631 670.674 127.121 670.249C124.955 668.544 123.205 666.37 122.003 663.89C120.8 661.41 120.177 658.69 120.179 655.934C120.179 655.582 120.179 655.246 120.179 654.894C120.205 654.326 120.264 653.76 120.355 653.199C120.756 650.532 121.745 647.988 123.25 645.75C124.754 643.512 126.738 641.637 129.056 640.259C129.552 639.971 130.064 639.683 130.655 639.443C134.771 637.504 139.462 637.17 143.811 638.507C148.16 639.844 151.853 642.756 154.168 646.673C154.501 647.225 154.8 647.796 155.063 648.384C156.086 650.767 156.582 653.342 156.519 655.934V655.934Z" fill="#FE1D00"/>
<path d="M147.354 657.869C149.849 660.173 152.264 662.204 154.631 664.027C154.375 664.539 154.103 665.035 153.8 665.531C151.288 663.628 148.809 661.532 146.17 659.133C144.763 660.573 143.291 661.948 141.788 663.212C144.692 665.25 147.48 667.45 150.137 669.801C149.707 670.195 149.247 670.553 148.761 670.873C146.11 668.536 143.328 666.352 140.428 664.331C136.841 667.229 132.875 669.624 128.64 671.449C128.085 671.085 127.551 670.69 127.04 670.265C131.343 668.541 135.373 666.203 139.005 663.324C133.28 659.39 126.883 656.538 120.131 654.91C120.157 654.342 120.216 653.776 120.307 653.215C127.483 654.916 134.272 657.961 140.316 662.188C141.931 660.864 143.464 659.443 144.907 657.933C139.142 652.448 133.796 646.541 128.912 640.259C129.408 639.972 129.92 639.684 130.511 639.444C135.294 645.568 140.517 651.336 146.138 656.702C149.019 653.565 151.655 650.213 154.023 646.673C154.357 647.225 154.656 647.796 154.919 648.385C152.628 651.723 150.099 654.893 147.354 657.869V657.869Z" fill="white"/>
<path d="M118.515 637.012C118.515 637.012 35.663 597.489 72.9145 582.278C110.166 567.067 118.515 637.012 118.515 637.012Z" fill="#E7DB4C"/>
<path d="M136.685 633.158C136.685 633.158 102.521 547.938 140.22 561.997C177.92 576.057 136.685 633.158 136.685 633.158Z" fill="#E7DB4C"/>
<path d="M499.284 514.292C495.014 514.82 379.324 501.017 350.822 497.594L344.52 496.826L351.35 486.302L387.85 430.048L396.471 416.789L425.629 371.86L448.277 375.379C448.277 375.379 452.068 384.783 457.618 398.715C458.882 401.914 460.241 405.321 461.665 408.951C467.375 423.347 474.157 440.717 480.411 457.111C482.698 463.173 484.953 469.123 487.032 474.705C495.222 496.922 500.98 514.068 499.284 514.292Z" fill="#EDDC11"/>
<path d="M156.695 640.291C156.695 640.291 191.003 555.135 208.485 591.363C225.967 627.591 156.695 640.291 156.695 640.291Z" fill="#E7DB4C"/>
<path d="M113.669 654.159C113.669 654.159 36.8948 704.542 43.2127 664.811C49.5306 625.08 113.669 654.159 113.669 654.159Z" fill="#E7DB4C"/>
<path d="M166.611 655.39C166.611 655.39 257.973 646.321 233.981 678.614C209.989 710.907 166.611 655.39 166.611 655.39Z" fill="#E7DB4C"/>
<path d="M139.388 681.285C139.388 681.285 173.409 766.553 135.726 752.446C98.0421 738.338 139.388 681.285 139.388 681.285Z" fill="#E7DB4C"/>
<path d="M119.267 674.424C119.267 674.424 82.4794 758.492 66.0209 721.752C49.5624 685.012 119.267 674.424 119.267 674.424Z" fill="#E7DB4C"/>
<path d="M765.419 236.465C764.652 235.713 763.82 234.866 762.924 233.938C756.798 227.54 747.521 218.039 738.341 223.014C733.254 225.765 728.168 228.852 723.21 232.147C721.61 233.218 720.011 234.306 718.491 235.346C712.893 239.312 707.551 243.455 702.497 247.422L700.897 248.589L699.921 249.325C695.123 253.036 686.806 259.593 684.439 265.576C679.612 270.641 675.323 276.195 671.643 282.146C657.237 297.834 641.296 312.038 624.059 324.548C620.764 327 617.314 329.448 613.71 331.889C581.017 354.106 529.69 380.193 470.174 379.074H468.079V379.873V380.673C470.014 380.673 471.949 380.753 473.869 380.753C487.805 380.729 501.704 379.314 515.359 376.53L515.007 377.138C515.423 377.394 556.081 402.202 548.836 468.116C530.278 472.676 511.16 474.54 492.071 473.65L491.991 475.249C495.19 475.409 498.389 475.489 501.588 475.489C570.157 475.489 629.769 438.494 668.364 406.632C694.682 384.909 718.404 360.221 739.06 333.057C740.381 333.406 741.741 333.578 743.107 333.569C749.329 333.569 756.271 330.37 762.301 327.171C771.481 322.261 785.365 314.839 790.883 302.459C800.256 281.426 783.03 253.739 765.419 236.465ZM731.831 288.016L729.847 289.615C721.45 296.093 715.34 299.036 711.342 298.54C708.031 298.141 706.447 295.342 704.944 292.75C704.528 292.015 704.128 291.311 703.68 290.655C702.081 288.208 704.8 283.25 709.918 277.188C714.649 280.274 719.821 282.626 725.257 284.161L725.993 284.385C727.592 284.865 728.952 285.345 730.295 285.793L733.062 286.688L731.831 288.016ZM735.03 329.202C734.769 328.973 734.566 328.686 734.438 328.363C734.31 328.041 734.261 327.692 734.294 327.347C734.294 323.828 739.092 317.75 745.634 310.92C746.914 309.593 748.273 308.233 749.681 306.858C754.479 303.419 759.134 299.612 763.42 295.981C772.825 287.984 780.135 280.786 780.886 279.987L779.831 278.787C779.047 279.395 770.986 285.649 761.741 293.662C757.518 297.309 753.056 301.324 748.945 305.338C747.346 306.538 745.746 307.673 744.147 308.745C734.694 315.143 726.201 318.982 722.154 316.279C721.404 315.809 720.784 315.159 720.35 314.388C719.917 313.617 719.685 312.749 719.675 311.864C719.419 306.618 724.473 298.956 731.143 291.215L733.046 289.056C733.771 288.48 734.507 287.872 735.254 287.232C741.124 288.832 745.554 288.464 750.001 281.106C750.456 280.383 750.699 279.546 750.704 278.691V278.691C750.634 277.198 750.071 275.769 749.105 274.628C752.912 270.934 757.102 266.711 761.741 261.913L760.653 260.745C760.013 261.257 754.255 265.959 747.186 272.501C746.304 271.688 745.369 270.934 744.387 270.246C738.592 266.4 732.316 263.335 725.721 261.129C728.056 259.002 730.519 256.89 732.87 254.827C737.381 250.972 741.923 247.278 746.098 244.047L746.018 243.935L746.306 243.695L745.81 243.087L745.314 242.479C740.388 246.489 735.883 250.125 731.799 253.388C728.674 255.883 725.769 258.159 723.082 260.217C717.24 258.199 711.187 256.852 705.04 256.203C702.39 255.862 699.7 256.047 697.122 256.746C694.041 257.904 691.196 259.611 688.725 261.785C692.389 257.657 696.492 253.94 700.961 250.7L701.953 249.949L703.552 248.749C708.574 244.798 713.901 240.656 719.547 236.705C721.146 235.617 722.634 234.546 724.217 233.506C729.128 230.227 734.166 227.108 739.22 224.453C747.33 220.055 755.743 228.74 761.901 235.09C762.78 236.001 763.628 236.881 764.412 237.633C781.654 254.555 798.56 281.554 789.475 301.931C784.565 312.904 773.481 319.525 761.597 325.923C752.784 330.498 741.923 335.088 735.014 329.202H735.03ZM667.34 405.433C638.55 429.265 597.827 455.96 550.499 467.812C557.025 406.376 522.333 380.225 516.622 376.37C556.609 368.085 590.662 349.659 614.702 333.329C619.836 329.842 624.682 326.339 629.225 322.884C645.023 311.056 659.66 297.753 672.938 283.154C676.144 278.027 679.783 273.184 683.815 268.678L684.678 267.735L685.766 266.615C689.445 262.872 693.555 259.594 697.57 258.234C700.4 257.526 703.345 257.406 706.223 257.882V257.882C711.405 258.564 716.51 259.742 721.466 261.401L722.394 261.689L723.513 262.073L724.313 262.345C733.126 265.432 741.571 269.638 745.906 273.637L746.498 274.229C746.802 274.533 747.09 274.852 747.346 275.156L747.426 275.252C747.569 275.444 747.713 275.62 747.825 275.796C749.057 277.54 749.281 278.995 748.481 280.355C744.85 286.353 741.427 287.136 736.581 286.033L735.669 285.809L736.005 285.505L735.653 285.809L735.014 285.617L734.134 285.361C733.062 285.041 731.911 284.657 730.679 284.241C729.08 283.713 727.48 283.154 725.593 282.642L724.265 282.226C719.52 280.783 715.006 278.666 710.862 275.94L710.206 275.508L709.55 275.028C709.267 274.837 708.999 274.623 708.75 274.389L708.127 273.829L685.206 302.283L685.83 302.779L686.454 303.291L708.335 276.1L708.526 276.244C703.184 282.642 700.113 288.384 702.225 291.535C702.64 292.159 703.04 292.83 703.44 293.534C705.04 296.381 706.927 299.612 711.038 300.108C713.885 300.476 718.331 299.708 727.032 293.582C721.562 300.476 717.707 307.13 717.947 312.008C717.968 313.145 718.271 314.26 718.83 315.251C719.388 316.242 720.184 317.079 721.146 317.686C725.545 320.645 733.846 317.254 742.883 311.48C736.965 317.878 732.71 323.652 732.63 327.331C732.591 327.913 732.687 328.497 732.912 329.035C733.137 329.574 733.484 330.053 733.926 330.434C734.973 331.325 736.156 332.043 737.429 332.561C716.91 359.435 693.395 383.883 667.34 405.433Z" fill="white"/>
<path d="M113.621 863.369C113.627 866.19 112.97 868.974 111.702 871.494C111.455 872.003 111.183 872.5 110.886 872.982C109.906 874.567 108.681 875.987 107.255 877.188C106.824 877.567 106.37 877.92 105.896 878.244C102.947 880.338 99.4405 881.505 95.825 881.596C92.2095 881.687 88.649 880.698 85.5983 878.756C85.0388 878.404 84.5043 878.014 83.9989 877.588C81.8604 875.887 80.1339 873.724 78.9485 871.262C77.7631 868.8 77.1494 866.102 77.1532 863.369C77.1532 863.017 77.1532 862.665 77.1532 862.313C77.1532 861.737 77.2491 861.178 77.3291 860.618C77.7304 857.967 78.7091 855.437 80.1961 853.207C81.6831 850.976 83.6419 849.1 85.9342 847.71C86.4252 847.415 86.9325 847.148 87.4537 846.91C89.9016 845.725 92.5873 845.112 95.3071 845.119C98.46 845.119 101.559 845.935 104.303 847.488C107.047 849.041 109.343 851.277 110.966 853.98C111.287 854.53 111.581 855.096 111.846 855.675C113.001 858.076 113.608 860.704 113.621 863.369Z" fill="#FE1D00"/>
<path d="M104.312 865.256C106.856 867.607 109.287 869.638 111.702 871.494C111.455 872.003 111.183 872.5 110.886 872.981C108.359 871.078 105.816 868.935 103.145 866.487C101.737 867.927 100.282 869.271 98.8102 870.518C101.756 872.57 104.577 874.797 107.255 877.188C106.824 877.567 106.37 877.92 105.896 878.244C103.22 875.871 100.405 873.66 97.4667 871.622C93.8573 874.534 89.8637 876.934 85.5986 878.755C85.0391 878.404 84.5046 878.014 83.9992 877.588C88.3213 875.867 92.3683 873.523 96.0111 870.63C90.3149 866.698 83.9279 863.876 77.1854 862.313V862.313C77.1854 861.737 77.2814 861.177 77.3614 860.617C84.5456 862.279 91.3404 865.315 97.3707 869.558C98.9603 868.229 100.482 866.819 101.929 865.336C96.2019 859.867 90.8828 853.987 86.0145 847.742C86.5055 847.447 87.0128 847.18 87.534 846.942C92.2913 853.049 97.493 858.796 103.097 864.136C106.036 860.987 108.711 857.601 111.094 854.012C111.416 854.562 111.709 855.127 111.974 855.707C109.667 859.081 107.106 862.273 104.312 865.256V865.256Z" fill="white"/>
<path d="M75.6179 844.431C75.6179 844.431 -7.23445 804.908 29.9531 789.713C67.1407 774.518 75.6179 844.431 75.6179 844.431Z" fill="#EDDC11"/>
<path d="M93.7716 840.576C93.7716 840.576 59.623 755.373 97.3065 769.432C134.99 783.491 93.7716 840.576 93.7716 840.576Z" fill="#EDDC11"/>
<path d="M113.781 847.71C113.781 847.71 148.09 762.57 165.588 798.798C183.086 835.026 113.781 847.71 113.781 847.71Z" fill="#EDDC11"/>
<path d="M70.7553 861.561C70.7553 861.561 -6.01911 911.944 0.378754 872.197C6.77662 832.451 70.7553 861.561 70.7553 861.561Z" fill="#EDDC11"/>
<path d="M123.714 862.825C123.714 862.825 215.059 853.74 191.067 886.033C167.075 918.326 123.714 862.825 123.714 862.825Z" fill="#EDDC11"/>
<path d="M96.4906 888.752C96.4906 888.752 130.495 974.02 92.8279 959.897C55.1604 945.773 96.4906 888.752 96.4906 888.752Z" fill="#EDDC11"/>
<path d="M76.3374 881.826C76.3374 881.826 39.5496 965.894 23.1071 929.138C6.6646 892.383 76.3374 881.826 76.3374 881.826Z" fill="#EDDC11"/>
<path d="M119.011 886.689C119.011 886.689 203.223 923.236 166.548 939.759C129.872 956.281 119.011 886.689 119.011 886.689Z" fill="#EDDC11"/>
<path d="M161.909 679.222C161.909 679.222 246.137 715.77 209.445 732.293C172.753 748.815 161.909 679.222 161.909 679.222Z" fill="#EDDC11"/>
<path d="M427.26 294.542C459.167 294.542 485.033 268.676 485.033 236.769C485.033 204.862 459.167 178.996 427.26 178.996C395.353 178.996 369.488 204.862 369.488 236.769C369.488 268.676 395.353 294.542 427.26 294.542Z" fill="#4B6AFB"/>
</svg>
