<svg width="400" height="400" viewBox="0 0 400 400" fill="none" xmlns="http://www.w3.org/2000/svg">
<mask id="mask0_221_7644" style="mask-type:alpha" maskUnits="userSpaceOnUse" x="0" y="0" width="400" height="400">
<rect width="400" height="400" fill="#C4C4C4"/>
</mask>
<g mask="url(#mask0_221_7644)">
<mask id="mask1_221_7644" style="mask-type:alpha" maskUnits="userSpaceOnUse" x="-144" y="0" width="847" height="480">
<rect x="-144" width="846.208" height="479.077" fill="#C4C4C4"/>
</mask>
<g mask="url(#mask1_221_7644)">
<path d="M657.212 421.946C710.953 643.943 446.508 384.087 135.496 470.574C-175.516 557.061 -145.341 167.31 -53.4492 33.0674C38.4426 -101.175 272.022 -122.947 468.266 -15.561C664.509 91.8248 603.47 199.948 657.212 421.946Z" fill="url(#paint0_linear_221_7644)"/>
</g>
<path d="M60.648 116.171H49.887V114.59H62.399V121.22H60.648V116.171ZM63.436 124.025H56.959V129.108H55.225V124.025H48.935V122.427H63.436V124.025ZM79.2445 114.25V128.768H77.6465V121.696H75.2835V128.513H73.6855V114.335H75.2835V120.098H77.6465V114.25H79.2445ZM65.7295 114.777H71.9515V127.901H65.7295V114.777ZM67.3275 126.371H70.3705V116.307H67.3275V126.371ZM93.5571 114.25H95.2401V128.768H93.5571V114.25ZM86.6211 123.702C85.7597 123.702 84.9891 123.509 84.3091 123.124C83.6291 122.739 83.0964 122.2 82.7111 121.509C82.3257 120.806 82.1331 120.013 82.1331 119.129C82.1331 118.245 82.3257 117.457 82.7111 116.766C83.0964 116.063 83.6291 115.519 84.3091 115.134C84.9891 114.749 85.7597 114.556 86.6211 114.556C87.4824 114.556 88.2531 114.749 88.9331 115.134C89.6131 115.519 90.1457 116.063 90.5311 116.766C90.9164 117.457 91.1091 118.245 91.1091 119.129C91.1091 120.013 90.9164 120.806 90.5311 121.509C90.1457 122.2 89.6131 122.739 88.9331 123.124C88.2531 123.509 87.4824 123.702 86.6211 123.702ZM86.6211 122.172C87.1877 122.172 87.6807 122.042 88.1001 121.781C88.5307 121.509 88.8651 121.146 89.1031 120.693C89.3411 120.228 89.4601 119.707 89.4601 119.129C89.4601 118.551 89.3411 118.03 89.1031 117.565C88.8651 117.1 88.5307 116.738 88.1001 116.477C87.6694 116.205 87.1764 116.069 86.6211 116.069C86.0544 116.069 85.5557 116.205 85.1251 116.477C84.6944 116.738 84.3601 117.1 84.1221 117.565C83.8954 118.03 83.7821 118.551 83.7821 119.129C83.7821 120.013 84.0427 120.744 84.5641 121.322C85.0854 121.889 85.7711 122.172 86.6211 122.172ZM81.6401 126.32H87.5731C88.5931 126.32 89.5224 126.263 90.3611 126.15C91.1997 126.037 91.8571 125.867 92.3331 125.64V127.204C91.8457 127.419 91.1771 127.589 90.3271 127.714C89.4771 127.839 88.5251 127.901 87.4711 127.901H81.6401V126.32ZM114.623 114.25H116.306V128.768H114.623V114.25ZM103.437 126.269C104.741 126.269 105.868 125.946 106.82 125.3C107.784 124.643 108.515 123.719 109.013 122.529C109.523 121.328 109.778 119.922 109.778 118.313V116.324H103.437V114.777H111.495V118.279C111.495 120.206 111.167 121.894 110.509 123.345C109.863 124.784 108.928 125.901 107.704 126.694C106.492 127.476 105.069 127.867 103.437 127.867V126.269ZM125.876 120.132H119.994V114.335H121.524V115.882H124.414V114.335H125.876V120.132ZM132.727 120.132H126.845V114.335H128.307V115.882H131.197V114.335H132.727V120.132ZM124.414 118.806V117.174H121.524V118.806H124.414ZM131.197 118.806V117.174H128.307V118.806H131.197ZM133.611 121.305V122.648H119.11V121.305H133.611ZM120.113 123.923H132.591V128.598H120.113V123.923ZM121.796 127.289H130.925V125.232H121.796V127.289ZM147.328 114.25H149.028V128.768H147.328V114.25ZM140.477 128.088C139.593 128.088 138.823 127.839 138.165 127.34C137.508 126.853 136.992 126.105 136.618 125.096C136.256 124.087 136.074 122.835 136.074 121.339C136.074 119.843 136.256 118.591 136.618 117.582C136.992 116.573 137.508 115.825 138.165 115.338C138.823 114.839 139.593 114.59 140.477 114.59C141.35 114.59 142.115 114.839 142.772 115.338C143.43 115.825 143.94 116.573 144.302 117.582C144.676 118.591 144.863 119.843 144.863 121.339C144.863 122.835 144.676 124.087 144.302 125.096C143.94 126.105 143.43 126.853 142.772 127.34C142.115 127.839 141.35 128.088 140.477 128.088ZM140.477 126.541C141.282 126.541 141.934 126.116 142.432 125.266C142.931 124.405 143.18 123.096 143.18 121.339C143.18 119.594 142.931 118.29 142.432 117.429C141.934 116.568 141.282 116.137 140.477 116.137C139.661 116.137 139.004 116.568 138.505 117.429C138.007 118.279 137.757 119.582 137.757 121.339C137.757 123.096 138.001 124.405 138.488 125.266C138.987 126.116 139.65 126.541 140.477 126.541ZM171.761 121.747H169.721V128.768H168.038V114.25H169.721V120.132H171.761V121.747ZM163.023 126.337C163.714 126.337 164.4 126.28 165.08 126.167C165.771 126.042 166.338 125.878 166.78 125.674V127.204C166.349 127.419 165.788 127.589 165.097 127.714C164.405 127.839 163.703 127.901 162.989 127.901H157.26V114.692H158.977V126.337H163.023ZM186.566 119.367H173.969V114.25H175.669V118.024H186.566V119.367ZM181.007 122.07V123.617H186.43V128.598H173.918V123.617H179.341V122.07H172.932V120.71H187.433V122.07H181.007ZM184.764 124.96H175.601V127.255H184.764V124.96ZM201.202 114.25H202.885V128.768H201.202V114.25ZM194.266 123.702C193.404 123.702 192.634 123.509 191.954 123.124C191.274 122.739 190.741 122.2 190.356 121.509C189.97 120.806 189.778 120.013 189.778 119.129C189.778 118.245 189.97 117.457 190.356 116.766C190.741 116.063 191.274 115.519 191.954 115.134C192.634 114.749 193.404 114.556 194.266 114.556C195.127 114.556 195.898 114.749 196.578 115.134C197.258 115.519 197.79 116.063 198.176 116.766C198.561 117.457 198.754 118.245 198.754 119.129C198.754 120.013 198.561 120.806 198.176 121.509C197.79 122.2 197.258 122.739 196.578 123.124C195.898 123.509 195.127 123.702 194.266 123.702ZM194.266 122.172C194.832 122.172 195.325 122.042 195.745 121.781C196.175 121.509 196.51 121.146 196.748 120.693C196.986 120.228 197.105 119.707 197.105 119.129C197.105 118.551 196.986 118.03 196.748 117.565C196.51 117.1 196.175 116.738 195.745 116.477C195.314 116.205 194.821 116.069 194.266 116.069C193.699 116.069 193.2 116.205 192.77 116.477C192.339 116.738 192.005 117.1 191.767 117.565C191.54 118.03 191.427 118.551 191.427 119.129C191.427 120.013 191.687 120.744 192.209 121.322C192.73 121.889 193.416 122.172 194.266 122.172ZM189.285 126.32H195.218C196.238 126.32 197.167 126.263 198.006 126.15C198.844 126.037 199.502 125.867 199.978 125.64V127.204C199.49 127.419 198.822 127.589 197.972 127.714C197.122 127.839 196.17 127.901 195.116 127.901H189.285V126.32ZM222.268 114.25H223.951V128.768H222.268V114.25ZM211.082 126.269C212.385 126.269 213.513 125.946 214.465 125.3C215.428 124.643 216.159 123.719 216.658 122.529C217.168 121.328 217.423 119.922 217.423 118.313V116.324H211.082V114.777H219.14V118.279C219.14 120.206 218.811 121.894 218.154 123.345C217.508 124.784 216.573 125.901 215.349 126.694C214.136 127.476 212.714 127.867 211.082 127.867V126.269ZM233.52 120.132H227.638V114.335H229.168V115.882H232.058V114.335H233.52V120.132ZM240.371 120.132H234.489V114.335H235.951V115.882H238.841V114.335H240.371V120.132ZM232.058 118.806V117.174H229.168V118.806H232.058ZM238.841 118.806V117.174H235.951V118.806H238.841ZM241.255 121.305V122.648H226.754V121.305H241.255ZM227.757 123.923H240.235V128.598H227.757V123.923ZM229.44 127.289H238.569V125.232H229.44V127.289ZM250.349 123.77C249.046 123.77 247.901 123.583 246.915 123.209C245.929 122.824 245.164 122.285 244.62 121.594C244.087 120.891 243.821 120.081 243.821 119.163C243.821 118.245 244.087 117.44 244.62 116.749C245.164 116.046 245.929 115.508 246.915 115.134C247.901 114.749 249.046 114.556 250.349 114.556C251.652 114.556 252.797 114.749 253.783 115.134C254.769 115.508 255.528 116.046 256.061 116.749C256.605 117.44 256.877 118.245 256.877 119.163C256.877 120.081 256.605 120.891 256.061 121.594C255.528 122.285 254.769 122.824 253.783 123.209C252.797 123.583 251.652 123.77 250.349 123.77ZM250.349 122.24C251.29 122.24 252.117 122.115 252.831 121.866C253.556 121.605 254.117 121.243 254.514 120.778C254.911 120.302 255.109 119.764 255.109 119.163C255.109 118.562 254.911 118.03 254.514 117.565C254.117 117.089 253.556 116.726 252.831 116.477C252.117 116.216 251.29 116.086 250.349 116.086C249.408 116.086 248.575 116.216 247.85 116.477C247.136 116.726 246.581 117.089 246.184 117.565C245.787 118.03 245.589 118.562 245.589 119.163C245.589 119.764 245.787 120.302 246.184 120.778C246.581 121.243 247.136 121.605 247.85 121.866C248.575 122.115 249.408 122.24 250.349 122.24ZM243.107 126.49H257.608V128.071H243.107V126.49ZM273.96 126.524V128.071H259.459V126.524H265.817V123.787H260.428V118.551H271.342V116.273H260.428V114.777H273.008V119.996H262.111V122.291H273.229V123.787H267.534V126.524H273.96Z" fill="white"/>
<path d="M74.24 177.216H69.92V191.328H68.576V164H69.92V175.968H74.24V177.216ZM56.192 166.528C56.1493 170.389 55.8293 173.803 55.232 176.768L64.8 188.288L63.744 189.088L54.912 178.304C54.1227 181.483 53.0027 184.021 51.552 185.92C50.1013 187.819 48.3627 188.981 46.336 189.408V188.128C48.128 187.701 49.6533 186.507 50.912 184.544C52.192 182.56 53.152 180.021 53.792 176.928C54.4533 173.813 54.8053 170.347 54.848 166.528H46.88V165.28H64.032V166.528H56.192ZM85.9812 166.176H76.7972V164.928H87.3253V176.992H85.9812V166.176ZM98.6853 166.176H89.9172V164.928H100.029V176.992H98.6853V166.176ZM102.077 181.184H89.0852V191.968H87.7413V181.184H75.0692V179.84H102.077V181.184ZM139.971 177.216H135.651V191.328H134.307V164H135.651V175.968H139.971V177.216ZM121.923 166.528C121.881 170.389 121.561 173.803 120.963 176.768L130.531 188.288L129.475 189.088L120.643 178.304C119.854 181.483 118.734 184.021 117.283 185.92C115.833 187.819 114.094 188.981 112.067 189.408V188.128C113.859 187.701 115.385 186.507 116.643 184.544C117.923 182.56 118.883 180.021 119.523 176.928C120.185 173.813 120.537 170.347 120.579 166.528H112.611V165.28H129.763V166.528H121.923ZM151.712 166.176H142.528V164.928H153.056V176.992H151.712V166.176ZM164.417 166.176H155.648V164.928H165.76V176.992H164.417V166.176ZM167.809 181.184H154.816V191.968H153.472V181.184H140.8V179.84H167.809V181.184ZM203.078 177.984H179.11V164.672H202.758V167.584H182.342V175.072H203.078V177.984ZM204.518 184.192H192.454V191.968H189.222V184.192H177.222V181.184H204.518V184.192ZM232.068 174.56H208.356V164.32H231.748V166.912H211.524V171.968H232.068V174.56ZM221.604 179.872V182.848H231.78V191.36H228.58V185.472H208.068V182.848H218.468V179.872H206.404V177.248H233.7V179.872H221.604ZM243.841 168.256H249.569V171.104H234.977V168.256H240.705V163.936H243.841V168.256ZM261.857 164V191.328H258.913V177.984H254.529V190.848H251.585V164.16H254.529V175.008H258.913V164H261.857ZM242.401 173.248C243.638 173.248 244.737 173.579 245.697 174.24C246.657 174.88 247.404 175.829 247.937 177.088C248.492 178.347 248.769 179.861 248.769 181.632C248.769 183.403 248.492 184.917 247.937 186.176C247.404 187.435 246.657 188.384 245.697 189.024C244.737 189.685 243.638 190.016 242.401 190.016C241.164 190.016 240.065 189.685 239.105 189.024C238.166 188.384 237.42 187.435 236.865 186.176C236.332 184.917 236.065 183.403 236.065 181.632C236.065 179.861 236.332 178.347 236.865 177.088C237.42 175.829 238.166 174.88 239.105 174.24C240.065 173.579 241.164 173.248 242.401 173.248ZM242.401 187.232C243.425 187.232 244.257 186.741 244.897 185.76C245.537 184.757 245.857 183.381 245.857 181.632C245.857 179.883 245.537 178.517 244.897 177.536C244.257 176.533 243.425 176.032 242.401 176.032C241.398 176.032 240.577 176.533 239.937 177.536C239.318 178.517 239.009 179.883 239.009 181.632C239.009 183.381 239.318 184.757 239.937 185.76C240.577 186.741 241.398 187.232 242.401 187.232ZM290.27 164V191.328H287.102V164H290.27ZM276.446 167.904C276.425 170.933 276.137 173.813 275.582 176.544L284.51 187.584L282.014 189.472L274.654 180.096C273.716 182.955 272.446 185.216 270.846 186.88C269.268 188.523 267.444 189.461 265.374 189.696V186.56C266.974 186.261 268.35 185.28 269.502 183.616C270.676 181.952 271.582 179.765 272.222 177.056C272.862 174.347 273.204 171.296 273.246 167.904H266.014V164.992H283.454V167.904H276.446ZM295.9 164H299.1V171.776H319.548V174.592H295.9V164ZM293.948 177.6H321.244V180.416H293.948V177.6ZM295.836 182.848H299.068V188.192H319.836V191.008H295.836V182.848ZM70.688 236.328H69.344V209H70.688V236.328ZM62.048 216.2C62.048 219.805 61.4613 222.973 60.288 225.704C59.1147 228.435 57.4187 230.547 55.2 232.04C53.0027 233.533 50.4 234.28 47.392 234.28V233C50.08 233 52.4267 232.328 54.432 230.984C56.4373 229.619 57.984 227.677 59.072 225.16C60.16 222.643 60.704 219.699 60.704 216.328V211.528H47.392V210.28H62.048V216.2ZM99.9013 223.304H77.2452V209.64H78.5893V214.6H98.5573V209.64H99.9013V223.304ZM98.5573 222.056V215.848H78.5893V222.056H98.5573ZM102.077 228.104H89.2453V236.968H87.9012V228.104H75.0692V226.856H102.077V228.104ZM131.259 233.416V234.728H104.25V233.416H117.019V225.672H105.818V224.424H111.226V211.848H106.106V210.6H129.403V211.848H124.283V224.424H129.691V225.672H118.458V233.416H131.259ZM112.57 224.424H122.938V211.848H112.57V224.424ZM158.232 229.352H156.888V209H158.232V229.352ZM142.392 209.48C144.12 209.48 145.613 209.821 146.872 210.504C148.152 211.187 149.122 212.115 149.784 213.288C150.445 214.461 150.776 215.773 150.776 217.224C150.776 218.675 150.445 219.987 149.784 221.16C149.122 222.333 148.152 223.261 146.872 223.944C145.613 224.627 144.12 224.968 142.392 224.968C140.664 224.968 139.16 224.627 137.88 223.944C136.621 223.261 135.661 222.333 135 221.16C134.338 219.987 134.008 218.675 134.008 217.224C134.008 215.773 134.338 214.461 135 213.288C135.661 212.115 136.621 211.187 137.88 210.504C139.16 209.821 140.664 209.48 142.392 209.48ZM142.392 210.664C141.005 210.664 139.778 210.941 138.712 211.496C137.645 212.029 136.824 212.797 136.248 213.8C135.672 214.781 135.384 215.923 135.384 217.224C135.384 218.525 135.672 219.677 136.248 220.68C136.824 221.661 137.645 222.429 138.712 222.984C139.778 223.517 141.005 223.784 142.392 223.784C143.778 223.784 145.005 223.517 146.072 222.984C147.138 222.429 147.96 221.661 148.536 220.68C149.112 219.677 149.4 218.525 149.4 217.224C149.4 215.923 149.112 214.781 148.536 213.8C147.96 212.797 147.138 212.029 146.072 211.496C145.005 210.941 143.778 210.664 142.392 210.664ZM137.72 234.44H159.256V235.688H136.376V227.272H137.72V234.44ZM188.117 227.112H164.725V210.28H187.605V211.528H166.069V218.056H187.349V219.304H166.069V225.864H188.117V227.112ZM189.621 233.48V234.728H162.613V233.48H189.621ZM193.106 239.336H191.922L192.818 233.128H194.29L193.106 239.336ZM232.324 223.112H228.484V236.328H225.316V209H228.484V220.072H232.324V223.112ZM215.012 212.904C214.99 216.061 214.713 218.952 214.18 221.576L222.948 232.584L220.452 234.472L213.252 225.16C212.313 227.997 211.054 230.237 209.476 231.88C207.918 233.523 206.116 234.461 204.068 234.696V231.56C205.646 231.261 207.012 230.28 208.164 228.616C209.316 226.952 210.201 224.765 210.82 222.056C211.438 219.347 211.769 216.296 211.812 212.904H204.708V209.992H221.892V212.904H215.012ZM258.785 222.984H234.817V209.672H258.465V212.584H238.049V220.072H258.785V222.984ZM260.225 229.192H248.161V236.968H244.929V229.192H232.929V226.184H260.225V229.192Z" fill="white"/>
<g clip-path="url(#clip0_221_7644)">
<path d="M71.4258 373H66.4954C66.2493 372.999 66.0067 372.941 65.7875 372.829C65.5682 372.716 65.3783 372.554 65.2333 372.354C65.0883 372.155 64.9922 371.924 64.9528 371.68C64.9134 371.436 64.9319 371.187 65.0066 370.952C69.5542 356.725 66.333 342.242 66.2982 342.11C66.2054 341.704 66.2771 341.278 66.4975 340.925C66.718 340.572 67.0692 340.321 67.4738 340.228C67.8784 340.135 68.3032 340.207 68.655 340.428C69.0067 340.649 69.2564 341.002 69.3493 341.408C69.4846 342.001 72.5086 355.522 68.5759 369.861H71.4104C71.8252 369.861 72.2231 370.027 72.5165 370.321C72.8098 370.615 72.9746 371.014 72.9746 371.431C72.9746 371.847 72.8098 372.246 72.5165 372.54C72.2231 372.835 71.8252 373 71.4104 373H71.4258Z" fill="#B4FFC6"/>
<path d="M94.508 365.047H94.4152C94.2092 365.038 94.007 364.988 93.8207 364.9C93.6343 364.811 93.4674 364.686 93.3297 364.532C93.1921 364.378 93.0866 364.198 93.0193 364.003C92.952 363.807 92.9243 363.6 92.9379 363.394L93.1119 360.372C93.1673 359.47 93.497 358.608 94.0564 357.9C94.6158 357.192 95.3781 356.674 96.2404 356.415C99.2992 355.495 104.272 354.925 104.485 354.901H104.558C106.152 354.793 110.684 354.063 112.435 352.019C112.684 351.744 112.872 351.419 112.987 351.066C113.101 350.713 113.14 350.34 113.1 349.97C112.667 344.838 101.225 343.433 97.2457 343.344C96.8309 343.34 96.4347 343.17 96.1443 342.873C95.8538 342.576 95.6929 342.175 95.697 341.759C95.7011 341.343 95.8699 340.945 96.1662 340.654C96.4624 340.362 96.8618 340.201 97.2767 340.205H97.3115C100.272 340.313 103.215 340.712 106.097 341.396C110.483 342.483 115.796 344.806 116.21 349.707C116.281 350.492 116.192 351.284 115.949 352.035C115.706 352.785 115.313 353.478 114.794 354.071C113.514 355.565 111.411 356.686 108.545 357.404C107.315 357.712 106.062 357.922 104.798 358.032C104.38 358.079 99.8019 358.622 97.1298 359.425C96.882 359.5 96.6628 359.649 96.5018 359.852C96.3407 360.055 96.2454 360.303 96.2288 360.562L96.0509 363.584C96.0282 363.979 95.8558 364.351 95.5689 364.623C95.2821 364.895 94.9026 365.046 94.508 365.047V365.047Z" fill="#B4FFC6"/>
<path d="M31.9826 338.517C30.4841 338.515 28.9921 338.319 27.5433 337.935C23.9779 336.95 21.7428 334.832 21.1434 331.84C20.1457 327.026 24.5811 323.282 28.4907 320.977C31.0579 319.498 33.7636 318.275 36.5689 317.327C36.9637 317.199 37.3929 317.234 37.7621 317.424C38.1312 317.614 38.41 317.943 38.5372 318.339C38.6643 318.735 38.6295 319.166 38.4402 319.536C38.2509 319.907 37.9227 320.186 37.5279 320.314C33.7459 321.536 23.1775 326.164 24.2215 331.177C25.138 335.619 32.2108 335.352 32.2842 335.348C32.6986 335.328 33.1037 335.475 33.4104 335.755C33.7172 336.035 33.9005 336.426 33.92 336.841C33.9395 337.257 33.7935 337.664 33.5143 337.971C33.2351 338.279 32.8455 338.463 32.4312 338.482C32.3925 338.514 32.2262 338.517 31.9826 338.517Z" fill="#B4FFC6"/>
<path d="M122.018 335.604C121.759 335.604 121.604 335.604 121.581 335.604C121.376 335.594 121.175 335.543 120.989 335.455C120.803 335.367 120.637 335.243 120.499 335.09C120.361 334.937 120.255 334.759 120.186 334.565C120.116 334.371 120.086 334.165 120.096 333.959C120.106 333.753 120.157 333.551 120.245 333.365C120.333 333.179 120.456 333.012 120.608 332.873C120.761 332.735 120.939 332.628 121.132 332.559C121.326 332.489 121.531 332.459 121.736 332.469C121.802 332.469 128.878 332.741 129.795 328.298C130.839 323.255 120.27 318.638 116.488 317.435C116.093 317.308 115.765 317.029 115.575 316.659C115.386 316.289 115.35 315.859 115.477 315.463C115.604 315.066 115.882 314.737 116.251 314.547C116.62 314.356 117.049 314.321 117.444 314.448C120.25 315.396 122.957 316.619 125.526 318.099C129.42 320.392 133.855 324.139 132.873 328.962C132.254 331.961 130.038 334.068 126.469 335.053C125.015 335.43 123.519 335.615 122.018 335.604Z" fill="#B4FFC6"/>
<path d="M76.3681 348.174C99.914 348.174 119.002 331.122 119.002 310.087C119.002 289.052 99.914 272 76.3681 272C52.8221 272 33.7344 289.052 33.7344 310.087C33.7344 331.122 52.8221 348.174 76.3681 348.174Z" fill="#B4FFC6"/>
<path d="M84.1517 316.45C83.9251 316.45 83.7032 316.384 83.5136 316.26L79.4997 313.645C79.2387 313.475 79.0556 313.208 78.9907 312.903C78.9258 312.598 78.9843 312.279 79.1536 312.017C79.3228 311.755 79.5888 311.572 79.893 311.506C80.1972 311.441 80.5148 311.5 80.7758 311.67L83.8075 313.645L85.7758 310.603C85.945 310.341 86.211 310.157 86.5152 310.092C86.8194 310.027 87.137 310.086 87.398 310.256C87.6591 310.426 87.8421 310.692 87.907 310.998C87.9719 311.303 87.9134 311.621 87.7442 311.883L85.1378 315.914C85.0319 316.08 84.8859 316.216 84.7134 316.309C84.541 316.403 84.3478 316.451 84.1517 316.45V316.45Z" fill="#4C685F"/>
<path d="M71.5027 311.7C72.6325 311.7 73.5483 310.782 73.5483 309.648C73.5483 308.515 72.6325 307.596 71.5027 307.596C70.3729 307.596 69.457 308.515 69.457 309.648C69.457 310.782 70.3729 311.7 71.5027 311.7Z" fill="#4C685F"/>
<path d="M92.2761 309.649C93.4059 309.649 94.3218 308.73 94.3218 307.596C94.3218 306.463 93.4059 305.544 92.2761 305.544C91.1463 305.544 90.2305 306.463 90.2305 307.596C90.2305 308.73 91.1463 309.649 92.2761 309.649Z" fill="#4C685F"/>
</g>
<g clip-path="url(#clip1_221_7644)">
<path d="M347.44 351.076C367.566 351.076 383.881 335.023 383.881 315.221C383.881 295.418 367.566 279.365 347.44 279.365C327.315 279.365 311 295.418 311 315.221C311 335.023 327.315 351.076 347.44 351.076Z" fill="#C7C6FF"/>
<path d="M329.451 346.393C328.519 345.869 327.607 345.308 326.729 344.709C326.539 347.877 326.828 354.144 330.19 363.613C329.169 365.152 328.744 365.834 328.727 365.865C328.621 366.021 328.547 366.196 328.51 366.382C328.473 366.567 328.474 366.758 328.513 366.943C328.551 367.128 328.626 367.304 328.733 367.459C328.84 367.614 328.977 367.745 329.136 367.845C329.294 367.944 329.472 368.011 329.656 368.039C329.841 368.068 330.029 368.058 330.21 368.011C330.391 367.963 330.561 367.879 330.709 367.764C330.857 367.648 330.98 367.504 331.071 367.338C331.071 367.338 331.591 366.495 332.871 364.584C332.996 364.4 333.075 364.189 333.102 363.968C333.129 363.746 333.102 363.522 333.024 363.313C330.088 355.301 329.451 349.664 329.451 346.393Z" fill="#C7C6FF"/>
<path d="M367.464 363.672C369.4 354.03 368.859 347.832 368.236 344.654C367.42 345.216 366.576 345.739 365.712 346.235C366.188 349.399 366.436 355.122 364.62 363.796C364.575 364.014 364.582 364.24 364.642 364.456C364.701 364.671 364.81 364.868 364.96 365.032C366.498 366.726 367.127 367.477 367.13 367.484C367.246 367.627 367.389 367.746 367.551 367.834C367.713 367.921 367.89 367.975 368.072 367.992C368.255 368.01 368.439 367.99 368.614 367.935C368.789 367.879 368.951 367.789 369.091 367.67C369.232 367.55 369.347 367.404 369.43 367.239C369.514 367.074 369.565 366.893 369.579 366.708C369.593 366.523 369.571 366.338 369.513 366.161C369.455 365.985 369.364 365.823 369.243 365.683C369.213 365.659 368.702 365.046 367.464 363.672Z" fill="#C7C6FF"/>
<path d="M378.066 291.672C378.185 292.306 378.379 293.17 378.627 294.265C378.876 295.36 379.168 296.675 379.468 298.104C382.37 303.33 383.893 309.224 383.891 315.218C383.891 315.218 383.891 315.242 383.891 315.256C384.534 307.849 382.469 298.679 381.332 293.645C381.091 292.578 380.9 291.734 380.791 291.149C380.131 287.654 378.967 280.151 378.957 280.075C378.941 279.884 378.887 279.698 378.797 279.528C378.706 279.359 378.583 279.211 378.434 279.092C378.284 278.974 378.112 278.887 377.929 278.839C377.745 278.791 377.553 278.781 377.366 278.811C377.178 278.841 376.999 278.91 376.839 279.013C376.679 279.116 376.541 279.251 376.435 279.411C376.329 279.57 376.256 279.75 376.222 279.939C376.188 280.128 376.192 280.322 376.235 280.509C376.228 280.585 377.399 288.133 378.066 291.672Z" fill="#C7C6FF"/>
<path d="M315.631 297.728C316.033 295.69 316.448 293.844 316.778 292.371C317.026 291.276 317.22 290.411 317.343 289.778C318.023 286.238 319.18 278.687 319.19 278.611C319.218 278.26 319.113 277.91 318.898 277.634C318.682 277.357 318.371 277.173 318.026 277.118C317.682 277.064 317.33 277.143 317.041 277.34C316.752 277.537 316.548 277.837 316.468 278.181C316.468 278.256 315.294 285.756 314.634 289.254C314.525 289.84 314.335 290.68 314.093 291.747C313.13 296.017 311.497 303.255 311.412 309.873C312.063 305.595 313.493 301.477 315.631 297.728V297.728Z" fill="#C7C6FF"/>
<path d="M337.019 316.229C338.031 316.229 338.852 315.399 338.852 314.374C338.852 313.349 338.031 312.518 337.019 312.518C336.006 312.518 335.185 313.349 335.185 314.374C335.185 315.399 336.006 316.229 337.019 316.229Z" fill="#4C685F"/>
<path d="M355.637 318.124C356.65 318.124 357.471 317.293 357.471 316.268C357.471 315.243 356.65 314.412 355.637 314.412C354.624 314.412 353.803 315.243 353.803 316.268C353.803 317.293 354.624 318.124 355.637 318.124Z" fill="#4C685F"/>
<path d="M345.845 323.585C345.685 323.585 345.528 323.547 345.385 323.475C342.664 322.097 341.775 316.588 341.684 315.947C341.658 315.793 341.668 315.635 341.712 315.485C341.756 315.334 341.834 315.196 341.938 315.081C342.043 314.966 342.172 314.876 342.316 314.818C342.46 314.761 342.615 314.737 342.769 314.749L349.972 315.183C350.13 315.191 350.283 315.236 350.421 315.314C350.558 315.393 350.676 315.502 350.765 315.634C350.854 315.766 350.912 315.917 350.935 316.075C350.958 316.233 350.945 316.394 350.897 316.547C350.707 317.146 348.968 322.452 346.216 323.516C346.097 323.561 345.971 323.584 345.845 323.585V323.585ZM343.977 316.912C344.368 318.592 345.062 320.489 345.906 321.298C346.838 320.586 347.808 318.798 348.461 317.166L343.977 316.912Z" fill="#4C685F"/>
</g>
<g clip-path="url(#clip2_221_7644)">
<path d="M174.43 366H171.359C171.206 366 171.055 365.963 170.918 365.894C170.782 365.824 170.664 365.723 170.573 365.599C170.483 365.475 170.423 365.332 170.398 365.18C170.374 365.029 170.385 364.874 170.432 364.727C173.269 355.862 171.257 346.889 171.237 346.797C171.191 346.55 171.242 346.294 171.38 346.084C171.517 345.873 171.731 345.724 171.975 345.667C172.22 345.61 172.477 345.65 172.693 345.778C172.909 345.907 173.068 346.114 173.135 346.356C173.219 346.727 175.104 355.132 172.665 364.038H174.43C174.689 364.038 174.937 364.14 175.12 364.324C175.303 364.507 175.405 364.755 175.405 365.014C175.405 365.273 175.303 365.521 175.12 365.704C174.937 365.887 174.689 365.99 174.43 365.99V366Z" fill="#FF94A8"/>
<path d="M191.404 363.161C191.154 363.161 190.914 363.065 190.733 362.893C190.552 362.72 190.444 362.484 190.432 362.234C190.432 362.197 190.23 358.262 189.972 356.103C189.798 354.661 186.809 349.835 184.966 347.138C184.836 346.924 184.792 346.669 184.845 346.424C184.898 346.179 185.042 345.964 185.249 345.823C185.456 345.682 185.708 345.626 185.955 345.666C186.202 345.706 186.424 345.84 186.575 346.04C191.369 353.072 191.857 355.473 191.904 355.882C192.08 357.351 192.227 359.537 192.307 360.902L194.047 360.377C194.294 360.301 194.561 360.327 194.789 360.449C195.017 360.571 195.187 360.778 195.262 361.025C195.337 361.273 195.311 361.54 195.19 361.768C195.068 361.996 194.861 362.167 194.614 362.242L191.692 363.131C191.598 363.155 191.501 363.165 191.404 363.161V363.161Z" fill="#FF94A8"/>
<path d="M201.478 343.764H201.356C201.229 343.748 201.106 343.707 200.995 343.644C200.884 343.581 200.786 343.496 200.708 343.395C200.629 343.294 200.571 343.179 200.537 343.055C200.504 342.931 200.494 342.802 200.51 342.675C202.022 330.42 199.832 320.813 199.812 320.716C199.783 320.591 199.778 320.462 199.799 320.336C199.82 320.209 199.865 320.088 199.933 319.98C200 319.871 200.088 319.777 200.192 319.702C200.296 319.628 200.413 319.574 200.538 319.545C200.662 319.516 200.791 319.512 200.917 319.532C201.043 319.553 201.164 319.599 201.273 319.666C201.381 319.734 201.475 319.822 201.55 319.926C201.624 320.03 201.677 320.148 201.706 320.272C201.801 320.676 204.002 330.296 202.453 342.914C202.422 343.151 202.305 343.368 202.126 343.524C201.946 343.68 201.716 343.766 201.478 343.764V343.764Z" fill="#FF94A8"/>
<path d="M179.066 349.09C192.596 348.459 203.021 336.277 202.35 321.883C201.68 307.489 190.169 296.332 176.639 296.964C163.109 297.596 152.685 309.777 153.355 324.171C154.026 338.566 165.537 349.722 179.066 349.09Z" fill="#FF94A8"/>
<path d="M174.856 323.373C175.57 323.373 176.149 322.793 176.149 322.078C176.149 321.363 175.57 320.783 174.856 320.783C174.141 320.783 173.562 321.363 173.562 322.078C173.562 322.793 174.141 323.373 174.856 323.373Z" fill="#4C685F"/>
<path d="M187.995 322.078C188.709 322.078 189.288 321.498 189.288 320.783C189.288 320.068 188.709 319.488 187.995 319.488C187.281 319.488 186.702 320.068 186.702 320.783C186.702 321.498 187.281 322.078 187.995 322.078Z" fill="#4C685F"/>
<path d="M179.923 324.89C179.74 324.886 179.564 324.814 179.431 324.686C179.299 324.559 179.219 324.386 179.207 324.203C179.196 324.019 179.254 323.838 179.37 323.695C179.486 323.553 179.652 323.459 179.834 323.433L185.096 322.768C185.193 322.752 185.292 322.757 185.387 322.78C185.482 322.804 185.571 322.846 185.65 322.905C185.728 322.964 185.794 323.038 185.844 323.123C185.893 323.207 185.925 323.301 185.937 323.399C185.949 323.496 185.942 323.595 185.915 323.69C185.889 323.784 185.844 323.872 185.782 323.949C185.721 324.025 185.645 324.089 185.559 324.136C185.472 324.182 185.377 324.211 185.28 324.22L180.015 324.885C179.985 324.889 179.954 324.891 179.923 324.89V324.89Z" fill="#4C685F"/>
<path d="M158.179 339.376C154.437 339.376 152.137 338.437 151.323 336.574C150.557 334.813 151.149 332.659 153.084 330.169C153.948 329.079 154.916 328.076 155.974 327.173C156.173 327.023 156.422 326.955 156.67 326.984C156.918 327.013 157.145 327.136 157.305 327.328C157.465 327.52 157.545 327.766 157.528 328.015C157.512 328.264 157.4 328.498 157.217 328.667C155.844 329.815 152.142 333.593 153.106 335.812C154.198 338.315 162.086 337.52 167.338 336.153C167.588 336.087 167.854 336.123 168.078 336.254C168.302 336.384 168.464 336.599 168.53 336.849C168.596 337.1 168.56 337.367 168.43 337.59C168.299 337.814 168.086 337.977 167.835 338.043C165.494 338.625 163.114 339.036 160.713 339.271C159.805 339.341 158.96 339.376 158.179 339.376Z" fill="#E56B82"/>
</g>
<g clip-path="url(#clip3_221_7644)">
<path d="M260.552 350.259C280.13 350.259 296 336.098 296 318.63C296 301.161 280.13 287 260.552 287C240.974 287 225.104 301.161 225.104 318.63C225.104 336.098 240.974 350.259 260.552 350.259Z" fill="#FFEB81"/>
<path d="M224.105 316.352C223.578 316.352 223.018 316.352 222.446 316.297C218.25 316.022 215.58 314.695 214.505 312.372C213.562 310.324 213.475 306.899 218.413 302.208C220.215 300.523 222.179 299.021 224.275 297.722C224.572 297.545 224.926 297.493 225.261 297.578C225.596 297.663 225.884 297.878 226.061 298.175C226.238 298.473 226.289 298.828 226.204 299.164C226.12 299.5 225.905 299.788 225.608 299.965C222.775 301.666 215.081 307.399 216.868 311.276C218.224 314.218 225.269 313.865 227.629 313.519C227.806 313.472 227.991 313.463 228.171 313.492C228.352 313.521 228.525 313.588 228.678 313.689C228.831 313.789 228.961 313.921 229.059 314.075C229.158 314.23 229.223 314.403 229.251 314.584C229.278 314.766 229.267 314.951 229.218 315.127C229.169 315.304 229.084 315.468 228.967 315.61C228.851 315.751 228.706 315.866 228.542 315.948C228.378 316.029 228.199 316.075 228.016 316.083C226.72 316.261 225.413 316.351 224.105 316.352Z" fill="#FFEB81"/>
<path d="M261.687 373C261.414 373 261.148 372.913 260.927 372.753C260.705 372.592 260.54 372.366 260.454 372.106C260.368 371.847 260.366 371.566 260.448 371.305C260.529 371.044 260.691 370.815 260.91 370.651L263.286 368.883C263.862 356.037 270.321 345.693 270.612 345.251C270.701 345.099 270.819 344.967 270.959 344.862C271.1 344.757 271.26 344.682 271.43 344.64C271.6 344.599 271.777 344.592 271.95 344.621C272.123 344.65 272.288 344.713 272.436 344.808C272.584 344.902 272.711 345.025 272.81 345.17C272.909 345.315 272.978 345.478 273.013 345.651C273.047 345.823 273.047 346 273.011 346.172C272.976 346.344 272.906 346.507 272.806 346.651C272.717 346.792 266.225 357.225 265.864 369.591C265.858 369.788 265.808 369.981 265.717 370.156C265.626 370.331 265.497 370.482 265.339 370.6L262.461 372.744C262.237 372.91 261.966 373 261.687 373V373Z" fill="#FFEB81"/>
<path d="M257.453 321.523C257.302 321.524 257.153 321.49 257.018 321.422C256.883 321.355 256.766 321.257 256.676 321.136L254.856 318.742L252.464 320.565C252.258 320.722 251.998 320.79 251.742 320.755C251.485 320.72 251.253 320.584 251.097 320.378C250.941 320.171 250.872 319.911 250.907 319.654C250.943 319.397 251.078 319.165 251.284 319.008L254.45 316.595C254.551 316.515 254.667 316.456 254.791 316.421C254.915 316.387 255.045 316.378 255.173 316.395C255.301 316.412 255.424 316.455 255.535 316.521C255.646 316.586 255.742 316.674 255.819 316.778L258.23 319.953C258.339 320.098 258.406 320.271 258.422 320.452C258.439 320.633 258.405 320.815 258.325 320.978C258.244 321.141 258.12 321.278 257.966 321.375C257.812 321.471 257.634 321.522 257.453 321.523Z" fill="#4C685F"/>
<path d="M294.053 353.374H293.986C293.641 353.355 293.319 353.2 293.089 352.943C292.858 352.686 292.739 352.348 292.758 352.003C293.231 343.389 292.758 324.221 292.758 324.029C292.764 323.693 292.899 323.372 293.136 323.134C293.372 322.895 293.692 322.758 294.027 322.749C294.362 322.741 294.688 322.863 294.936 323.089C295.184 323.316 295.335 323.63 295.358 323.965C295.358 324.16 295.831 343.428 295.358 352.144C295.339 352.477 295.193 352.791 294.95 353.02C294.707 353.249 294.386 353.375 294.053 353.374V353.374Z" fill="#FFEB81"/>
<path d="M255.722 366.402C255.378 366.402 255.047 366.265 254.803 366.021C254.559 365.778 254.422 365.447 254.421 365.101V361.708C252 361.75 246.845 361.676 242.646 360.513C242.271 360.41 241.923 360.228 241.623 359.979C241.324 359.731 241.081 359.421 240.91 359.071C240.738 358.718 240.642 358.332 240.629 357.94C240.617 357.547 240.687 357.156 240.836 356.793C242.576 352.528 249.79 346.574 250.091 346.324C250.222 346.209 250.375 346.121 250.541 346.067C250.707 346.012 250.882 345.991 251.055 346.005C251.229 346.02 251.399 346.069 251.553 346.15C251.708 346.231 251.844 346.343 251.955 346.478C252.066 346.613 252.148 346.769 252.197 346.937C252.247 347.105 252.262 347.281 252.242 347.454C252.222 347.628 252.167 347.796 252.081 347.948C251.995 348.1 251.879 348.233 251.741 348.34C249.797 349.942 244.482 354.748 243.241 357.78C243.223 357.826 243.223 357.877 243.241 357.924C243.25 357.943 243.263 357.96 243.28 357.974C243.297 357.987 243.316 357.996 243.337 358.001C248.505 359.433 255.579 359.064 255.649 359.061C255.826 359.051 256.003 359.077 256.169 359.137C256.335 359.198 256.487 359.292 256.616 359.414C256.744 359.536 256.847 359.683 256.916 359.846C256.986 360.009 257.021 360.185 257.021 360.362V365.101C257.02 365.446 256.883 365.777 256.64 366.02C256.396 366.264 256.066 366.401 255.722 366.402V366.402Z" fill="#FFEB81"/>
</g>
</g>
<defs>
<linearGradient id="paint0_linear_221_7644" x1="930.771" y1="539.541" x2="649.373" y2="1053.79" gradientUnits="userSpaceOnUse">
<stop stop-color="#0DC7C9"/>
<stop offset="0.796875" stop-color="#00CFA6"/>
<stop offset="1" stop-color="#00CFA6"/>
</linearGradient>
<clipPath id="clip0_221_7644">
<rect width="112" height="101" fill="white" transform="translate(21 272)"/>
</clipPath>
<clipPath id="clip1_221_7644">
<rect width="73" height="91" fill="white" transform="translate(311 277)"/>
</clipPath>
<clipPath id="clip2_221_7644">
<rect width="52" height="69" fill="white" transform="translate(151 297)"/>
</clipPath>
<clipPath id="clip3_221_7644">
<rect width="82" height="86" fill="white" transform="translate(214 287)"/>
</clipPath>
</defs>
</svg>
