<svg width="32" height="31" viewBox="0 0 32 31" fill="none" xmlns="http://www.w3.org/2000/svg">
<g clip-path="url(#clip0_643_1467)">
<path d="M8.04795 0.689453H27.5112C28.7041 0.6935 29.8468 1.24254 30.6883 2.21595C31.5298 3.18937 32.0012 4.50756 31.9991 5.88094V18.1951C32.0005 18.8757 31.8854 19.5501 31.6604 20.1795C31.4354 20.809 31.1049 21.3813 30.6878 21.8636C30.2707 22.346 29.7751 22.7291 29.2293 22.9909C28.6836 23.2527 28.0984 23.3882 27.5072 23.3896M8.04795 0.689453C7.45662 0.690655 6.87129 0.825992 6.3254 1.08773C5.77951 1.34947 5.28377 1.73248 4.8665 2.21488C4.44923 2.69728 4.11861 3.26961 3.89352 3.89917C3.66844 4.52873 3.5533 5.20319 3.5547 5.88399V18.1996C3.55348 18.8804 3.66873 19.5548 3.89388 20.1842C4.11903 20.8137 4.44966 21.386 4.86689 21.8683C5.28413 22.3507 5.7798 22.7337 6.32561 22.9955C6.87141 23.2573 7.45667 23.3928 8.04795 23.3942M8.04795 0.689453L8.04998 1.68945C8.04967 1.68945 8.04935 1.68945 8.04904 1.68945M8.04795 0.689453V1.68945H8.04904M8.04795 23.3942H14.748L17.0358 27.6827C17.0582 27.7253 17.083 27.7661 17.1101 27.805C17.1775 27.9388 17.2743 28.0499 17.3907 28.1271C17.5072 28.2044 17.6392 28.245 17.7736 28.245C17.908 28.245 18.04 28.2044 18.1564 28.1271C18.2729 28.0499 18.3697 27.9388 18.4371 27.805C18.4672 27.766 18.4931 27.7229 18.5141 27.6766L20.8018 23.3896H27.5072M8.04795 23.3942V22.3942H8.04887M8.04795 23.3942L8.05032 22.3942C8.04984 22.3942 8.04936 22.3942 8.04887 22.3942M27.5072 23.3896V22.3896H27.5063M27.5072 23.3896L27.5048 22.3896C27.5053 22.3896 27.5058 22.3896 27.5063 22.3896M27.5063 22.3896H20.8018H20.202L19.9196 22.9188L17.7733 26.9407M27.5063 22.3896C27.9445 22.3883 28.3825 22.288 28.7968 22.0893C29.2121 21.89 29.5991 21.5937 29.9314 21.2095C30.2638 20.8251 30.5333 20.3617 30.7188 19.8429C30.9042 19.3241 31.0003 18.7645 30.9991 18.1971L30.9991 18.1951L30.9991 5.88094V5.8794C31.0009 4.72913 30.6047 3.6484 29.9317 2.86994C29.263 2.09636 28.3877 1.69291 27.5094 1.68945M17.7733 26.9407L15.6303 22.9235L15.3479 22.3942H14.748H8.04887M17.7733 26.9407L17.6318 27.2058L17.6219 27.2244L17.5873 27.2692L17.544 27.3551C17.5489 27.3453 17.5649 27.3195 17.6037 27.2938C17.6125 27.2879 17.6222 27.2823 17.6327 27.2771C17.6563 27.2654 17.6841 27.2558 17.715 27.2502C17.7163 27.25 17.7177 27.2497 17.719 27.2495C17.7363 27.2466 17.7545 27.245 17.7736 27.245C17.7981 27.245 17.8212 27.2477 17.8427 27.2523C17.845 27.2528 17.8473 27.2533 17.8496 27.2538C17.8622 27.2568 17.8742 27.2605 17.8856 27.2647C17.9076 27.2728 17.927 27.2829 17.9434 27.2938C17.9823 27.3195 17.9983 27.3453 18.0032 27.3551L17.9712 27.2916L17.9306 27.2333C17.9298 27.2322 17.929 27.231 17.9282 27.2298C17.9257 27.226 17.9231 27.2216 17.9204 27.2165L17.9181 27.2121L17.7733 26.9407ZM27.5094 1.68945H27.5112V0.689734L27.5078 1.68945C27.5083 1.68945 27.5088 1.68945 27.5094 1.68945ZM27.5094 1.68945H8.04904M8.04904 1.68945C7.6106 1.69049 7.1723 1.79067 6.75775 1.98944C6.34229 2.18864 5.95514 2.48489 5.62282 2.86909C5.29027 3.25353 5.02066 3.71697 4.83515 4.23583C4.64964 4.7547 4.55353 5.31441 4.5547 5.88194L4.5547 5.88399L4.5547 18.1996V18.2014C4.55368 18.7689 4.64989 19.3286 4.83546 19.8474C5.02103 20.3663 5.29067 20.8297 5.62321 21.2141C5.95554 21.5983 6.34266 21.8946 6.7581 22.0939C7.17248 22.2926 7.61059 22.3929 8.04887 22.3942" stroke="#6F6F6F" stroke-width="2"/>
<path d="M10.2121 10.669C9.67203 10.7078 9.16497 10.9358 8.78572 11.3104V8.73242H7.11133V15.503H8.80617V14.9718C8.80617 14.9718 9.20623 15.6714 10.2121 15.6714C10.2121 15.6714 12.5767 15.5872 12.5767 13.1454C12.5767 13.1454 12.4898 10.669 10.2121 10.669ZM9.84276 14.2425C9.62934 14.2427 9.42065 14.1817 9.24308 14.067C9.06551 13.9523 8.92704 13.7892 8.8452 13.5982C8.76335 13.4073 8.7418 13.1971 8.78328 12.9943C8.82476 12.7915 8.92741 12.6052 9.07822 12.4589C9.22904 12.3126 9.42125 12.213 9.63055 12.1726C9.83984 12.1321 10.0568 12.1527 10.254 12.2318C10.4512 12.3109 10.6198 12.4448 10.7383 12.6167C10.8569 12.7886 10.9202 12.9907 10.9202 13.1974C10.9199 13.4743 10.8063 13.7397 10.6044 13.9356C10.4024 14.1315 10.1285 14.2418 9.84276 14.2425V14.2425Z" fill="#6F6F6F"/>
<path d="M13.1172 8.58594V10.1461C13.1172 10.1461 13.8841 10.1127 13.8841 11.4945V15.5026H15.501V11.1243C15.501 11.1243 15.5661 8.58594 13.1172 8.58594Z" fill="#6F6F6F"/>
<path d="M19.4523 10.6934C19.4523 10.6934 16.68 10.6934 16.68 13.2007C16.68 13.2007 16.5905 15.6772 19.4523 15.6772C19.4523 15.6772 22.2873 15.6772 22.2873 13.2007C22.2873 13.1995 22.3806 10.6934 19.4523 10.6934ZM19.4523 14.2458C19.239 14.2458 19.0304 14.1845 18.853 14.0697C18.6756 13.9548 18.5373 13.7916 18.4557 13.6007C18.374 13.4097 18.3527 13.1996 18.3943 12.9969C18.4359 12.7941 18.5387 12.6079 18.6895 12.4618C18.8404 12.3156 19.0326 12.2161 19.2419 12.1758C19.4511 12.1354 19.668 12.1561 19.8652 12.2352C20.0623 12.3143 20.2308 12.4483 20.3493 12.6201C20.4678 12.792 20.5311 12.9941 20.5311 13.2007C20.5311 13.3379 20.5032 13.4738 20.449 13.6005C20.3947 13.7272 20.3152 13.8423 20.2151 13.9393C20.1149 14.0362 19.9959 14.1131 19.8651 14.1655C19.7342 14.2178 19.5939 14.2447 19.4523 14.2446V14.2458Z" fill="#6F6F6F"/>
<path d="M26.9247 10.8553V11.311C26.751 11.1149 26.5352 10.9579 26.2923 10.851C26.0495 10.744 25.7855 10.6897 25.5188 10.6919C25.5188 10.6919 23.1465 10.5953 23.1465 13.1832C23.1465 13.1832 23.1197 15.594 25.4536 15.594C25.4536 15.594 26.4058 15.6311 26.9273 14.9749V15.355C26.9273 15.355 27.0449 16.5425 25.8575 16.5425H25.4536V17.9825H26.1054C26.1054 17.9825 28.5569 18.0073 28.5569 15.4429V10.8615L26.9247 10.8553ZM25.9214 14.2431C25.708 14.2431 25.4995 14.1818 25.3221 14.067C25.1447 13.9521 25.0064 13.7889 24.9247 13.598C24.8431 13.407 24.8217 13.1969 24.8633 12.9941C24.905 12.7914 25.0077 12.6052 25.1586 12.4591C25.3094 12.3129 25.5017 12.2134 25.7109 12.173C25.9202 12.1327 26.1371 12.1534 26.3342 12.2325C26.5313 12.3116 26.6998 12.4456 26.8183 12.6174C26.9369 12.7893 27.0001 12.9913 27.0001 13.198C27.0003 13.3358 26.9723 13.4723 26.9178 13.5996C26.8632 13.7269 26.7832 13.8424 26.6823 13.9396C26.5814 14.0367 26.4617 14.1136 26.33 14.1656C26.1983 14.2177 26.0572 14.2441 25.915 14.2431H25.9214Z" fill="#6F6F6F"/>
</g>
<defs>
<clipPath id="clip0_643_1467">
<rect width="32" height="31" fill="white"/>
</clipPath>
</defs>
</svg>
