<svg width="26" height="26" viewBox="0 0 26 26" fill="none" xmlns="http://www.w3.org/2000/svg">
<g clip-path="url(#clip0_658_1190)">
<path d="M25.9776 19.8351C25.9512 20.1276 25.8658 20.6273 25.7866 20.932C25.1752 23.3065 23.3065 25.1753 20.9319 25.7867C20.613 25.868 20.1255 25.9512 19.7944 25.9797C19.636 25.9919 17.2432 26 12.9979 26C5.87226 26 6.16882 26.004 5.53304 25.8883C3.79632 25.5694 2.24851 24.5761 1.23085 23.1298C0.519914 22.1183 0.115695 20.9808 0.0202266 19.7234C-0.0122734 19.2887 0.00194476 6.25217 0.036476 6.01249C0.203038 4.84249 0.519913 3.96296 1.09069 3.07936C1.3446 2.68733 1.55788 2.42327 1.9296 2.04546C2.56335 1.39546 3.22351 0.932331 4.02788 0.578893C4.64132 0.306706 5.22023 0.150301 6.01241 0.0365508C6.2521 0.00201954 19.2887 -0.0122011 19.7233 0.0202989C20.9116 0.111705 21.9943 0.47733 22.9632 1.1192C24.5069 2.14092 25.5551 3.72327 25.8882 5.53311C26.004 6.16889 25.9999 5.8642 25.9979 13.0386C25.9958 16.6644 25.9857 19.7234 25.9776 19.8351ZM23.7452 6.21561C23.5137 4.33264 22.171 2.80717 20.3429 2.34608C19.7863 2.20592 20.284 2.21405 12.9898 2.21405C7.18851 2.21405 6.37194 2.21811 6.16069 2.24452C5.39085 2.34608 4.66163 2.63858 4.03398 3.10374C3.76991 3.29874 3.29866 3.76999 3.10366 4.03405C2.63851 4.66171 2.34601 5.39092 2.24444 6.16077C2.21804 6.37202 2.21398 7.18858 2.21398 12.9898C2.21398 20.284 2.20585 19.7864 2.34601 20.343C2.80913 22.1772 4.35695 23.534 6.23382 23.7453C6.37194 23.7615 8.3971 23.7656 13.1116 23.7615L19.7944 23.7555L20.0748 23.6986C21.7221 23.3695 23.0262 22.228 23.5421 20.6639C23.6294 20.3958 23.7269 19.9631 23.7513 19.7234C23.7716 19.5386 23.7635 6.37608 23.7452 6.21561Z" fill="#6F6F6F"/>
<path d="M21.6452 6.12485C21.5132 6.68954 21.0927 7.1222 20.5341 7.26033C20.3452 7.30704 20.0162 7.30298 19.8171 7.2522C18.9396 7.02876 18.4643 6.06798 18.8157 5.2311C18.9091 5.00563 19.1407 4.71719 19.3296 4.58922C19.8537 4.23375 20.5443 4.23781 21.0541 4.60141C21.308 4.78219 21.4909 5.03 21.5985 5.33672C21.6513 5.48907 21.6594 5.55204 21.6655 5.75922C21.6716 5.91766 21.6635 6.04563 21.6452 6.12485Z" fill="#6F6F6F"/>
<path d="M19.4474 13.4167C19.3214 15.0132 18.6674 16.4513 17.5583 17.5584C16.5366 18.5821 15.2529 19.2098 13.7721 19.4129C13.4125 19.4617 12.5615 19.4617 12.1979 19.4109C11.1396 19.2667 10.2682 18.9417 9.41505 18.3729C8.08458 17.4873 7.13396 16.1649 6.73381 14.6415C6.48396 13.6868 6.45552 12.6468 6.65459 11.682C6.91052 10.4389 7.51177 9.32574 8.41974 8.4198C9.44958 7.38996 10.7211 6.76433 12.1877 6.5673C12.5269 6.52262 13.3861 6.51652 13.7111 6.55715C15.2224 6.74808 16.5204 7.37777 17.5705 8.42996C18.5841 9.44558 19.2178 10.7435 19.4088 12.1979C19.4413 12.4295 19.4636 13.2014 19.4474 13.4167ZM17.4669 12.6042C17.3938 11.7348 17.0464 10.8715 16.4939 10.1768C16.3091 9.9473 15.9191 9.56949 15.6814 9.39277C15.0721 8.93777 14.4058 8.65949 13.64 8.53761C13.3272 8.48886 12.6508 8.48886 12.3319 8.53761C10.3596 8.84636 8.8463 10.3596 8.53755 12.332C8.4888 12.6428 8.4888 13.3456 8.53755 13.6462C8.77724 15.1331 9.68521 16.3701 11.0157 17.0221C12.3888 17.6965 14.0016 17.6274 15.3097 16.8373C15.9029 16.4778 16.4777 15.9029 16.8372 15.3098C17.3268 14.4993 17.5482 13.5446 17.4669 12.6042Z" fill="#6F6F6F"/>
</g>
<defs>
<clipPath id="clip0_658_1190">
<rect width="26" height="26" fill="white" transform="matrix(-4.37114e-08 -1 -1 4.37114e-08 26 26)"/>
</clipPath>
</defs>
</svg>
