<svg width="91" height="124" viewBox="0 0 91 124" fill="none" xmlns="http://www.w3.org/2000/svg">
<g clip-path="url(#clip0_714_2334)">
<path d="M64.1144 102.328L64.078 102.318H64.0951L64.1529 102.333L64.3029 102.367C64.41 102.391 64.5171 102.412 64.6457 102.431C64.8856 102.47 65.1341 102.505 65.3869 102.522C65.8945 102.564 66.4047 102.564 66.9123 102.522C67.9152 102.44 68.8965 102.186 69.8131 101.77C71.632 100.955 73.1895 99.4638 74.4364 97.5234C75.9725 95.1381 77.5578 92.7722 79.2589 90.432C80.1158 89.2673 80.9985 88.1091 81.954 86.9594C82.4382 86.3835 82.9267 85.8119 83.4751 85.2403C83.7436 84.9538 84.0293 84.6608 84.3321 84.3614C84.4949 84.2088 84.6491 84.0605 84.8441 83.8951L84.9834 83.7747L85.1526 83.6394L85.2383 83.5706L85.3433 83.4911L85.4654 83.4008L85.5489 83.345L85.7032 83.244C86.0924 83.0052 86.5247 82.8458 86.9753 82.7747C87.426 82.7036 87.8862 82.7223 88.3297 82.8297C88.7731 82.937 89.1912 83.131 89.5599 83.4004C89.9286 83.6699 90.2408 84.0096 90.4786 84.4001C90.7169 84.7905 90.8761 85.2243 90.9472 85.6766C91.0182 86.1288 90.9997 86.5907 90.8927 87.0358C90.7856 87.4808 90.5921 87.9004 90.3233 88.2704C90.0545 88.6404 89.7156 88.9536 89.326 89.1921C89.3608 89.1727 89.3944 89.1511 89.4267 89.1276L89.4545 89.1083L89.4716 89.0976L89.4545 89.1126L89.4202 89.1384L89.3645 89.19C89.2917 89.248 89.1953 89.3404 89.1032 89.4263C88.9125 89.609 88.709 89.811 88.5033 90.0323C88.092 90.4621 87.6742 90.9478 87.2607 91.4377C86.4316 92.4283 85.6218 93.4899 84.8227 94.5622C83.2352 96.7283 81.7076 98.9889 80.2187 101.284C79.3136 102.704 78.2339 104.003 77.0051 105.152C76.6966 105.453 76.3495 105.721 76.0175 106.012L75.4904 106.407C75.3169 106.54 75.1348 106.665 74.9484 106.785C74.2108 107.282 73.4316 107.713 72.6196 108.074C70.9933 108.805 69.2542 109.249 67.4779 109.39C66.5989 109.463 65.7154 109.463 64.8364 109.39C64.395 109.355 63.9558 109.299 63.5081 109.224C63.2938 109.185 63.0603 109.142 62.8268 109.091C62.7132 109.067 62.5933 109.039 62.469 109.007L62.2762 108.956L62.1669 108.923L62.0105 108.876C61.1452 108.597 60.4259 107.984 60.0109 107.173C59.5959 106.362 59.5191 105.418 59.7975 104.55C59.9351 104.12 60.156 103.721 60.4476 103.376C60.7391 103.031 61.0956 102.748 61.4965 102.541C61.8975 102.335 62.3351 102.21 62.7843 102.173C63.2335 102.137 63.6855 102.189 64.1144 102.328Z" fill="#E8BB89"/>
<path d="M70.1874 87.1411C69.2661 82.0354 64.7671 74.6453 62.4533 72.6662L62.3269 73.8932C58.5135 62.3386 51.675 54.6348 43.8724 54.6348C36.3741 54.6348 29.7755 61.739 25.8764 72.5351C24.2053 71.1362 21.5916 68.9249 20.0512 67.4787C17.7546 65.3298 14.8324 64.7819 12.9621 66.5418C11.6274 67.7968 10.7426 70.4485 12.6514 74.7463C14.5603 79.0441 20.229 84.6312 22.7635 85.9034C22.3885 88.9446 22.2017 92.0062 22.2043 95.0706C22.2043 101.885 23.1084 108.301 24.7024 113.934H26.4463C25.0702 113.938 23.7516 114.488 22.7785 115.464C21.8055 116.44 21.2571 117.762 21.2531 119.143V119.143C21.2531 120.129 21.4116 121.137 22.0072 121.839C23.5583 123.662 25.8957 124.076 28.8007 123.988C28.8007 123.988 36.012 123.155 40.9202 121.435C42.9319 120.731 43.7739 119.501 43.7739 117.997C43.7739 119.501 44.6158 120.731 46.6297 121.435C51.5357 123.155 58.747 123.988 58.747 123.988C61.6542 124.076 63.9916 123.662 65.5405 121.839C66.1382 121.137 66.2968 120.12 66.2968 119.143C66.2923 117.762 65.7434 116.439 64.77 115.463C63.7966 114.488 62.4778 113.938 61.1015 113.934H63.0296C64.5829 108.441 65.4784 102.201 65.5234 95.5777C66.3075 96.1278 67.0573 96.2525 67.8372 95.9495C70.2452 95.0233 71.1064 92.2469 70.1874 87.1411Z" fill="#F7F0D2"/>
<path d="M46.199 74.0842C110.704 72.4424 78.067 17.5682 78.067 17.5682C78.067 17.5682 75.7511 11.6458 71.3378 2.37335C69.0518 -1.42805 65.4355 0.207256 63.1838 1.41923C60.2745 2.98148 57.3394 4.9864 53.9116 8.58151C53.9116 8.58151 50.1731 7.77997 43.1611 7.93684C36.1512 7.77997 32.4106 8.58151 32.4106 8.58151C28.9828 4.9864 26.0477 2.98148 23.1405 1.41923C20.8867 0.207256 17.2704 -1.42805 14.9866 2.37335C10.5711 11.6458 8.25735 17.5682 8.25735 17.5682C8.25735 17.5682 -24.3819 72.4489 40.1232 74.0842" fill="#F7F0D2"/>
<path d="M46.199 74.0842C110.704 72.4424 78.067 17.5682 78.067 17.5682C78.067 17.5682 75.7511 11.6458 71.3378 2.37335C69.0518 -1.42805 65.4355 0.207256 63.1838 1.41923C60.2745 2.98148 57.3394 4.9864 53.9116 8.58151C53.9116 8.58151 50.1731 7.77997 43.1611 7.93684C36.1512 7.77997 32.4106 8.58151 32.4106 8.58151C28.9828 4.9864 26.0477 2.98148 23.1405 1.41923C20.8867 0.207256 17.2704 -1.42805 14.9866 2.37335C10.5711 11.6458 8.25735 17.5682 8.25735 17.5682C8.25735 17.5682 -24.3819 72.4489 40.1232 74.0842" fill="#F7F0D2"/>
<path d="M14.2752 13.5747C14.8301 12.2338 15.9442 9.62719 17.5852 6.18466C18.8471 4.08303 20.8459 4.98772 22.0842 5.65603C23.7112 6.51916 25.2044 7.61511 26.5168 8.90946C26.5931 8.98297 26.6495 9.07467 26.6808 9.17599C26.7122 9.2773 26.7174 9.38493 26.696 9.48882C26.6746 9.5927 26.6273 9.68945 26.5585 9.77002C26.4897 9.85058 26.4016 9.91235 26.3026 9.94953C23.946 10.8091 17.7138 13.1063 14.8772 14.1893C14.792 14.2238 14.6984 14.2322 14.6084 14.2134C14.5184 14.1946 14.436 14.1495 14.3716 14.0837C14.3071 14.0179 14.2636 13.9345 14.2464 13.8439C14.2293 13.7533 14.2393 13.6596 14.2752 13.5747Z" fill="#FFFCF3"/>
<path d="M14.7061 14.8636C14.5578 14.864 14.4109 14.8342 14.2744 14.7763C14.1378 14.7183 14.0143 14.6332 13.9113 14.5262C13.7603 14.3703 13.6582 14.1735 13.6174 13.96C13.5767 13.7466 13.5992 13.5258 13.682 13.325C14.2091 12.0571 15.3402 9.4054 17.007 5.90485L17.037 5.85112C18.6909 3.09624 21.4803 4.59401 22.393 5.08611C24.07 5.97929 25.6092 7.11133 26.9627 8.44699C27.118 8.59603 27.2325 8.78262 27.2951 8.98885C27.3578 9.19508 27.3665 9.414 27.3205 9.62459C27.2769 9.8356 27.1802 10.0319 27.0396 10.1948C26.899 10.3577 26.7191 10.4817 26.5171 10.5551C24.0169 11.4726 17.8983 13.7225 15.1003 14.7905C14.9744 14.8387 14.8408 14.8635 14.7061 14.8636V14.8636ZM18.1639 6.49149C16.6642 9.63103 15.6102 12.0786 15.0403 13.441C17.9775 12.3236 23.6548 10.237 26.0629 9.35812C24.7984 8.1153 23.3626 7.06091 21.7995 6.22718C20.2206 5.38051 19.0016 5.10545 18.1639 6.49149Z" fill="#FFFCF3"/>
<path d="M72.0444 13.5747C71.4895 12.2338 70.3734 9.62719 68.7344 6.18466C67.4726 4.08303 65.4737 4.98772 64.2354 5.65603C62.6107 6.51977 61.1198 7.61569 59.8093 8.90946C59.733 8.98297 59.6766 9.07467 59.6453 9.17599C59.6139 9.2773 59.6087 9.38493 59.6301 9.48882C59.6515 9.5927 59.6988 9.68945 59.7676 9.77002C59.8364 9.85058 59.9245 9.91235 60.0235 9.94953C62.3801 10.8091 68.6123 13.1063 71.4488 14.1893C71.5338 14.222 71.6264 14.2289 71.7152 14.2093C71.804 14.1896 71.8852 14.1443 71.9486 14.0789C72.012 14.0135 72.0548 13.9308 72.0719 13.8412C72.0889 13.7516 72.0794 13.659 72.0444 13.5747V13.5747Z" fill="#FFFCF3"/>
<path d="M71.6173 14.8636C71.4825 14.8635 71.3489 14.8388 71.2231 14.7905C68.423 13.7161 62.3065 11.4726 59.8063 10.5551C59.604 10.4818 59.4238 10.3579 59.2828 10.195C59.1418 10.0321 59.0447 9.83575 59.0008 9.62459C58.9556 9.41381 58.965 9.19494 59.028 8.98882C59.091 8.78269 59.2055 8.59617 59.3607 8.44699C60.7134 7.11139 62.2519 5.97934 63.9282 5.08611C64.8452 4.59401 67.6346 3.09624 69.2842 5.85112L69.3142 5.90485C70.981 9.4097 72.1122 12.0593 72.637 13.325C72.7202 13.5256 72.743 13.7462 72.7026 13.9597C72.6623 14.1731 72.5605 14.3701 72.4099 14.5262C72.307 14.6328 72.1839 14.7176 72.0477 14.7755C71.9115 14.8335 71.7652 14.8634 71.6173 14.8636ZM60.2733 9.35382C62.6814 10.237 68.3566 12.3236 71.2959 13.4367C70.7239 12.0765 69.6677 9.63103 68.1723 6.48934C67.4353 5.28596 66.4134 5.21289 64.5303 6.22073C62.9687 7.05468 61.535 8.10988 60.2733 9.35382V9.35382Z" fill="#FFFCF3"/>
<path d="M32.9565 38.8502C34.1622 38.8502 35.1396 37.8698 35.1396 36.6604C35.1396 35.4511 34.1622 34.4707 32.9565 34.4707C31.7508 34.4707 30.7734 35.4511 30.7734 36.6604C30.7734 37.8698 31.7508 38.8502 32.9565 38.8502Z" fill="#3A3123"/>
<path d="M32.9547 39.495C32.2051 39.4944 31.4863 39.1953 30.9564 38.6634C30.4266 38.1315 30.1289 37.4103 30.1289 36.6584C30.13 35.9072 30.4282 35.1872 30.958 34.6562C31.4877 34.1253 32.2058 33.8267 32.9547 33.8262C33.7036 33.8267 34.4217 34.1253 34.9515 34.6562C35.4812 35.1872 35.7794 35.9072 35.7805 36.6584C35.7805 37.4103 35.4829 38.1315 34.953 38.6634C34.4231 39.1953 33.7044 39.4944 32.9547 39.495ZM32.9547 35.1177C32.5467 35.1182 32.1556 35.2809 31.8669 35.5701C31.5782 35.8592 31.4155 36.2513 31.4143 36.6606C31.4149 37.0702 31.5774 37.4628 31.8661 37.7525C32.1549 38.0421 32.5464 38.2051 32.9547 38.2056C33.3631 38.2051 33.7545 38.0421 34.0433 37.7525C34.3321 37.4628 34.4945 37.0702 34.4951 36.6606C34.494 36.2513 34.3312 35.8592 34.0425 35.5701C33.7538 35.2809 33.3627 35.1182 32.9547 35.1177V35.1177Z" fill="#3A3123"/>
<path d="M51.0503 38.8502C52.256 38.8502 53.2334 37.8698 53.2334 36.6604C53.2334 35.4511 52.256 34.4707 51.0503 34.4707C49.8446 34.4707 48.8672 35.4511 48.8672 36.6604C48.8672 37.8698 49.8446 38.8502 51.0503 38.8502Z" fill="#3A3123"/>
<path d="M51.0485 39.495C50.2988 39.4944 49.5801 39.1953 49.0502 38.6634C48.5203 38.1315 48.2227 37.4103 48.2227 36.6584C48.2238 35.9072 48.5219 35.1872 49.0517 34.6562C49.5815 34.1253 50.2996 33.8267 51.0485 33.8262C51.7974 33.8267 52.5155 34.1253 53.0452 34.6562C53.575 35.1872 53.8731 35.9072 53.8743 36.6584C53.8743 37.4103 53.5766 38.1315 53.0467 38.6634C52.5169 39.1953 51.7981 39.4944 51.0485 39.495ZM51.0485 35.1177C50.6405 35.1182 50.2493 35.2809 49.9606 35.5701C49.6719 35.8592 49.5092 36.2513 49.5081 36.6606C49.5087 37.0702 49.6711 37.4628 49.9599 37.7525C50.2486 38.0421 50.6401 38.2051 51.0485 38.2056C51.4568 38.2051 51.8483 38.0421 52.1371 37.7525C52.4258 37.4628 52.5883 37.0702 52.5888 36.6606C52.5877 36.2513 52.425 35.8592 52.1363 35.5701C51.8476 35.2809 51.4565 35.1182 51.0485 35.1177V35.1177Z" fill="#3A3123"/>
<path d="M42.0046 39.3166C42.0046 39.3166 41.8589 44.8543 45.7602 44.8543C47.9969 44.8543 48.7124 43.6251 48.7595 42.4475C48.7685 41.9383 48.6539 41.4345 48.4254 40.9796C48.197 40.5248 47.8617 40.1325 47.4484 39.8366C46.2294 38.9212 44.3998 38.4291 42.0046 39.3166Z" fill="white"/>
<path d="M45.7589 45.4984C45.2457 45.5122 44.7351 45.4189 44.2597 45.2243C43.7843 45.0297 43.3544 44.7381 42.9974 44.368C41.2942 42.6145 41.3563 39.4256 41.3606 39.3009L41.3713 38.8712L41.7805 38.7207C44.0407 37.8827 46.1895 38.0997 47.8306 39.3289C48.3282 39.6866 48.7313 40.1607 49.005 40.71C49.2786 41.2594 49.4146 41.8674 49.401 42.4813C49.371 43.184 49.0239 45.4984 45.7589 45.4984ZM42.6568 39.7758C42.7017 40.6139 42.916 42.4426 43.9186 43.4719C44.157 43.717 44.4439 43.9091 44.7609 44.0361C45.0779 44.1631 45.4179 44.222 45.7589 44.209C47.2736 44.209 48.0684 43.6073 48.1156 42.4211C48.1204 42.0163 48.027 41.6164 47.8434 41.2558C47.6598 40.8953 47.3914 40.585 47.0615 40.3517C46.2131 39.7157 44.7756 39.1269 42.6568 39.7758V39.7758Z" fill="#3A3123"/>
<path d="M42.0037 39.3166C42.0037 39.3166 42.1472 44.8543 38.2459 44.8543C36.0093 44.8543 35.2959 43.6251 35.2466 42.4475C35.2376 41.9383 35.3523 41.4345 35.5807 40.9796C35.8091 40.5248 36.1444 40.1325 36.5577 39.8366C37.781 38.9212 39.6085 38.4291 42.0037 39.3166Z" fill="white"/>
<path d="M38.2445 45.4991C34.9795 45.4991 34.6325 43.1848 34.6025 42.4735C34.5889 41.8596 34.7248 41.2516 34.9985 40.7022C35.2721 40.1529 35.6753 39.6788 36.1729 39.3211C37.8139 38.0919 39.9649 37.8748 42.2251 38.7129L42.6321 38.8633L42.645 39.2931C42.645 39.4264 42.7093 42.6067 41.0082 44.3602C40.6513 44.7317 40.2214 45.0248 39.7457 45.2208C39.2699 45.4169 38.7587 45.5117 38.2445 45.4991ZM39.5857 39.4951C38.635 39.4834 37.7069 39.7854 36.9441 40.3547C36.6142 40.5879 36.3459 40.8982 36.1622 41.2588C35.9786 41.6193 35.8852 42.0192 35.8901 42.4241C35.9372 43.6103 36.732 44.212 38.2467 44.212C38.5878 44.2249 38.9277 44.166 39.2447 44.039C39.5617 43.9121 39.8486 43.7199 40.087 43.4749C41.0896 42.4456 41.3039 40.6168 41.3489 39.7788C40.7785 39.5965 40.1842 39.5009 39.5857 39.4951Z" fill="#3A3123"/>
<path d="M24.7137 40.1383C25.2729 40.0364 25.8371 39.9646 26.404 39.9234C26.961 39.8783 27.5202 39.8611 28.0815 39.8546C28.6428 39.8482 29.2041 39.8697 29.7676 39.9127C30.3349 39.9494 30.8994 40.0211 31.4579 40.1276C31.6807 40.169 31.8932 40.2544 32.0829 40.3788C32.2726 40.5031 32.4358 40.664 32.5631 40.852C32.6904 41.0401 32.7793 41.2516 32.8246 41.4744C32.8699 41.6971 32.8707 41.9266 32.8269 42.1497C32.7562 42.5293 32.56 42.8741 32.27 43.1282C31.9801 43.3824 31.6133 43.5313 31.2287 43.5508H31.1794C30.6652 43.5787 30.1553 43.5808 29.639 43.5873H28.0901H26.5326C26.0184 43.5873 25.4807 43.5873 24.9922 43.5508H24.9279C24.7018 43.5398 24.4801 43.484 24.2756 43.3866C24.0711 43.2892 23.8879 43.1521 23.7365 42.9833C23.5851 42.8144 23.4685 42.6172 23.3936 42.4029C23.3186 42.1887 23.2867 41.9616 23.2997 41.7349C23.3214 41.3479 23.4729 40.9795 23.7295 40.6897C23.9862 40.3998 24.333 40.2055 24.7137 40.1383V40.1383Z" fill="#EFC3B9"/>
<path d="M59.0102 43.5654C58.5239 43.5912 57.984 43.5977 57.4698 43.602H55.9123H54.3633C53.847 43.602 53.3371 43.602 52.823 43.5654H52.7758C52.5493 43.5545 52.3273 43.4985 52.1225 43.4009C51.9177 43.3032 51.7342 43.1657 51.5828 42.9964C51.4313 42.8271 51.3149 42.6294 51.2402 42.4146C51.1655 42.1998 51.134 41.9724 51.1476 41.7453C51.1693 41.3602 51.3184 40.9935 51.5715 40.7031C51.8245 40.4127 52.1669 40.2153 52.5445 40.1422C53.103 40.0358 53.6675 39.964 54.2348 39.9273C54.7982 39.8844 55.3617 39.8672 55.9209 39.8693C56.48 39.8715 57.0413 39.893 57.5984 39.9381C58.1652 39.9793 58.7295 40.0511 59.2887 40.153C59.5117 40.1921 59.7248 40.2751 59.9156 40.3973C60.1065 40.5194 60.2713 40.6783 60.4005 40.8647C60.5298 41.0511 60.621 41.2614 60.6688 41.4834C60.7166 41.7053 60.7201 41.9346 60.6791 42.1579C60.6116 42.5414 60.4164 42.8906 60.1252 43.1482C59.8341 43.4059 59.4644 43.5568 59.0766 43.5762L59.0102 43.5654Z" fill="#EFC3B9"/>
<path d="M43.7829 119.073C43.4988 119.073 43.2264 118.96 43.0255 118.758C42.8246 118.557 42.7118 118.284 42.7118 117.999V108.793C42.7118 108.475 42.7117 108.221 42.2533 107.598C41.9876 107.304 40.4173 105.544 39.7253 104.418L39.6931 104.364C39.3139 103.653 39.134 102.542 39.1018 102.325C39.0808 102.185 39.0875 102.043 39.1213 101.906C39.1552 101.769 39.2156 101.64 39.2992 101.526C39.3828 101.413 39.4878 101.317 39.6083 101.244C39.7289 101.171 39.8625 101.123 40.0016 101.102C40.1409 101.081 40.283 101.088 40.4196 101.122C40.5563 101.156 40.685 101.217 40.7982 101.301C40.9114 101.385 41.007 101.49 41.0795 101.611C41.152 101.732 41.2 101.867 41.2206 102.006C41.283 102.458 41.4003 102.899 41.5699 103.322C42.1076 104.181 43.4123 105.685 43.8751 106.193L43.9393 106.27C44.702 107.291 44.8541 107.989 44.8541 108.793V117.999C44.8541 118.284 44.7413 118.557 44.5404 118.758C44.3395 118.96 44.067 119.073 43.7829 119.073Z" fill="#E8BB89"/>
<path d="M27.4641 74.9237C27.2162 74.9233 26.9762 74.8367 26.7849 74.6787C26.5707 74.5089 21.7418 70.5184 19.3337 68.2664C17.3756 66.4377 15.0639 66.0509 13.7057 67.3252C13.4987 67.5198 13.2232 67.6241 12.9397 67.6153C12.6561 67.6064 12.3876 67.4851 12.1931 67.2779C12.0967 67.175 12.0215 67.0542 11.9717 66.9221C11.9219 66.7901 11.8985 66.6496 11.9029 66.5085C11.9072 66.3674 11.9393 66.2285 11.9972 66.0999C12.0551 65.9712 12.1377 65.8552 12.2403 65.7586C14.4576 63.6742 17.9754 64.0588 20.7927 66.6934C23.1493 68.9003 28.0939 72.9768 28.1432 73.0176C28.3604 73.1983 28.4977 73.4576 28.5254 73.7392C28.5531 74.0209 28.4689 74.3021 28.291 74.5218C28.1915 74.6461 28.0657 74.7467 27.9227 74.8162C27.7797 74.8857 27.623 74.9224 27.4641 74.9237Z" fill="#E8BB89"/>
<path d="M65.5091 96.6422C65.2873 96.6422 65.0709 96.5731 64.8899 96.4445C64.0073 95.817 63.1118 94.7748 62.0706 93.1588C60.3566 90.4942 59.9603 90.0365 59.9453 90.0171C59.9612 90.0389 59.9799 90.0584 60.001 90.0751L61.46 88.5C61.7192 88.745 62.5312 89.9183 63.868 91.992C64.7464 93.3501 65.4855 94.2332 66.1282 94.691C66.2439 94.7726 66.3423 94.8763 66.4178 94.9963C66.4933 95.1162 66.5444 95.25 66.5681 95.3898C66.5918 95.5296 66.5877 95.6728 66.5559 95.8111C66.5242 95.9493 66.4655 96.0798 66.3832 96.1952C66.2835 96.3341 66.1522 96.4472 66.0001 96.525C65.8481 96.6027 65.6797 96.6429 65.5091 96.6422V96.6422Z" fill="#E8BB89"/>
<path d="M82.5641 86.2559C82.3499 86.4944 82.1549 86.7329 81.9535 86.9714C81.8614 87.081 81.7736 87.1863 81.6836 87.3024C83.239 87.8933 85.6813 89.1612 87.1317 91.6131C87.1788 91.555 87.2238 91.4949 87.2731 91.439C87.5173 91.1489 87.7637 90.8631 88.01 90.5794C86.4868 88.2414 84.2138 86.9414 82.5641 86.2559Z" fill="white"/>
<path d="M80.6405 88.6113C80.3641 88.968 80.092 89.3269 79.8242 89.6858C81.3967 90.2982 83.8133 91.5832 85.2337 94.033C85.5123 93.6634 85.7915 93.2966 86.0714 92.9327C84.5525 90.5948 82.2901 89.3054 80.6405 88.6113Z" fill="white"/>
<path d="M46.823 75.1568H40.7194C37.9685 75.0859 35.3205 74.9161 32.8439 74.6518C32.5616 74.6215 32.3028 74.48 32.1244 74.2584C31.946 74.0367 31.8627 73.7531 31.8927 73.4699C31.9229 73.1867 32.064 72.9271 32.285 72.7482C32.5059 72.5693 32.7887 72.4857 33.071 72.5158C35.4855 72.7737 38.0735 72.9456 40.76 73.0079H46.8102C48.4448 72.9649 50.0494 72.8876 51.5791 72.7758C51.7195 72.7656 51.8606 72.7832 51.9942 72.8276C52.1278 72.8721 52.2514 72.9426 52.3578 73.035C52.4643 73.1274 52.5515 73.2399 52.6146 73.3662C52.6776 73.4924 52.7152 73.6299 52.7253 73.7708C52.7355 73.9116 52.7179 74.0531 52.6736 74.1871C52.6293 74.3211 52.559 74.445 52.4669 74.5518C52.3748 74.6586 52.2626 74.7461 52.1367 74.8094C52.0108 74.8726 51.8738 74.9103 51.7334 74.9204C50.1673 75.0343 48.5198 75.1138 46.8509 75.1568H46.823Z" fill="#E8BB89"/>
</g>
<defs>
<clipPath id="clip0_714_2334">
<rect width="91" height="124" fill="white"/>
</clipPath>
</defs>
</svg>
