<svg width="79" height="150" viewBox="0 0 79 150" fill="none" xmlns="http://www.w3.org/2000/svg">
<g clip-path="url(#clip0_714_2115)">
<path d="M39.5008 68.3833H39.5316C50.2892 68.3833 54.4779 63.8056 69.2903 63.8056C78.3844 33.028 66.3108 13.7214 66.3108 13.7214L58.6955 9.80547C52.376 8.61343 45.9477 8.03766 39.508 8.08689C33.0684 8.03766 26.64 8.61343 20.3205 9.80547L12.707 13.7284C12.707 13.7284 0.633409 33.0349 9.72756 63.8126C24.54 63.8126 28.7341 68.3902 39.4863 68.3902L39.5008 68.3833Z" fill="#D6A676"/>
<path d="M39.9064 53.2376H41.0812C42.6217 53.2432 44.152 52.9965 45.6065 52.5081C50.34 50.9009 51.2904 46.1335 50.1047 42.8844C48.9299 39.6631 44.696 36.5708 44.696 36.5708L44.6164 36.5046C43.5607 35.6384 42.688 34.585 42.046 33.4017C41.81 32.9502 41.4479 32.5709 41.0003 32.3064C40.5526 32.0418 40.0371 31.9026 39.5118 31.9043C38.9882 31.9042 38.4748 32.0441 38.0292 32.3086C37.5836 32.573 37.2232 32.9515 36.9884 33.4017C36.3457 34.5851 35.4725 35.6385 34.4162 36.5046L34.3384 36.5708C34.3384 36.5708 30.1045 39.6631 28.9279 42.8844C27.7422 46.1335 28.6926 50.894 33.4279 52.5081C34.8823 52.9967 36.4127 53.2434 37.9532 53.2376H39.9082H39.9064Z" fill="#F2DBAD"/>
<path d="M29.2506 38.2629C30.2843 38.2629 31.1223 37.4569 31.1223 36.4625C31.1223 35.4682 30.2843 34.6621 29.2506 34.6621C28.2169 34.6621 27.3789 35.4682 27.3789 36.4625C27.3789 37.4569 28.2169 38.2629 29.2506 38.2629Z" fill="#263331"/>
<path d="M49.7779 38.2629C50.8116 38.2629 51.6496 37.4569 51.6496 36.4625C51.6496 35.4682 50.8116 34.6621 49.7779 34.6621C48.7442 34.6621 47.9062 35.4682 47.9062 36.4625C47.9062 37.4569 48.7442 38.2629 49.7779 38.2629Z" fill="#263331"/>
<path d="M36.0051 48.4812C34.9343 48.4798 33.9078 48.0702 33.1504 47.342C32.3931 46.6138 31.9668 45.6266 31.9648 44.5966C31.9648 44.458 32.0221 44.3252 32.1239 44.2272C32.2257 44.1293 32.3639 44.0742 32.5079 44.0742C32.6519 44.0742 32.79 44.1293 32.8919 44.2272C32.9937 44.3252 33.0509 44.458 33.0509 44.5966C33.0519 45.3498 33.3635 46.0719 33.9174 46.6043C34.4712 47.1367 35.222 47.436 36.0051 47.4365C36.7881 47.436 37.539 47.1367 38.0928 46.6043C38.6467 46.0719 38.9583 45.3498 38.9592 44.5966C38.9592 44.458 39.0164 44.3252 39.1183 44.2272C39.2201 44.1293 39.3582 44.0742 39.5023 44.0742C39.6463 44.0742 39.7844 44.1293 39.8863 44.2272C39.9881 44.3252 40.0453 44.458 40.0453 44.5966C40.0439 45.6267 39.6177 46.6143 38.8603 47.3425C38.1028 48.0708 37.076 48.4803 36.0051 48.4812V48.4812Z" fill="#263331"/>
<path d="M43.0129 48.4809C41.942 48.48 40.9151 48.0705 40.1577 47.3422C39.4003 46.614 38.9741 45.6264 38.9727 44.5963V40.8388C38.9727 40.7002 39.0299 40.5674 39.1317 40.4694C39.2335 40.3714 39.3717 40.3164 39.5157 40.3164C39.6597 40.3164 39.7978 40.3714 39.8997 40.4694C40.0015 40.5674 40.0587 40.7002 40.0587 40.8388V44.5963C40.0597 45.3495 40.3713 46.0716 40.9252 46.604C41.479 47.1365 42.2299 47.4357 43.0129 47.4362C43.7956 47.4353 44.546 47.1358 45.0994 46.6034C45.6529 46.071 45.9643 45.3492 45.9652 44.5963C45.9652 44.4578 46.0224 44.3249 46.1243 44.2269C46.2261 44.129 46.3642 44.0739 46.5083 44.0739C46.6523 44.0739 46.7904 44.129 46.8923 44.2269C46.9941 44.3249 47.0513 44.4578 47.0513 44.5963C47.0499 45.6261 46.6239 46.6134 45.8669 47.3416C45.1099 48.0698 44.0835 48.4796 43.0129 48.4809V48.4809Z" fill="#263331"/>
<path d="M43.6159 38.3693L41.7442 38.1395C41.0046 38.0484 40.2598 38.0025 39.5141 38.002C38.7685 38.0026 38.0237 38.0485 37.2841 38.1395L35.4142 38.3693C35.2922 38.3841 35.1751 38.4245 35.0713 38.4878C34.9675 38.5511 34.8795 38.6357 34.8136 38.7355C34.7477 38.8353 34.7056 38.9479 34.6902 39.0652C34.6748 39.1825 34.6865 39.3016 34.7245 39.4141L34.7824 39.5882C35.0362 40.3539 35.5451 41.0179 36.2305 41.4774L38.3828 42.9087C38.7141 43.1293 39.1059 43.2504 39.5087 43.2569C39.9116 43.251 40.3036 43.1297 40.6346 42.9087L42.7887 41.4774C43.475 41.0187 43.9842 40.3544 44.2368 39.5882L44.2947 39.4141C44.3327 39.3024 44.3447 39.1841 44.33 39.0674C44.3152 38.9508 44.274 38.8387 44.2093 38.7391C44.1445 38.6394 44.0578 38.5547 43.9553 38.4908C43.8528 38.4269 43.7369 38.3854 43.6159 38.3693V38.3693Z" fill="#263331"/>
<path d="M30.4986 9.14486C30.4986 9.14486 26.3986 4.6386 24.7749 2.70238C22.7837 0.327369 20.6116 -0.405681 18.0574 0.188072C14.6182 0.992511 12.4985 3.88466 12.5039 14.6941L30.4986 9.14486Z" fill="#D6A676"/>
<path d="M17.9529 11.3073C17.7894 11.3596 17.6158 11.3758 17.4449 11.3548C17.274 11.3338 17.1102 11.2761 16.9656 11.186C16.821 11.0959 16.6993 10.9757 16.6095 10.8342C16.5197 10.6928 16.4641 10.5337 16.4469 10.3688C16.2459 8.39427 16.8451 6.05409 18.8562 5.41506C20.6862 4.83524 22.7968 6.31701 23.8558 8.02688C23.9438 8.16941 23.9974 8.32914 24.0127 8.49427C24.028 8.65941 24.0046 8.82574 23.9441 8.981C23.8837 9.13625 23.7877 9.27647 23.6634 9.3913C23.5391 9.50613 23.3896 9.59265 23.2258 9.64446L17.9529 11.3073Z" fill="#F2DBAD"/>
<path d="M53.5469 9.59679C53.5469 9.59679 54.9588 6.53052 56.6838 6.32854C58.6605 6.0987 63.2528 6.68549 64.2466 6.73773C66.1274 6.83872 68.6525 7.43421 68.9657 9.94852C69.2788 12.4628 69.5938 18.0051 65.3074 18.2785C61.0209 18.5518 59.848 17.1885 58.9719 15.2279C58.0414 13.1384 58.0831 10.652 57.0386 10.6015" fill="#D6A676"/>
<path d="M39.4762 131.142C48.7749 131.142 57.9722 130.839 69.2621 128.704C76.7199 81.89 69.2621 63.7988 69.2621 63.7988H9.72473C9.72473 63.7988 2.26694 81.89 9.72473 128.704C21.0128 130.834 30.2101 131.142 39.5088 131.142H39.4762Z" fill="#D6A676"/>
<path d="M9.73047 128.711C10.9813 135.702 13.7816 141.892 15.8524 145.775C16.5345 147.05 17.5691 148.12 18.8424 148.867C20.1156 149.613 21.5783 150.007 23.0694 150.006V150.006C25.1132 150.006 27.0819 149.264 28.5824 147.929C30.0829 146.594 31.0049 144.764 31.1643 142.804L32.312 128.716" fill="#D6A676"/>
<path d="M69.269 128.711C68.0164 135.702 65.2179 141.892 63.1471 145.775C62.4648 147.05 61.4302 148.12 60.157 148.866C58.8837 149.613 57.4212 150.007 55.9301 150.006C53.8862 150.006 51.9176 149.264 50.4171 147.929C48.9166 146.594 47.9946 144.764 47.8351 142.804L46.6875 128.716" fill="#D6A676"/>
<path d="M9.73109 63.8047C9.73109 63.8047 1.15463 79.432 0.10837 93.9119C-0.479926 102.064 1.29944 110.124 6.12165 112.74C6.76014 113.088 7.47338 113.291 8.20628 113.332C8.93918 113.373 9.67213 113.252 10.3485 112.977C11.0248 112.703 11.6265 112.282 12.107 111.748C12.5875 111.214 12.934 110.581 13.1197 109.898C13.1197 109.865 13.136 109.832 13.145 109.799C13.9813 106.49 14.5298 100.426 14.8085 97.9864C15.2792 93.8684 15.6539 91.7999 16.9083 86.2698" fill="#D6A676"/>
<path d="M69.267 63.8047C69.267 63.8047 77.8489 79.4321 78.8897 93.905C79.478 102.057 77.6987 110.117 72.8765 112.733C72.238 113.081 71.5247 113.284 70.7918 113.325C70.0589 113.366 69.326 113.245 68.6496 112.97C67.9733 112.696 67.3716 112.275 66.8911 111.741C66.4106 111.207 66.0641 110.574 65.8785 109.891C65.8785 109.858 65.8604 109.825 65.8531 109.792C65.0168 106.484 64.4684 100.419 64.1896 97.9794C63.719 93.8615 63.3443 91.7929 62.0898 86.2628" fill="#D6A676"/>
<path d="M9.12125 114.169C8.90268 114.169 8.69175 114.092 8.52739 113.953C8.36302 113.815 8.25634 113.624 8.22705 113.415C8.21099 113.302 8.21829 113.187 8.24853 113.076C8.27877 112.966 8.33137 112.862 8.40331 112.771C8.47526 112.68 8.56514 112.603 8.66783 112.546C8.77052 112.488 8.884 112.45 9.0018 112.435C9.76602 112.34 10.4831 112.027 11.0607 111.536C11.6382 111.046 12.0497 110.4 12.242 109.682L12.2637 109.593C12.9461 106.886 13.4457 102.193 13.7444 99.388C13.8059 98.8082 13.8602 98.2998 13.9073 97.8906C14.3761 93.7831 14.7508 91.6867 16.0233 86.0835C16.0486 85.9708 16.0968 85.8642 16.1653 85.7696C16.2337 85.6751 16.3209 85.5946 16.422 85.5327C16.523 85.4708 16.6358 85.4289 16.7538 85.4092C16.8718 85.3896 16.9927 85.3927 17.1094 85.4183C17.2265 85.4426 17.3374 85.489 17.4356 85.5548C17.5339 85.6207 17.6177 85.7046 17.682 85.8018C17.7463 85.8989 17.7899 86.0074 17.8103 86.1209C17.8307 86.2344 17.8275 86.3507 17.8009 86.463C16.5465 91.9931 16.1718 94.0582 15.7156 98.0891C15.6685 98.4948 15.6142 98.9997 15.5545 99.5743C15.2504 102.423 14.7436 107.19 14.0322 110.022L14.0032 110.133C13.7188 111.185 13.1134 112.13 12.2653 112.848C11.4171 113.566 10.365 114.023 9.24435 114.16C9.20356 114.166 9.16243 114.169 9.12125 114.169Z" fill="#C1864C"/>
<path d="M69.8856 114.17C69.8446 114.172 69.8035 114.172 69.7625 114.17C68.6372 114.031 67.5812 113.57 66.7316 112.847C65.882 112.124 65.2781 111.172 64.9982 110.114L64.9711 110.006C64.2579 107.182 63.751 102.413 63.4488 99.559C63.3872 98.9844 63.3329 98.4812 63.2877 98.0755C62.8261 94.0429 62.4568 91.9813 61.2024 86.4495C61.1757 86.3372 61.1725 86.2209 61.1929 86.1074C61.2133 85.9939 61.257 85.8854 61.3213 85.7882C61.3856 85.691 61.4693 85.6071 61.5676 85.5413C61.6659 85.4754 61.7768 85.429 61.8938 85.4047C62.1284 85.3556 62.3736 85.398 62.5756 85.5228C62.7775 85.6475 62.9198 85.8443 62.9709 86.0699C64.238 91.6731 64.6163 93.7695 65.0869 97.877C65.134 98.2845 65.1865 98.7929 65.2499 99.3727C65.5467 102.178 66.0463 106.872 66.7288 109.581L66.7523 109.667C66.9439 110.385 67.3549 111.031 67.9321 111.522C68.5094 112.013 69.2264 112.326 69.9906 112.421C70.1086 112.437 70.2223 112.474 70.3252 112.532C70.428 112.589 70.5181 112.666 70.5903 112.757C70.6624 112.848 70.7151 112.951 70.7455 113.062C70.7758 113.173 70.7832 113.288 70.7672 113.402C70.7414 113.61 70.638 113.803 70.4759 113.944C70.3139 114.086 70.1042 114.166 69.8856 114.17V114.17Z" fill="#C1864C"/>
<path d="M54.8255 43.0312C54.6875 43.0315 54.5546 42.9812 54.4537 42.8907C54.3528 42.8001 54.2916 42.6761 54.2824 42.5436C54.2777 42.4751 54.2872 42.4064 54.3101 42.3415C54.3331 42.2765 54.3691 42.2165 54.4162 42.1649C54.4632 42.1133 54.5204 42.0711 54.5844 42.0408C54.6484 42.0105 54.718 41.9926 54.7892 41.9882C54.8254 41.9882 55.6762 41.9325 56.8781 41.9064C56.9495 41.905 57.0204 41.9171 57.0868 41.9421C57.1532 41.9671 57.2139 42.0044 57.2653 42.0519C57.3168 42.0995 57.358 42.1563 57.3866 42.2192C57.4152 42.282 57.4306 42.3497 57.432 42.4183C57.4349 42.5565 57.3808 42.6902 57.2813 42.7901C57.1819 42.89 57.0454 42.9479 56.9017 42.9511C55.7269 42.9755 54.8689 43.0294 54.8616 43.0312H54.8255Z" fill="#F2DBAD"/>
<path d="M58.2283 45.9994C56.9431 45.9838 55.8751 45.9803 55.8751 45.9803C55.7311 45.9803 55.5929 45.9252 55.4911 45.8273C55.3892 45.7293 55.332 45.5965 55.332 45.4579C55.332 45.3194 55.3892 45.1865 55.4911 45.0885C55.5929 44.9906 55.7311 44.9355 55.8751 44.9355C55.8751 44.9355 56.9612 44.9355 58.2446 44.9547C58.3886 44.9547 58.5267 45.0097 58.6285 45.1077C58.7304 45.2057 58.7876 45.3385 58.7876 45.4771C58.7876 45.547 58.7731 45.6162 58.7448 45.6806C58.7165 45.7451 58.675 45.8034 58.6228 45.8521C58.5707 45.9008 58.5089 45.9389 58.4411 45.9643C58.3733 45.9896 58.3009 46.0015 58.2283 45.9994V45.9994Z" fill="#F2DBAD"/>
<path d="M24.171 43.0312H24.1348C24.1348 43.0312 23.2678 42.9755 22.0948 42.9511C22.0235 42.9498 21.9531 42.9349 21.8878 42.9074C21.8224 42.8799 21.7634 42.8402 21.7139 42.7908C21.6645 42.7413 21.6257 42.6829 21.5998 42.619C21.5738 42.5551 21.5612 42.4869 21.5626 42.4183C21.564 42.3496 21.5795 42.2818 21.6082 42.2188C21.637 42.1558 21.6783 42.0989 21.7299 42.0513C21.7816 42.0038 21.8425 41.9665 21.9091 41.9416C21.9758 41.9168 22.0468 41.9048 22.1183 41.9064C23.3184 41.9325 24.171 41.9865 24.2072 41.9882C24.3507 41.9976 24.4844 42.0614 24.5791 42.1655C24.6738 42.2696 24.7217 42.4056 24.7122 42.5437C24.7031 42.6758 24.6421 42.7996 24.5416 42.8901C24.4411 42.9806 24.3087 43.0311 24.171 43.0312V43.0312Z" fill="#F2DBAD"/>
<path d="M20.7735 45.9994C20.6295 45.9994 20.4914 45.9444 20.3895 45.8464C20.2877 45.7485 20.2305 45.6156 20.2305 45.4771C20.2305 45.3385 20.2877 45.2057 20.3895 45.1077C20.4914 45.0097 20.6295 44.9547 20.7735 44.9547C22.0623 44.939 23.143 44.9355 23.143 44.9355C23.287 44.9355 23.4252 44.9906 23.527 45.0885C23.6288 45.1865 23.686 45.3194 23.686 45.4579C23.686 45.5964 23.6288 45.7293 23.527 45.8273C23.4252 45.9252 23.287 45.9803 23.143 45.9803C23.143 45.9803 22.0569 45.9803 20.7898 45.9994H20.7735Z" fill="#F2DBAD"/>
<path d="M64.2633 19.1849C60.538 19.1849 59.1315 17.7919 58.1468 15.5701C57.7997 14.7328 57.5284 13.8683 57.3359 12.9861C57.2001 12.4377 57.0191 11.7011 56.858 11.4556C56.6457 11.4142 56.4559 11.301 56.3231 11.1364C56.1902 10.9719 56.1231 10.767 56.1339 10.5589C56.14 10.4447 56.1693 10.3327 56.2204 10.2294C56.2714 10.1261 56.3431 10.0335 56.4313 9.95683C56.5196 9.88018 56.6227 9.82102 56.7347 9.78271C56.8467 9.7444 56.9655 9.7277 57.0843 9.73357C58.4021 9.79625 58.7369 11.1509 59.0899 12.5839C59.2614 13.3696 59.5006 14.1401 59.8049 14.8876C60.529 16.5208 61.3453 17.6578 65.2353 17.4106C65.7656 17.3936 66.2785 17.2251 66.7088 16.9265C66.8039 16.8579 66.9121 16.808 67.0272 16.7796C67.1423 16.7512 67.2622 16.745 67.3798 16.7611C67.4975 16.7773 67.6107 16.8156 67.713 16.8739C67.8152 16.9321 67.9046 17.0092 67.9759 17.1006C68.0472 17.1921 68.0991 17.2962 68.1286 17.4069C68.1581 17.5177 68.1646 17.6329 68.1478 17.7461C68.131 17.8593 68.0912 17.9682 68.0306 18.0666C67.9701 18.1649 67.8899 18.2509 67.7949 18.3195C67.0844 18.8199 66.2363 19.1076 65.3566 19.1465C64.9765 19.1721 64.6121 19.1849 64.2633 19.1849Z" fill="#C1864C"/>
<path d="M39.5158 132.013H39.4832C39.2432 132.013 39.013 131.921 38.8432 131.758C38.6735 131.594 38.5781 131.373 38.5781 131.142C38.5781 130.911 38.6735 130.69 38.8432 130.526C39.013 130.363 39.2432 130.271 39.4832 130.271H39.5158C39.7558 130.271 39.986 130.363 40.1558 130.526C40.3255 130.69 40.4209 130.911 40.4209 131.142C40.4209 131.373 40.3255 131.594 40.1558 131.758C39.986 131.921 39.7558 132.013 39.5158 132.013Z" fill="#C1864C"/>
<path d="M39.4974 132.013C36.2029 132.013 31.8296 131.979 27.2138 131.714C26.9746 131.7 26.7508 131.595 26.5917 131.423C26.4325 131.251 26.3509 131.025 26.3648 130.795C26.3788 130.564 26.4873 130.348 26.6666 130.195C26.8458 130.042 27.081 129.963 27.3206 129.976C31.8894 130.237 36.2283 130.272 39.4974 130.272C42.7665 130.272 47.1 130.237 51.6742 129.976C51.793 129.969 51.912 129.985 52.0244 130.023C52.1368 130.06 52.2404 130.118 52.3294 130.194C52.4183 130.27 52.4908 130.363 52.5427 130.466C52.5946 130.568 52.6248 130.68 52.6318 130.795C52.6456 131.025 52.564 131.251 52.4049 131.423C52.2457 131.595 52.022 131.7 51.7828 131.714C47.167 131.979 42.7937 132.013 39.4974 132.013Z" fill="#C1864C"/>
<path d="M39.5324 69.2538H39.5016C34.8405 69.2538 31.3559 68.4146 27.6234 67.4012C27.3925 67.3383 27.1971 67.1898 27.08 66.9884C26.9629 66.7869 26.9337 66.549 26.9989 66.3269C27.0643 66.1052 27.2184 65.9174 27.4274 65.8048C27.6364 65.6922 27.8833 65.6639 28.114 65.7261C31.8519 66.7378 35.0649 67.5126 39.5016 67.5126H39.5324C43.969 67.5126 47.1802 66.7378 50.9181 65.7261C51.149 65.6634 51.3964 65.6914 51.6059 65.8041C51.8153 65.9167 51.9696 66.1048 52.035 66.3269C52.0673 66.437 52.0766 66.5521 52.0626 66.6657C52.0486 66.7793 52.0114 66.8891 51.9533 66.9889C51.8951 67.0886 51.8171 67.1764 51.7236 67.2472C51.6302 67.3179 51.5232 67.3702 51.4087 67.4012C47.6671 68.4146 44.1917 69.2538 39.5324 69.2538Z" fill="#C1864C"/>
</g>
<defs>
<clipPath id="clip0_714_2115">
<rect width="79" height="150" fill="white"/>
</clipPath>
</defs>
</svg>
