<svg width="96" height="149" viewBox="0 0 96 149" fill="none" xmlns="http://www.w3.org/2000/svg">
<g clip-path="url(#clip0_714_2267)">
<path d="M88.4704 99.439H88.506C90.0103 99.3962 91.4607 98.8631 92.641 97.9191C93.8212 96.9752 94.6683 95.6709 95.0558 94.2007C95.5298 92.3935 95.2749 90.47 94.3471 88.8527C93.4193 87.2353 91.8944 86.0565 90.1074 85.5751C86.6397 84.6425 83.1524 83.8913 79.6776 83.1905C76.2027 82.4897 72.735 81.8733 69.2957 81.2803L59.1004 79.557L56.612 79.1131C55.7909 78.9622 54.9555 78.8274 54.1468 78.6675C53.338 78.5075 52.5151 78.3602 51.7188 78.193L50.5173 77.9576L49.3388 77.7025L48.7487 77.5749L48.4537 77.512L48.1391 77.4383L46.8949 77.149L44.3834 76.5937L39.4066 75.4634C37.7679 75.0645 36.0989 74.7212 34.485 74.3097C32.8444 73.9503 31.2519 73.5173 29.6451 73.1345C28.8559 72.9296 28.0685 72.7122 27.2758 72.5181L24.9492 71.8784C23.4241 71.4381 21.9098 70.9979 20.4345 70.5055C18.9593 70.0131 17.4876 69.5028 15.911 68.9151C14.3344 68.3275 12.6334 67.6788 10.7885 67.0732C9.21099 66.5569 7.51069 66.57 5.94115 67.1105C4.37161 67.651 3.01692 68.6899 2.07914 70.0724C0.931762 71.7713 0.498447 73.8612 0.874389 75.8829C1.25033 77.9047 2.40478 79.6928 4.08407 80.8544L4.27248 80.9856C5.60377 81.9057 7.01859 82.8832 8.60404 83.8608C9.38255 84.3586 10.2268 84.8473 11.0604 85.3361C11.894 85.8249 12.7721 86.2921 13.6554 86.7324C14.5388 87.1727 15.4187 87.6021 16.3091 88.019C17.1996 88.4359 18.0866 88.7953 18.9753 89.1853L21.6414 90.2347L22.2901 90.4683C22.2315 91.3381 22.1888 92.1737 22.1444 93.0291C22.1071 94.0875 22.052 95.1477 22.0324 96.2044C21.9702 98.3194 21.9507 100.433 21.9489 102.55C21.9471 104.666 21.9791 106.782 22.0431 108.898L22.1444 112.079L22.2955 115.263C22.3897 117.387 22.5319 119.519 22.6901 121.65C22.7754 122.728 22.8518 123.787 22.946 124.856L23.2642 128.074C23.3228 128.613 23.3655 129.152 23.4419 129.691L23.6463 131.309C23.785 132.387 23.9023 133.465 24.0853 134.561L24.3413 136.2C24.4284 136.75 24.503 137.278 24.615 137.844C24.823 138.957 25.0451 140.067 25.2691 141.173C25.6878 143.245 26.8349 145.094 28.4982 146.378C30.1614 147.661 32.2282 148.292 34.3161 148.154C36.3521 148.019 38.2754 147.161 39.7466 145.732C41.2179 144.302 42.1424 142.394 42.3572 140.342V140.342C42.9668 135.047 44.5363 128.522 50.1547 128.628C56.1606 128.743 59.3333 128.831 62.7441 129.92C66.0288 130.969 73.1367 136.633 78.1437 144.102C79.1066 145.686 80.5442 146.919 82.2476 147.621C83.951 148.323 85.8314 148.457 87.6155 148.005C89.8378 147.439 91.7471 146.005 92.9236 144.017C94.1002 142.029 94.4477 139.649 93.8898 137.402C93.5983 136.231 93.3032 135.056 92.9904 133.884C92.6634 132.755 92.3079 131.659 91.9631 130.543C91.7853 129.979 91.6076 129.449 91.4174 128.913L90.8504 127.309C90.6584 126.77 90.4754 126.23 90.2763 125.709L89.6737 124.144C88.0741 119.963 86.3251 115.925 84.4837 111.959C82.6423 107.993 80.7351 104.081 78.7142 100.24L78.2858 99.439C81.6736 99.5055 85.0667 99.5306 88.4704 99.439Z" fill="white"/>
<path d="M85.4666 149.001C83.8738 149.001 82.3075 148.588 80.9177 147.802C79.5279 147.015 78.361 145.881 77.5287 144.508C74.3507 139.775 67.1841 132.109 62.5131 130.621C59.2515 129.581 56.189 129.478 50.1227 129.363C46.1751 129.291 43.9231 132.81 43.045 140.442L42.9491 141.283H42.9206C42.5243 143.332 41.4676 145.191 39.9156 146.568C38.3637 147.946 36.4039 148.765 34.3428 148.897C32.0857 149.041 29.8528 148.357 28.0544 146.97C26.2559 145.584 25.0126 143.588 24.5528 141.349C24.3271 140.231 24.1067 139.133 23.8969 138.01C23.8134 137.592 23.7476 137.177 23.6854 136.776C23.6641 136.634 23.6428 136.492 23.6197 136.35L23.3637 134.706C23.2268 133.884 23.1238 133.061 23.026 132.265C22.9922 131.989 22.9567 131.712 22.9211 131.435L22.7167 129.809C22.6705 129.449 22.635 129.09 22.6012 128.731C22.5834 128.551 22.5656 128.371 22.5461 128.181L22.2262 124.946C22.164 124.238 22.1106 123.539 22.0484 122.838C22.02 122.468 21.991 122.098 21.9613 121.728C21.8316 119.974 21.6698 117.665 21.565 115.316L21.4157 112.134L21.3126 108.942C21.245 106.707 21.2273 104.468 21.2184 102.573C21.2184 100.09 21.2468 98.0684 21.3019 96.2031C21.3143 95.5059 21.3446 94.7907 21.373 94.1006L21.4157 93.0224C21.4494 92.354 21.4832 91.6765 21.5276 90.9828L21.3766 90.9271L18.6642 89.8633L17.7915 89.486C17.1979 89.2326 16.5864 88.9684 15.9803 88.6917C15.1503 88.3035 14.2136 87.8651 13.2964 87.3906C12.5748 87.0312 11.8585 86.6359 11.1635 86.2532L10.6641 85.9764L10.3228 85.7769C9.61184 85.3582 8.86889 84.9252 8.18991 84.4885C6.57246 83.4822 5.11854 82.4777 3.83702 81.5899L3.64685 81.4606C1.81241 80.1892 0.551519 78.2343 0.140687 76.0244C-0.270145 73.8146 0.202623 71.5302 1.45531 69.6722C2.48447 68.1653 3.96572 67.0329 5.68029 66.4423C7.39486 65.8518 9.25181 65.8344 10.9769 66.3927C12.6921 66.957 14.3202 67.568 15.7564 68.1071L16.1261 68.2454C17.4449 68.736 19.0108 69.3092 20.6176 69.825C22.0715 70.3102 23.5735 70.7469 25.1127 71.1907L27.4233 71.825C27.9566 71.9562 28.4898 72.0964 28.9999 72.233L29.7926 72.4414C30.4129 72.5906 31.0368 72.7469 31.6802 72.9068C32.6347 73.144 33.6229 73.392 34.6094 73.6113H34.6307C35.5195 73.8395 36.4562 74.0497 37.3573 74.2546C38.0683 74.4181 38.8183 74.587 39.5453 74.7649L44.5221 75.8917L47.03 76.4469L49.4775 76.9986L50.6577 77.2538L51.8468 77.4856C52.492 77.6222 53.1603 77.7498 53.8019 77.8719L54.2659 77.96C54.7618 78.0588 55.2772 78.1397 55.7749 78.2349C56.093 78.2907 56.4112 78.3464 56.7276 78.4146L59.216 78.8567L69.4059 80.5782C73.6041 81.297 76.8124 81.8936 79.8073 82.492C82.9036 83.1174 86.5615 83.8901 90.2834 84.8892C92.2526 85.4211 93.9328 86.7212 94.9551 88.504C95.9774 90.2868 96.2584 92.4069 95.7365 94.3989C95.3039 96.0162 94.369 97.4502 93.0695 98.4896C91.77 99.5291 90.1746 100.119 88.5184 100.173H88.4633C85.3066 100.257 82.1979 100.237 79.4607 100.198C81.4976 104.079 83.3959 107.939 85.104 111.677C87.0912 115.956 88.7957 119.956 90.3118 123.906L90.9144 125.467C91.0477 125.827 91.1739 126.186 91.2965 126.529C91.3623 126.709 91.4263 126.899 91.4938 127.083L92.0608 128.7C92.2385 129.214 92.4394 129.767 92.6189 130.36L92.9104 131.3C93.1575 132.084 93.4116 132.894 93.6463 133.71C93.9751 134.937 94.2772 136.138 94.5545 137.256C95.1517 139.685 94.7733 142.254 93.5019 144.402C92.2306 146.55 90.1698 148.101 87.7701 148.717C87.0167 148.906 86.243 149.002 85.4666 149.001V149.001ZM50.0001 127.918H50.1494C56.3561 128.037 59.4915 128.143 62.9468 129.245C66.6793 130.436 73.9098 136.533 78.7195 143.709L78.7373 143.736C79.6166 145.194 80.9353 146.329 82.4997 146.973C84.0641 147.618 85.7918 147.738 87.4289 147.317C88.4402 147.063 89.3916 146.608 90.2282 145.98C91.0647 145.352 91.7698 144.562 92.3025 143.656C92.8407 142.754 93.1963 141.753 93.3489 140.711C93.5014 139.668 93.4479 138.606 93.1912 137.584C92.9158 136.476 92.6154 135.282 92.3025 134.078C92.075 133.293 91.8244 132.49 91.5809 131.714C91.4814 131.4 91.3824 131.084 91.2841 130.767C91.1063 130.199 90.9286 129.665 90.7508 129.165L90.1839 127.548C90.1181 127.368 90.0523 127.176 89.9848 126.988C89.8657 126.648 89.7431 126.297 89.6169 125.965L89.0143 124.405C87.5089 120.486 85.815 116.515 83.8438 112.263C82.1037 108.457 80.1681 104.527 78.0903 100.582L77.7633 100.018L77.0523 98.7046L78.2681 98.7243C81.2701 98.7764 84.8267 98.816 88.4384 98.7243H88.4918C89.8383 98.6765 91.1343 98.1939 92.1898 97.3473C93.2453 96.5007 94.0049 95.3346 94.3572 94.0198C94.7822 92.3961 94.5531 90.6684 93.7201 89.2152C92.8872 87.7621 91.5184 86.702 89.9137 86.2675C86.238 85.2774 82.6014 84.5119 79.5283 83.8919C76.5458 83.2971 73.35 82.7077 69.1659 81.9853L58.9725 80.262L56.4698 79.8181L55.5243 79.651C55.0195 79.5629 54.4969 79.4713 53.9904 79.3706L53.5318 79.2826C52.8795 79.1586 52.2058 79.031 51.5553 78.8944L50.3626 78.659L47.9614 78.1361L46.7083 77.8468L44.2039 77.2933L39.2147 76.163C38.4877 75.9833 37.7519 75.818 37.0391 75.6562C36.1327 75.4496 35.196 75.2375 34.2877 75.0057C33.2853 74.7829 32.2935 74.5349 31.3319 74.2869C30.7027 74.1306 30.0752 73.9743 29.446 73.8233C29.1652 73.7514 28.8986 73.6795 28.632 73.6095C28.1201 73.4729 27.5922 73.3327 27.0732 73.2069H27.0536L24.727 72.5672C23.1646 72.1162 21.6485 71.6687 20.1768 71.1835C18.5505 70.6624 16.965 70.082 15.6284 69.5842L15.2587 69.4458C13.7657 68.8852 12.2211 68.3065 10.5343 67.7513C9.1018 67.2869 7.55949 67.3009 6.13543 67.7911C4.71136 68.2814 3.48113 69.222 2.62662 70.4737C1.58569 72.0164 1.19253 73.9135 1.53341 75.7489C1.8743 77.5842 2.92137 79.2079 4.44491 80.2638L4.63508 80.3949C5.90416 81.2719 7.34388 82.2674 8.93822 83.2593C9.60653 83.6852 10.3335 84.1129 11.0356 84.5172L11.3697 84.7131L11.8443 84.9755C12.525 85.3511 13.2271 85.7392 13.931 86.0896C14.8339 86.5568 15.7546 86.9881 16.5686 87.3673C17.1534 87.6368 17.7577 87.8956 18.3461 88.1472C18.6358 88.2712 18.9255 88.3952 19.2152 88.5228L21.8813 89.5668L22.3115 89.7214L23.0225 89.9765L22.9851 90.5156C22.9265 91.389 22.8838 92.2425 22.8412 93.0656C22.8287 93.425 22.8145 93.7844 22.7985 94.1438C22.7701 94.8266 22.7416 95.5329 22.7292 96.2211C22.6741 98.081 22.6474 100.09 22.6456 102.554C22.6456 104.435 22.6723 106.663 22.7399 108.881L22.8412 112.058L22.9922 115.232C23.0953 117.568 23.2571 119.859 23.3851 121.598C23.4153 121.958 23.4437 122.337 23.4721 122.707C23.5255 123.403 23.5788 124.1 23.6499 124.793L23.9663 128.005C23.9858 128.184 24.0054 128.375 24.0231 128.562C24.0551 128.901 24.0907 129.252 24.1351 129.595L24.3377 131.212C24.3751 131.491 24.4088 131.769 24.4444 132.05C24.5404 132.83 24.6399 133.636 24.775 134.438L25.0309 136.084C25.054 136.226 25.0754 136.371 25.0985 136.517C25.1607 136.92 25.2193 137.299 25.2993 137.698C25.509 138.819 25.7277 139.912 25.9534 141.024C26.3422 142.924 27.3962 144.618 28.9218 145.796C30.4474 146.973 32.3421 147.554 34.2575 147.432C36.1278 147.313 37.8956 146.527 39.2468 145.214C40.598 143.901 41.4451 142.147 41.6373 140.262L41.7031 139.619H41.7155C42.1403 136.091 43.4841 127.918 50.0001 127.918Z" fill="#C9C9C9"/>
<path d="M29.002 70.1023C32.69 70.1023 35.6797 67.0796 35.6797 63.3509C35.6797 59.6223 32.69 56.5996 29.002 56.5996C25.3139 56.5996 22.3242 59.6223 22.3242 63.3509C22.3242 67.0796 25.3139 70.1023 29.002 70.1023Z" fill="#F7E5CB"/>
<path d="M59.9625 86.2939C60.2669 82.3569 55.8876 78.7997 50.1811 78.3487C44.4745 77.8977 39.6017 80.7236 39.2973 84.6606C38.9929 88.5975 43.3721 92.1547 49.0787 92.6057C54.7852 93.0567 59.658 90.2308 59.9625 86.2939Z" fill="#E8E7E6"/>
<path d="M72.606 32.0162C72.7903 31.7217 72.9035 31.3874 72.9365 31.0404C73.324 27.0241 72.4318 20.7221 68.7507 19.4947C66.6996 18.8101 63.2923 20.4921 59.5491 25.0439C56.0904 24.0333 52.5078 23.5227 48.9077 23.5272C45.912 23.5246 42.9263 23.8768 40.0117 24.5766C36.4249 20.3788 33.1811 18.8352 31.201 19.4947C27.6462 20.6807 26.6935 26.6001 26.9815 30.6199C18.9084 36.5806 13.7344 45.7579 13.7344 56.0529C13.7344 74.0229 29.4823 88.5785 48.9077 88.5785C68.3331 88.5785 84.0827 74.0229 84.0827 56.0529C84.0774 46.5306 79.6516 37.9661 72.606 32.0162Z" fill="white"/>
<path d="M48.9038 89.2986C29.1176 89.2986 13.0195 74.3835 13.0195 56.0541C13.0195 45.9999 17.8346 36.625 26.2453 30.2762C26.0675 26.693 26.8389 20.1914 30.975 18.8131C33.3692 18.0152 36.8209 19.868 40.262 23.78C43.0982 23.134 45.9965 22.8085 48.9038 22.8096C52.416 22.8058 55.9125 23.2827 59.2981 24.2275C62.876 19.9991 66.4718 17.9811 68.969 18.8131C73.1335 20.2022 74.0436 26.9284 73.6401 31.1118C73.6188 31.3274 73.5868 31.5035 73.553 31.6904C73.5423 31.7461 73.5317 31.8036 73.5228 31.8701C80.7906 38.1434 84.7898 46.7187 84.7898 56.0613C84.7898 74.3853 68.6971 89.2986 48.9038 89.2986ZM32.1872 20.0512C31.9272 20.049 31.6685 20.089 31.4211 20.1699C29.6988 20.7431 28.787 22.6767 28.3266 24.1969C27.7632 26.0532 27.5304 28.3732 27.6868 30.5601L27.7152 30.959L27.3971 31.1944C19.1623 37.2719 14.4415 46.3306 14.4415 56.0451C14.4415 73.5839 29.905 87.852 48.9038 87.852C67.9026 87.852 83.3679 73.5821 83.3679 56.0451C83.3679 47.0062 79.438 38.7131 72.3035 32.6949L72.0049 32.4434L72.0546 32.0534C72.0866 31.791 72.1222 31.5934 72.1542 31.4209C72.1861 31.2483 72.2093 31.1172 72.2253 30.9626C72.5967 27.117 71.692 21.2265 68.5247 20.1699C66.1767 19.3864 62.5152 22.5491 60.0926 25.4962L59.794 25.8556L59.3479 25.7244C55.9533 24.7331 52.4371 24.2321 48.9038 24.2365C45.9638 24.2348 43.0338 24.5804 40.1731 25.2661L39.7537 25.3686L39.471 25.0379C37.4039 22.6281 34.393 20.0512 32.1872 20.0512Z" fill="#C9C9C9"/>
<path d="M40.5921 58.1139C41.769 58.1139 42.7232 57.1492 42.7232 55.9593C42.7232 54.7693 41.769 53.8047 40.5921 53.8047C39.4151 53.8047 38.4609 54.7693 38.4609 55.9593C38.4609 57.1492 39.4151 58.1139 40.5921 58.1139Z" fill="black"/>
<path d="M58.0257 58.1139C59.2026 58.1139 60.1568 57.1492 60.1568 55.9593C60.1568 54.7693 59.2026 53.8047 58.0257 53.8047C56.8487 53.8047 55.8945 54.7693 55.8945 55.9593C55.8945 57.1492 56.8487 58.1139 58.0257 58.1139Z" fill="black"/>
<path d="M51.2378 58.1134C50.7046 58.0667 49.5635 58.0937 49.3076 58.0937C49.0516 58.0937 47.9034 58.0667 47.3773 58.1134C46.8157 58.1638 45.8949 58.8322 46.2326 59.9104C46.5704 60.9886 48.4437 61.4181 49.0498 61.4181H49.5671C50.1732 61.4181 52.0554 60.9779 52.3825 59.9104C52.7095 58.843 51.7995 58.1638 51.2378 58.1134Z" fill="black"/>
<path d="M31.6805 28.8434C31.5455 28.8888 31.4021 28.903 31.2609 28.8848C31.1198 28.8667 30.9845 28.8167 30.865 28.7385C30.7455 28.6604 30.645 28.556 30.5708 28.4333C30.4966 28.3105 30.4506 28.1725 30.4363 28.0293C30.271 26.3204 30.7669 24.2916 32.4235 23.7381C33.9325 23.2349 35.6726 24.5198 36.5453 25.9933C36.6179 26.1168 36.6621 26.2552 36.6748 26.3983C36.6874 26.5413 36.6681 26.6855 36.6183 26.82C36.5685 26.9545 36.4894 27.076 36.387 27.1755C36.2845 27.275 36.1612 27.35 36.0263 27.395L31.6805 28.8434Z" fill="#F2DBAD"/>
<path d="M68.2633 28.8434C68.3984 28.8888 68.5417 28.903 68.6829 28.8848C68.8241 28.8667 68.9594 28.8167 69.0788 28.7385C69.1983 28.6604 69.2989 28.556 69.3731 28.4333C69.4473 28.3105 69.4932 28.1725 69.5075 28.0293C69.6728 26.3204 69.1787 24.2916 67.5204 23.7381C66.0131 23.2349 64.273 24.5198 63.3985 25.9933C63.326 26.1169 63.2818 26.2554 63.2693 26.3986C63.2568 26.5418 63.2763 26.6859 63.3263 26.8205C63.3763 26.955 63.4555 27.0765 63.5581 27.176C63.6608 27.2754 63.7842 27.3502 63.9193 27.395L68.2633 28.8434Z" fill="#F2DBAD"/>
<path d="M49.3086 65.4273C49.1201 65.4273 48.9392 65.3515 48.8059 65.2167C48.6726 65.0819 48.5977 64.8991 48.5977 64.7085V61.42C48.5977 61.2293 48.6726 61.0465 48.8059 60.9117C48.9392 60.7769 49.1201 60.7012 49.3086 60.7012C49.4972 60.7012 49.678 60.7769 49.8113 60.9117C49.9447 61.0465 50.0196 61.2293 50.0196 61.42V64.7085C50.0196 64.8991 49.9447 65.0819 49.8113 65.2167C49.678 65.3515 49.4972 65.4273 49.3086 65.4273Z" fill="black"/>
<path d="M50.9381 65.5958H47.6836C47.4951 65.5958 47.3142 65.5201 47.1809 65.3853C47.0475 65.2505 46.9727 65.0677 46.9727 64.877C46.9727 64.6864 47.0475 64.5035 47.1809 64.3687C47.3142 64.2339 47.4951 64.1582 47.6836 64.1582H50.9381C51.1266 64.1582 51.3075 64.2339 51.4408 64.3687C51.5741 64.5035 51.649 64.6864 51.649 64.877C51.649 65.0677 51.5741 65.2505 51.4408 65.3853C51.3075 65.5201 51.1266 65.5958 50.9381 65.5958Z" fill="black"/>
<path d="M93.5597 34.2784C93.5597 43.0154 73.21 48.6868 49.6717 48.6868C26.1334 48.6868 5.05859 43.0154 5.05859 34.2784C5.05859 25.5414 29.9957 18.4648 49.6717 18.4648C70.2418 18.4595 93.5597 25.5414 93.5597 34.2784Z" fill="#F8CC81"/>
<path d="M72.7871 27.2866H25.8438L27.5767 17.094C29.1764 7.7065 38.419 0.753906 49.3145 0.753906C60.2101 0.753906 69.4597 7.7065 71.0541 17.094L72.7871 27.2866Z" fill="#F8CC81"/>
<path d="M14.6416 34.6069L16.0511 35.261C16.5363 35.482 17.0286 35.6941 17.5245 35.9025C18.0204 36.111 18.5217 36.3068 19.03 36.4937C19.5384 36.6806 20.0503 36.8531 20.5622 37.0634L20.5941 37.0742C20.8482 37.1748 21.0524 37.3732 21.162 37.6258C21.2716 37.8785 21.2777 38.1647 21.1789 38.4219C21.0964 38.6364 20.946 38.8172 20.7511 38.9362C20.5563 39.0551 20.328 39.1056 20.1018 39.0796C19.5048 39.0092 18.9137 38.8944 18.3333 38.7364C17.7503 38.5807 17.1775 38.3887 16.6181 38.1613C16.0551 37.9334 15.5081 37.6668 14.9811 37.3635C14.7168 37.2101 14.4579 37.0448 14.2043 36.8675C14.0764 36.7794 13.9519 36.6878 13.8275 36.589C13.7031 36.4901 13.5911 36.3949 13.4418 36.2619C13.2407 36.0807 13.1189 35.8262 13.1033 35.5543C13.0876 35.2824 13.1793 35.0153 13.3583 34.8117C13.5026 34.6473 13.6954 34.5341 13.9082 34.4888C14.121 34.4435 14.3426 34.4685 14.5403 34.5601L14.6416 34.6069Z" fill="#FFDDA6"/>
<path d="M17.7545 28.9806C17.8789 29.0417 18.0407 29.1495 18.1917 29.2304L18.6468 29.4982C18.9507 29.6779 19.2547 29.8576 19.5586 30.0211C19.8625 30.1846 20.1665 30.3445 20.4668 30.4973L21.3715 30.9268L21.4728 30.9753C21.7046 31.0856 21.8837 31.2843 21.9706 31.5279C22.0576 31.7715 22.0454 32.04 21.9368 32.2745C21.8597 32.4393 21.7387 32.5791 21.5874 32.6782C21.436 32.7772 21.2603 32.8316 21.08 32.8352C20.6261 32.8445 20.1728 32.7956 19.731 32.6896C19.3056 32.5857 18.8894 32.4462 18.4868 32.2727C18.0954 32.1025 17.7164 31.9043 17.3528 31.6797C17.1751 31.5701 16.9973 31.4515 16.8196 31.3203C16.6418 31.1891 16.4872 31.0705 16.3006 30.898C16.184 30.7917 16.0893 30.6631 16.0219 30.5197C15.9545 30.3763 15.9157 30.2209 15.9078 30.0623C15.8998 29.9038 15.9229 29.7452 15.9757 29.5956C16.0284 29.4461 16.1099 29.3086 16.2153 29.1909C16.3891 28.9964 16.6208 28.8644 16.8754 28.8148C17.13 28.7652 17.3937 28.8007 17.6265 28.9159L17.7545 28.9806Z" fill="#FFDDA6"/>
<path d="M39.2461 13.713C38.9305 13.7072 38.6162 13.6705 38.3076 13.6034C38.0068 13.5429 37.71 13.4636 37.4189 13.3662C36.8339 13.1782 36.2776 12.9091 35.7659 12.5665C35.5125 12.3889 35.3393 12.1169 35.2843 11.8103C35.2293 11.5036 35.297 11.1874 35.4726 10.9312C35.5924 10.7565 35.7569 10.618 35.9484 10.5303C36.14 10.4427 36.3515 10.4092 36.5604 10.4335H36.6048C36.8848 10.471 37.162 10.5268 37.4349 10.6006C37.7068 10.6689 37.9681 10.7515 38.2383 10.836C38.5084 10.9204 38.7715 11.0157 39.0221 11.1235C39.2798 11.2236 39.5294 11.3437 39.7686 11.4829L39.8575 11.5368C39.9891 11.6162 40.1037 11.7212 40.1949 11.8457C40.2861 11.9703 40.3519 12.1118 40.3886 12.2622C40.4253 12.4126 40.4321 12.5689 40.4087 12.722C40.3852 12.8751 40.332 13.0219 40.2521 13.1541C40.1464 13.3272 39.9982 13.4697 39.8219 13.5676C39.6456 13.6656 39.4472 13.7156 39.2461 13.713V13.713Z" fill="#FFDDA6"/>
<path d="M34.2966 16.6763C34.0572 16.6674 33.8191 16.6355 33.5856 16.5811C33.3612 16.5298 33.1398 16.4656 32.9227 16.3888C32.4855 16.2388 32.071 16.0283 31.6909 15.7634C31.5978 15.6955 31.5188 15.6096 31.4584 15.5108C31.3981 15.412 31.3576 15.3021 31.3393 15.1875C31.321 15.0728 31.3252 14.9557 31.3517 14.8427C31.3781 14.7297 31.4264 14.623 31.4936 14.5289C31.5871 14.3971 31.7147 14.2939 31.8624 14.2305C32.01 14.1671 32.1721 14.146 32.3308 14.1695H32.3521C32.7685 14.2417 33.1777 14.3512 33.575 14.4965C33.7723 14.5666 33.9678 14.6385 34.1615 14.723C34.3538 14.8019 34.5398 14.8956 34.7178 15.0033L34.7836 15.0446C34.979 15.1693 35.1175 15.3671 35.1688 15.5948C35.2201 15.8225 35.18 16.0615 35.0573 16.2594C34.9772 16.3896 34.8649 16.4965 34.7316 16.5696C34.5982 16.6427 34.4483 16.6795 34.2966 16.6763V16.6763Z" fill="#FFDDA6"/>
<path d="M35.0469 23.3671C34.6441 23.2949 34.2472 23.1922 33.8596 23.0598C33.4739 22.934 33.0971 22.7849 32.7238 22.6232C31.956 22.2976 31.2322 21.8749 30.5696 21.3653C30.3327 21.1731 30.1809 20.8937 30.1475 20.5884C30.1142 20.2831 30.2021 19.977 30.3918 19.7372C30.5364 19.5534 30.7327 19.4182 30.9549 19.3495C31.177 19.2809 31.4145 19.282 31.636 19.3526L31.6929 19.3706C32.0484 19.482 32.3879 19.615 32.7345 19.7552C33.0811 19.8953 33.4312 20.0391 33.7796 20.19C34.128 20.341 34.4763 20.4991 34.8212 20.6698C35.1675 20.8353 35.505 21.0188 35.8325 21.2197L35.8627 21.2395C36.1213 21.4032 36.305 21.6639 36.3737 21.9644C36.4423 22.2649 36.3902 22.5807 36.2289 22.8424C36.106 23.039 35.9279 23.1941 35.7173 23.2876C35.5066 23.3811 35.2732 23.4088 35.0469 23.3671V23.3671Z" fill="#FFDDA6"/>
<path d="M78.9442 29.2657C78.661 29.5312 78.3585 29.7751 78.0395 29.9952C77.7266 30.2163 77.4014 30.4175 77.069 30.608C76.3941 31.0024 75.6735 31.3108 74.9237 31.5263C74.7779 31.5656 74.6259 31.5754 74.4764 31.5552C74.3268 31.535 74.1827 31.4852 74.0522 31.4086C73.9218 31.3319 73.8076 31.23 73.7162 31.1087C73.6247 30.9874 73.5579 30.849 73.5195 30.7015C73.4605 30.4785 73.4685 30.2429 73.5426 30.0246C73.6167 29.8063 73.7535 29.6152 73.9354 29.4759L73.9745 29.4472C74.2589 29.2315 74.5557 29.0374 74.8632 28.8487C75.1707 28.6601 75.4729 28.475 75.7839 28.2935C76.095 28.112 76.4131 27.9341 76.7384 27.7777C77.0607 27.6103 77.3925 27.4621 77.732 27.3339L77.7675 27.3213C77.9099 27.2693 78.061 27.2461 78.2123 27.2532C78.3635 27.2603 78.5119 27.2974 78.6489 27.3625C78.7859 27.4276 78.9089 27.5194 79.0108 27.6325C79.1127 27.7457 79.1915 27.8781 79.2428 28.0221C79.3176 28.2364 79.3293 28.468 79.2762 28.6887C79.2232 28.9095 79.1079 29.11 78.9442 29.2657V29.2657Z" fill="#E1A962"/>
<path d="M76.5385 35.2007C76.2162 35.4163 75.8781 35.6067 75.5271 35.7703C75.1823 35.9357 74.8286 36.0794 74.4607 36.2124C73.7304 36.4884 72.9693 36.6724 72.1945 36.7605C71.8924 36.787 71.5921 36.6918 71.3591 36.4956C71.1261 36.2994 70.9792 36.018 70.9503 35.7128C70.9291 35.4831 70.9759 35.2521 71.0847 35.0492C71.1936 34.8464 71.3596 34.6808 71.5617 34.5735L71.6044 34.552C71.9208 34.3867 72.2443 34.2447 72.5731 34.1081C72.9019 33.9715 73.2361 33.8422 73.5738 33.7146C73.9115 33.587 74.2509 33.472 74.5993 33.366C74.9443 33.2537 75.2957 33.1625 75.6515 33.0928H75.6889C75.9898 33.0378 76.3001 33.1059 76.5514 33.2822C76.8027 33.4584 76.9745 33.7284 77.029 34.0326C77.0673 34.2544 77.0414 34.4827 76.9543 34.6899C76.8673 34.8971 76.7229 35.0745 76.5385 35.2007V35.2007Z" fill="#E1A962"/>
<path d="M74.7715 41.029C74.3609 41.2238 73.9368 41.3878 73.5024 41.5196C73.0731 41.6548 72.637 41.7669 72.196 41.8556C71.7463 41.9478 71.2917 42.0132 70.8345 42.0515C70.3517 42.0956 69.8657 42.0896 69.3841 42.0335C69.0835 41.9941 68.8107 41.8358 68.6254 41.5932C68.4401 41.3506 68.3576 41.0437 68.3959 40.7397C68.4265 40.5037 68.5281 40.2829 68.6871 40.1074C68.8461 39.9318 69.0547 39.81 69.2846 39.7585L69.3592 39.7424C70.0702 39.5842 70.8754 39.4225 71.6699 39.2518C72.0716 39.1727 72.4786 39.0865 72.8892 39.0146C73.2998 38.9427 73.721 38.8708 74.1334 38.8349H74.176C74.3259 38.821 74.477 38.8372 74.6207 38.8825C74.7644 38.9278 74.8978 39.0012 75.0134 39.0987C75.129 39.1962 75.2244 39.3158 75.2942 39.4506C75.364 39.5854 75.4068 39.7328 75.4202 39.8843C75.4393 40.1191 75.3875 40.3541 75.2717 40.5585C75.1558 40.7629 74.9815 40.9269 74.7715 41.029V41.029Z" fill="#E1A962"/>
<path d="M84.4678 31.6122C84.2619 31.8538 84.0333 32.0747 83.7853 32.2717C83.5482 32.4667 83.2995 32.6467 83.0405 32.8108C82.5239 33.1464 81.9633 33.4071 81.3751 33.5853C81.0795 33.6665 80.7643 33.6263 80.4979 33.4735C80.2316 33.3207 80.0358 33.0676 79.9531 32.7695C79.8965 32.565 79.8958 32.3489 79.9512 32.1441C80.0067 31.9393 80.116 31.7536 80.2678 31.6068L80.3015 31.5745C80.5091 31.3807 80.7287 31.2006 80.9592 31.0354C81.1849 30.8683 81.4177 30.7137 81.6506 30.5628C81.8834 30.4118 82.1252 30.2681 82.3616 30.1351C82.602 29.9959 82.8528 29.8757 83.1116 29.7757L83.2094 29.7415C83.3528 29.6907 83.5047 29.669 83.6565 29.6776C83.8082 29.6863 83.9568 29.7251 84.0936 29.7918C84.2305 29.8586 84.353 29.952 84.4541 30.0667C84.5552 30.1815 84.633 30.3152 84.6829 30.4603C84.75 30.6545 84.7655 30.8632 84.7278 31.0654C84.69 31.2675 84.6004 31.4561 84.4678 31.6122V31.6122Z" fill="#E1A962"/>
<path d="M82.9678 37.6719C82.7263 37.8758 82.4662 38.0563 82.1911 38.2109C81.9259 38.3643 81.6517 38.5012 81.3699 38.6207C80.8077 38.8701 80.2136 39.0383 79.605 39.1202C79.4535 39.1377 79.3001 39.1249 79.1535 39.0825C79.0069 39.04 78.87 38.9687 78.7507 38.8728C78.6313 38.7768 78.5319 38.658 78.458 38.5232C78.384 38.3884 78.3371 38.2401 78.3199 38.087C78.2962 37.8761 78.3295 37.6626 78.4162 37.4693C78.5029 37.276 78.6398 37.11 78.8122 36.989L78.8513 36.962C79.0859 36.8034 79.3305 36.6606 79.5836 36.5344C79.8325 36.405 80.0866 36.29 80.3408 36.175C80.595 36.0599 80.8545 35.9593 81.1175 35.8677C81.3763 35.7714 81.6419 35.6951 81.912 35.6394L82.0134 35.6197C82.3158 35.5653 82.6271 35.6345 82.8791 35.812C83.131 35.9896 83.3029 36.261 83.3571 36.5667C83.3942 36.7692 83.3777 36.9781 83.3094 37.1722C83.241 37.3662 83.1232 37.5386 82.9678 37.6719V37.6719Z" fill="#E1A962"/>
<path d="M65.3319 14.8814C65.0462 15.0125 64.7485 15.1154 64.4432 15.1887C64.1472 15.2636 63.8468 15.32 63.5439 15.3576C62.936 15.4438 62.3192 15.4438 61.7113 15.3576C61.4076 15.3065 61.1362 15.1358 60.9567 14.8828C60.7771 14.6299 60.704 14.3153 60.7533 14.008C60.7876 13.7983 60.8774 13.6018 61.0132 13.4395C61.149 13.2772 61.3258 13.1551 61.5247 13.0862L61.5674 13.0718C61.8362 12.9838 62.1105 12.9141 62.3885 12.8633C62.6623 12.8076 62.9378 12.7663 63.2133 12.7286C63.4888 12.6908 63.766 12.6621 64.0433 12.6477C64.3183 12.6252 64.5947 12.6252 64.8698 12.6477L64.9729 12.6585C65.2784 12.6898 65.5591 12.8422 65.7536 13.0824C65.9482 13.3225 66.0407 13.6308 66.0109 13.9397C65.9888 14.1429 65.9145 14.3368 65.7954 14.502C65.6763 14.6671 65.5165 14.7979 65.3319 14.8814Z" fill="#E1A962"/>
<path d="M67.8591 19.3694C67.5442 19.5495 67.2176 19.708 66.8816 19.8438C66.551 19.9822 66.2115 20.1044 65.8684 20.214C65.5254 20.3236 65.1752 20.4224 64.8144 20.4979C64.4478 20.5819 64.0752 20.636 63.7 20.6596C63.4547 20.6719 63.2147 20.5853 63.0324 20.4189C62.8502 20.2525 62.7406 20.0198 62.7278 19.7719C62.718 19.5779 62.7682 19.3856 62.8714 19.2217C62.9746 19.0578 63.1256 18.9305 63.3036 18.8572L63.3321 18.8465C63.9328 18.6003 64.5762 18.381 65.2268 18.1672C65.552 18.0648 65.8809 17.9605 66.2132 17.8707C66.5456 17.7808 66.8851 17.691 67.2228 17.6335H67.2406C67.4825 17.5934 67.7303 17.6515 67.93 17.7952C68.1298 17.9389 68.2653 18.1566 68.307 18.4008C68.3386 18.5891 68.3126 18.7827 68.2326 18.9558C68.1526 19.1288 68.0223 19.2731 67.8591 19.3694V19.3694Z" fill="#E1A962"/>
<path d="M66.5187 25.3266C66.2497 25.4944 65.9652 25.6352 65.6691 25.7471C65.3847 25.8584 65.0939 25.952 64.7982 26.0275C64.2048 26.1878 63.5922 26.264 62.9781 26.2539C62.6702 26.2417 62.3797 26.1067 62.1701 25.8783C61.9605 25.6499 61.8491 25.3468 61.8601 25.0355C61.8681 24.8234 61.9328 24.6175 62.0473 24.4397C62.1619 24.2618 62.322 24.1187 62.5106 24.0256L62.5533 24.0041C62.8088 23.8832 63.0718 23.7794 63.3407 23.6932C63.6055 23.6033 63.8739 23.5279 64.1423 23.456C64.4107 23.3841 64.6755 23.3194 64.9564 23.2763C65.2265 23.2204 65.5004 23.185 65.7758 23.1702H65.8806C66.1873 23.163 66.4843 23.2788 66.7068 23.4922C66.9292 23.7057 67.0591 23.9996 67.0679 24.3095C67.0713 24.5126 67.0224 24.7131 66.9262 24.8914C66.8299 25.0697 66.6895 25.2197 66.5187 25.3266V25.3266Z" fill="#E1A962"/>
<path d="M49.3075 33.4224C40.4204 33.4224 33.6466 31.3792 29.5284 29.6649C29.4377 29.6273 29.3553 29.5719 29.2858 29.502C29.2163 29.4321 29.1612 29.349 29.1236 29.2576C29.0859 29.1661 29.0665 29.068 29.0664 28.9689C29.0663 28.8698 29.0856 28.7717 29.1231 28.6801C29.1983 28.495 29.3432 28.3476 29.5258 28.2704C29.7085 28.1933 29.914 28.1926 30.0971 28.2686C34.0892 29.9344 40.6639 31.9111 49.3075 31.9111C57.7324 31.9111 62.3946 31.027 68.5035 28.2758C68.6843 28.1947 68.8896 28.1894 69.0742 28.2612C69.2588 28.333 69.4077 28.4759 69.4882 28.6586C69.5285 28.7489 69.5507 28.8464 69.5535 28.9454C69.5563 29.0445 69.5398 29.1431 69.5047 29.2356C69.4697 29.3282 69.4169 29.4128 69.3494 29.4846C69.2819 29.5564 69.201 29.614 69.1114 29.6541C62.7838 32.5059 57.9724 33.4224 49.3075 33.4224Z" fill="#E1A962"/>
<path d="M49.6782 49.4414C37.8157 49.4414 26.6837 48.0344 18.3299 45.4881C9.16376 42.6865 4.32031 38.8122 4.32031 34.2856C4.32031 31.396 6.59185 28.6394 11.0745 26.093C14.8551 23.9456 20.0895 22.0336 26.2323 20.5565L26.8419 16.9733C27.6453 12.2418 30.3701 7.92179 34.5133 4.8058C38.6564 1.6898 43.8873 0.0078125 49.3156 0.0078125C54.7438 0.0078125 60.0014 1.71316 64.1179 4.8058C68.2628 7.92179 70.9876 12.2418 71.791 16.9733L72.3633 20.3355C86.1188 23.5611 94.3126 28.7598 94.3126 34.2856C94.3126 38.823 89.5954 42.6973 80.6692 45.4863C72.4895 48.0344 61.4838 49.4414 49.6782 49.4414ZM49.3227 1.5101C44.2144 1.5101 39.2732 3.10943 35.4126 6.01158C31.5521 8.91374 29.0584 12.8743 28.319 17.2231L27.544 21.791L27.0606 21.9042C20.8396 23.3652 15.5713 25.2664 11.8121 27.4013C7.8929 29.6295 5.82044 32.007 5.82044 34.2784C5.82044 41.9336 25.0876 47.9356 49.6853 47.9356C61.3523 47.9356 72.2016 46.5519 80.2355 44.0415C88.3548 41.5023 92.8267 38.0377 92.8267 34.282C92.8267 31.3061 89.5936 28.8029 86.8813 27.2287C83.106 25.0382 77.8058 23.1226 71.5528 21.6922L71.0676 21.5808L70.3264 17.2267C69.5888 12.8779 67.0702 8.89577 63.2345 6.01518C59.3989 3.13459 54.4186 1.5101 49.3085 1.5101H49.3227Z" fill="#E1A962"/>
</g>
<defs>
<clipPath id="clip0_714_2267">
<rect width="96" height="149" fill="white"/>
</clipPath>
</defs>
</svg>
